<svg width="983" height="891" viewBox="0 0 983 891" fill="none" xmlns="http://www.w3.org/2000/svg">
<mask id="mask0" mask-type="alpha" maskUnits="userSpaceOnUse" x="0" y="0" width="983" height="891">
<rect width="983" height="891" rx="60" fill="url(#paint0_linear)"/>
</mask>
<g mask="url(#mask0)">
<g opacity="0.5">
<path d="M756.448 615.488C801.078 1009.62 439.522 1305.17 19.7967 1324.22C-410.627 1336.58 -751.622 1013.63 -755.133 589.424C-750.452 162.213 -363.656 -524.132 255.318 -325.146C493.68 -227.239 675.879 -47.2995 686.243 183.431C687.747 320.6 730.539 467.627 756.448 615.488Z" stroke="#F60C86" stroke-width="0.5" stroke-miterlimit="10"/>
<path d="M762.8 611.812C806.595 1006.11 445.039 1303.67 25.6477 1319.38C-402.603 1329.07 -739.587 1002.1 -746.106 585.08C-744.1 165.053 -362.82 -513.273 248.298 -319.632C484.487 -227.24 668.525 -53.1473 684.906 175.245C690.924 311.745 737.225 460.275 762.8 611.812Z" stroke="#F30C87" stroke-width="0.5" stroke-miterlimit="10"/>
<path d="M769.823 607.303C812.781 1001.93 451.393 1301.33 32.1687 1313.86C-394.076 1321.05 -726.714 990.072 -736.409 580.237C-736.91 167.394 -361.481 -502.912 242.115 -314.451C476.299 -227.405 662.008 -59.1603 684.239 166.558C694.77 301.722 744.582 452.09 769.823 607.303Z" stroke="#F00C89" stroke-width="0.5" stroke-miterlimit="10"/>
<path d="M777.677 601.787C819.967 996.586 458.578 1297.99 39.5212 1307.35C-384.718 1311.86 -713.009 977.038 -725.88 574.386C-729.056 168.727 -359.31 -493.726 236.597 -310.444C468.607 -228.745 656.155 -66.5145 684.404 156.865C699.281 290.86 752.603 442.898 777.677 601.787Z" stroke="#ED0C8A" stroke-width="0.5" stroke-miterlimit="10"/>
<path d="M786.037 595.439C827.491 990.405 466.27 1293.81 47.3798 1299.83C-374.686 1301.83 -698.799 963.004 -714.846 567.37C-720.529 168.896 -356.633 -485.538 231.584 -307.436C461.422 -231.082 650.641 -74.8671 684.908 146.006C704.632 279.165 761.298 432.875 786.037 595.439Z" stroke="#EB0C8C" stroke-width="0.5" stroke-miterlimit="10"/>
<path d="M795.23 588.257C835.848 983.557 474.627 1288.8 56.0714 1291.64C-363.988 1290.98 -683.922 948.137 -702.978 559.854C-711.336 168.397 -353.123 -478.017 227.405 -305.094C455.237 -234.087 646.128 -83.7197 686.412 134.648C710.482 266.47 770.825 422.017 795.23 588.257Z" stroke="#E80C8D" stroke-width="0.5" stroke-miterlimit="10"/>
<path d="M804.924 580.402C844.874 975.869 483.652 1283.12 65.2641 1282.62C-352.623 1279.44 -668.378 932.596 -690.61 551.498C-701.475 167.225 -349.112 -471.17 223.894 -303.593C449.553 -237.933 642.282 -93.5797 688.417 122.449C717 253.269 780.686 410.486 804.924 580.402Z" stroke="#E50C8F" stroke-width="0.5" stroke-miterlimit="10"/>
<path d="M815.12 571.715C854.234 967.349 493.18 1276.61 74.9588 1272.93C-340.922 1267.08 -652.331 916.391 -677.739 542.31C-691.278 165.221 -344.6 -465.321 220.718 -302.757C444.204 -242.61 638.772 -104.104 690.924 109.418C724.021 239.068 791.217 398.124 815.12 571.715Z" stroke="#E20C90" stroke-width="0.5" stroke-miterlimit="10"/>
<path d="M825.82 562.19C864.098 957.991 503.211 1269.25 85.324 1262.4C-328.551 1254.05 -635.614 899.348 -664.198 532.451C-680.245 162.546 -339.249 -459.976 218.212 -302.758C439.525 -247.958 635.765 -115.3 694.102 95.7161C731.544 224.364 802.418 384.923 825.82 562.19Z" stroke="#DF0C91" stroke-width="0.5" stroke-miterlimit="10"/>
<path d="M837.019 552.167C874.629 948.303 513.574 1261.4 96.022 1251.21C-315.68 1240.35 -618.732 881.473 -650.324 521.927C-669.045 159.206 -333.733 -455.464 216.039 -303.258C435.346 -253.804 633.257 -127.161 697.445 81.5162C739.401 208.828 813.784 371.225 837.019 552.167Z" stroke="#DC0C93" stroke-width="0.5" stroke-miterlimit="10"/>
<path d="M848.718 541.64C885.492 937.943 524.605 1253.05 107.219 1239.68C-302.477 1226.15 -601.183 863.427 -635.951 510.898C-657.347 155.362 -327.718 -451.288 214.365 -304.429C431.499 -260.321 631.249 -139.693 701.454 66.4782C747.923 192.954 825.817 357.022 848.718 541.64Z" stroke="#DA0C94" stroke-width="0.5" stroke-miterlimit="10"/>
<path d="M860.587 530.448C896.525 926.917 535.805 1244.03 118.587 1227.32C-289.103 1211.28 -583.463 844.549 -621.407 499.204C-645.31 150.685 -321.531 -447.945 213.029 -306.098C427.99 -267.337 629.579 -152.556 705.635 51.1086C756.617 176.248 838.021 342.154 860.587 530.448Z" stroke="#D70C96" stroke-width="0.5" stroke-miterlimit="10"/>
<path d="M872.956 518.754C908.225 915.557 547.338 1234.5 130.454 1214.62C-275.063 1195.91 -565.244 825.337 -606.364 487.177C-632.941 145.842 -314.846 -444.769 212.026 -308.269C424.814 -275.021 628.241 -166.088 710.314 35.0709C765.809 159.208 850.724 326.784 872.956 518.754Z" stroke="#D40C97" stroke-width="0.5" stroke-miterlimit="10"/>
<path d="M885.66 506.724C920.093 903.695 559.373 1224.65 142.657 1201.59C-260.855 1180.37 -546.856 805.621 -590.985 474.645C-620.07 140.495 -307.825 -442.096 211.357 -310.775C422.139 -282.874 627.071 -179.955 715.162 18.8641C775.337 141.832 863.595 311.079 885.66 506.724Z" stroke="#D10D98" stroke-width="0.5" stroke-miterlimit="10"/>
<path d="M898.531 494.194C932.129 891.332 571.576 1214.29 155.026 1187.89C-246.312 1164 -528.135 785.406 -575.44 461.614C-607.199 134.648 -300.637 -440.091 210.856 -313.949C419.465 -291.394 626.236 -194.324 720.344 1.9899C784.865 123.955 876.8 294.873 898.531 494.194Z" stroke="#CE0D9A" stroke-width="0.5" stroke-miterlimit="10"/>
<path d="M911.568 481.326C944.33 878.631 583.944 1203.59 167.562 1174.02C-231.771 1147.62 -509.248 765.02 -559.728 448.245C-593.995 128.463 -293.117 -438.256 210.688 -317.461C417.124 -300.252 625.733 -209.196 725.859 -15.3888C794.894 105.741 890.172 278.329 911.568 481.326Z" stroke="#CB0D9B" stroke-width="0.5" stroke-miterlimit="10"/>
<path d="M924.943 468.294C957.036 865.933 596.484 1192.73 180.603 1159.82C-216.724 1130.75 -489.855 744.302 -543.512 434.711C-580.62 122.114 -285.425 -436.586 210.69 -320.97C414.953 -309.108 625.401 -224.066 731.377 -32.5982C804.925 87.1948 903.881 261.621 924.943 468.294Z" stroke="#C90D9D" stroke-width="0.5" stroke-miterlimit="10"/>
<path d="M938.315 454.931C969.573 852.737 609.188 1181.54 193.474 1145.45C-201.847 1113.88 -470.799 723.421 -527.632 421.015C-567.247 115.434 -277.735 -435.246 210.691 -324.809C412.948 -318.46 624.9 -239.1 737.061 -50.1374C815.122 68.4861 917.421 244.583 938.315 454.931Z" stroke="#C60D9E" stroke-width="0.5" stroke-miterlimit="10"/>
<path d="M951.684 441.395C982.107 839.368 621.888 1170.18 206.341 1130.91C-186.806 1096.66 -451.58 702.199 -511.421 406.977C-553.544 108.581 -269.882 -434.247 210.855 -328.822C410.939 -327.82 624.73 -254.474 742.741 -68.0178C825.315 49.6032 931.292 227.371 951.684 441.395Z" stroke="#C30DA0" stroke-width="0.5" stroke-miterlimit="10"/>
<path d="M965.226 427.696C994.98 826.003 634.594 1158.65 219.382 1116.05C-171.76 1079.29 -432.187 680.815 -495.205 392.777C-540.002 101.732 -262.024 -433.243 211.024 -332.998C408.935 -337.342 624.565 -270.01 748.593 -85.8936C835.681 30.5579 945 209.997 965.226 427.696Z" stroke="#C00DA1" stroke-width="0.5" stroke-miterlimit="10"/>
<path d="M978.765 413.996C1007.68 812.47 647.464 1147.12 232.419 1101.34C-156.55 1062.08 -412.798 659.596 -478.991 378.743C-526.296 94.7148 -254.168 -432.241 211.358 -337.175C407.096 -346.865 624.564 -285.381 754.443 -103.938C845.877 11.3442 958.874 192.621 978.765 413.996Z" stroke="#BD0DA2" stroke-width="0.5" stroke-miterlimit="10"/>
<path d="M992.136 400.294C1020.22 798.936 660.167 1135.59 245.289 1086.47C-141.674 1044.54 -393.744 638.21 -462.946 364.373C-512.758 87.5296 -246.313 -431.406 211.356 -341.52C405.089 -356.556 624.229 -301.088 760.125 -121.983C856.239 -7.70335 972.579 175.244 992.136 400.294Z" stroke="#BA0DA4" stroke-width="0.5" stroke-miterlimit="10"/>
<path d="M1005.51 386.428C1032.92 785.236 672.872 1123.9 258.161 1071.6C-126.629 1027.16 -374.52 616.657 -446.898 350.172C-499.384 80.5129 -238.623 -430.403 211.525 -345.863C403.084 -366.246 623.895 -316.792 765.977 -140.027C866.27 -26.9166 986.287 157.702 1005.51 386.428Z" stroke="#B70DA5" stroke-width="0.5" stroke-miterlimit="10"/>
<path d="M1018.88 372.729C1045.46 771.871 685.41 1112.37 271.033 1056.9C-111.751 1009.79 -355.296 595.44 -430.85 336.139C-486.011 73.4968 -230.933 -429.4 211.359 -350.039C400.745 -375.936 623.395 -332.162 771.327 -158.069C876.3 -45.9619 999.828 140.327 1018.88 372.729Z" stroke="#B50DA7" stroke-width="0.5" stroke-miterlimit="10"/>
<path d="M1031.92 360.366C1057.66 759.676 697.776 1102.18 283.734 1043.37C-97.0445 993.748 -336.243 575.392 -414.973 323.108C-472.808 67.8175 -223.581 -427.059 211.189 -352.878C398.569 -384.121 622.891 -346.362 776.84 -174.609C886.159 -63.6707 1013.2 124.289 1031.92 360.366Z" stroke="#B20DA8" stroke-width="0.5" stroke-miterlimit="10"/>
<path d="M1044.79 349.336C1069.86 748.813 709.978 1093.32 296.103 1031.34C-82.5025 979.043 -317.689 556.844 -399.428 311.744C-459.771 63.4704 -216.226 -423.554 210.854 -354.552C396.061 -391.141 622.222 -359.397 782.021 -190.15C895.854 -80.2143 1026.4 109.583 1044.79 349.336Z" stroke="#AF0DAA" stroke-width="0.5" stroke-miterlimit="10"/>
<path d="M1057.33 338.646C1081.56 738.457 721.68 1084.8 308.139 1019.48C-68.4608 964.677 -299.301 538.301 -384.216 300.553C-447.233 59.4634 -209.372 -419.541 210.019 -355.886C393.053 -397.821 620.885 -371.925 786.87 -205.184C905.215 -96.4177 1039.27 95.2175 1057.33 338.646Z" stroke="#AC0DAB" stroke-width="0.5" stroke-miterlimit="10"/>
<path d="M1069.53 328.455C1092.93 728.433 733.214 1076.78 319.841 1008.28C-54.5861 950.81 -281.248 520.591 -369.339 289.861C-434.863 55.9552 -202.852 -415.197 208.85 -356.554C389.711 -403.836 619.382 -383.954 791.217 -219.552C914.41 -111.955 1051.81 81.3506 1069.53 328.455Z" stroke="#A90DAC" stroke-width="0.5" stroke-miterlimit="10"/>
<path d="M1081.56 318.764C1104.3 718.909 744.58 1069.27 331.373 997.59C-41.0474 937.61 -263.363 503.382 -354.63 279.835C-422.829 53.114 -196.501 -410.019 207.512 -356.722C386.367 -409.517 617.709 -395.483 795.562 -233.587C923.101 -126.993 1064.18 67.9837 1081.56 318.764Z" stroke="#A60DAE" stroke-width="0.5" stroke-miterlimit="10"/>
<path d="M1093.1 309.741C1115 710.053 755.446 1062.41 342.406 987.398C-28.0084 924.911 -246.145 486.673 -340.421 270.311C-411.127 50.6068 -190.483 -404.506 205.841 -356.389C382.523 -414.531 615.704 -406.511 799.574 -246.954C931.459 -141.53 1076.05 55.1178 1093.1 309.741Z" stroke="#A40DAF" stroke-width="0.5" stroke-miterlimit="10"/>
<path d="M1104.3 301.221C1125.36 701.867 765.811 1056.07 353.106 977.876C-15.1353 912.716 -229.093 470.468 -326.544 261.29C-399.925 48.7703 -184.965 -398.323 203.67 -355.385C378.18 -418.873 613.199 -416.701 802.92 -259.651C939.485 -155.229 1087.42 43.0897 1104.3 301.221Z" stroke="#A10DB1" stroke-width="0.5" stroke-miterlimit="10"/>
<path d="M1115 293.368C1135.39 694.181 775.84 1050.39 363.302 968.853C-2.93378 901.188 -212.546 454.929 -313.173 252.936C-389.061 47.7671 -179.951 -391.474 200.995 -353.715C373.332 -422.55 610.023 -426.392 805.928 -271.848C946.839 -168.428 1098.45 31.5608 1115 293.368Z" stroke="#9E0DB2" stroke-width="0.5" stroke-miterlimit="10"/>
<path d="M1125.19 286.35C1144.75 687.331 785.366 1045.54 373.162 960.833C8.93197 890.494 -196.334 440.394 -300.137 245.584C-378.7 47.4325 -175.272 -383.789 197.984 -351.209C368.315 -425.39 606.677 -435.248 808.433 -283.042C953.858 -180.959 1108.98 20.8676 1125.19 286.35Z" stroke="#9B0DB3" stroke-width="0.5" stroke-miterlimit="10"/>
<path d="M1134.72 280.002C1153.44 681.317 794.061 1041.36 382.191 953.483C20.1341 880.638 -181.12 426.527 -287.932 238.735C-369.002 47.7679 -171.425 -375.601 194.309 -348.033C362.467 -427.728 602.668 -443.266 810.442 -293.734C960.38 -192.821 1118.84 10.8441 1134.72 280.002Z" stroke="#980DB5" stroke-width="0.5" stroke-miterlimit="10"/>
<path d="M1143.75 274.319C1161.8 675.801 802.416 1037.85 390.714 946.63C30.6626 871.112 -166.246 412.992 -276.233 232.551C-359.978 48.7679 -168.084 -366.581 189.961 -344.36C355.946 -429.402 597.986 -450.954 811.61 -303.761C966.06 -203.683 1128.2 1.48556 1143.75 274.319Z" stroke="#950DB6" stroke-width="0.5" stroke-miterlimit="10"/>
<path d="M1152.27 269.641C1169.49 671.29 810.274 1035.35 398.739 940.95C40.8612 862.925 -151.868 400.795 -265.032 227.538C-351.451 50.7728 -165.241 -356.557 185.116 -339.348C348.927 -429.736 592.639 -457.303 812.447 -312.449C971.244 -213.874 1136.89 -7.0352 1152.27 269.641Z" stroke="#930DB8" stroke-width="0.5" stroke-miterlimit="10"/>
<path d="M1159.96 265.634C1176.34 667.45 817.295 1033.51 405.927 935.773C50.055 855.075 -138.328 389.102 -254.668 222.862C-343.594 53.2811 -163.234 -346.029 179.433 -334.166C341.239 -429.9 586.622 -463.316 812.448 -321.135C975.758 -223.228 1144.92 -14.5514 1159.96 265.634Z" stroke="#900DB9" stroke-width="0.5" stroke-miterlimit="10"/>
<path d="M1166.98 262.626C1182.69 664.776 823.478 1032.68 412.445 931.762C58.5782 848.559 -125.626 378.576 -244.975 219.521C-336.576 57.1235 -161.732 -334.167 173.079 -327.651C332.712 -428.731 579.934 -468.161 811.61 -328.319C979.601 -231.582 1152.27 -21.2347 1166.98 262.626Z" stroke="#8D0DBB" stroke-width="0.5" stroke-miterlimit="10"/>
<path d="M1173.17 260.453C1188.04 662.77 828.996 1032.67 418.129 928.42C66.4358 842.543 -113.59 368.551 -236.114 216.846C-330.222 61.6333 -161.229 -321.804 166.06 -320.301C323.52 -426.728 572.58 -472.172 810.274 -334.669C982.611 -239.102 1158.79 -27.0836 1173.17 260.453Z" stroke="#8A0EBC" stroke-width="0.5" stroke-miterlimit="10"/>
<path d="M1178.68 259.451C1192.72 661.935 833.842 1033.84 423.143 926.415C73.4555 838.032 -102.224 360.03 -227.924 215.343C-324.707 67.3142 -161.397 -308.104 158.203 -311.947C313.49 -423.887 564.389 -475.012 807.933 -340.182C984.95 -245.618 1164.47 -31.7614 1178.68 259.451Z" stroke="#870EBD" stroke-width="0.5" stroke-miterlimit="10"/>
<path d="M1183.19 259.284C1196.57 662.102 837.519 1035.85 427.321 925.246C79.6391 834.357 -91.6944 352.345 -220.571 214.842C-319.861 73.9974 -162.401 -293.568 149.51 -302.423C302.791 -419.71 555.194 -476.85 804.924 -344.359C986.286 -251.131 1169.49 -35.604 1183.19 259.284Z" stroke="#840EBF" stroke-width="0.5" stroke-miterlimit="10"/>
<path d="M1186.87 260.288C1199.41 663.273 840.527 1039.03 430.497 925.08C84.9877 831.518 -82.3342 345.663 -214.219 215.344C-316.184 81.5171 -164.407 -277.862 139.814 -292.063C290.922 -414.696 545.165 -477.851 800.744 -347.866C986.788 -255.474 1173.5 -38.2758 1186.87 260.288Z" stroke="#810EC0" stroke-width="0.5" stroke-miterlimit="10"/>
<path d="M1189.71 262.459C1201.41 665.612 842.7 1043.37 432.836 926.249C89.3334 830.181 -73.6424 340.149 -208.703 217.015C-313.175 90.3718 -167.249 -261.154 129.45 -280.368C278.385 -408.348 534.466 -477.35 796.064 -349.871C986.453 -258.815 1176.51 -39.9468 1189.71 262.459Z" stroke="#7F0EC2" stroke-width="0.5" stroke-miterlimit="10"/>
<path d="M1191.55 265.633C1202.59 668.952 843.871 1048.71 434.175 928.253C92.8448 829.511 -65.9522 335.637 -204.189 219.687C-311.335 100.228 -171.092 -243.279 117.918 -267.839C264.847 -401.165 522.6 -476.182 790.214 -351.042C985.117 -260.989 1178.68 -40.2822 1191.55 265.633Z" stroke="#7C0EC3" stroke-width="0.5" stroke-miterlimit="10"/>
<path d="M1192.39 269.977C1202.59 673.631 843.873 1055.23 434.511 931.595C95.1867 830.348 -59.2642 332.464 -200.677 223.698C-310.498 111.423 -175.771 -224.064 105.383 -253.803C250.139 -392.643 509.563 -473.507 783.196 -350.874C982.611 -261.99 1179.85 -39.613 1192.39 269.977Z" stroke="#790EC5" stroke-width="0.5" stroke-miterlimit="10"/>
<path d="M1192.22 275.657C1201.58 679.477 843.034 1063.08 433.839 936.272C96.5208 832.351 -53.7514 330.624 -198.173 228.875C-310.501 123.785 -181.625 -203.849 91.8404 -238.768C234.423 -382.954 495.686 -469.666 775.336 -349.539C979.265 -261.657 1179.85 -37.6096 1192.22 275.657Z" stroke="#760EC6" stroke-width="0.5" stroke-miterlimit="10"/>
<path d="M1190.72 283.176C1199.24 687.164 840.861 1072.77 431.834 942.622C96.6885 836.195 -49.4047 330.458 -197.002 235.894C-312.005 137.988 -188.812 -181.794 76.9641 -221.725C217.374 -371.258 480.476 -463.985 765.976 -346.364C974.585 -259.651 1178.68 -33.7657 1190.72 283.176Z" stroke="#730EC7" stroke-width="0.5" stroke-miterlimit="10"/>
<path d="M1187.21 296.877C1195.06 701.199 836.685 1088.65 427.824 955.32C94.6848 846.22 -47.0625 336.474 -197.836 249.26C-315.346 158.371 -198.003 -153.224 60.2508 -198.501C198.655 -353.38 463.428 -452.122 754.946 -336.84C967.901 -251.297 1175.67 -23.7406 1187.21 296.877Z" stroke="#700EC9" stroke-width="0.5" stroke-miterlimit="10"/>
<path d="M1185.87 309.575C1192.89 714.064 834.511 1103.52 425.985 966.849C95.0188 855.243 -42.5496 341.487 -196.499 261.291C-316.683 177.586 -205.024 -125.99 45.541 -176.614C181.772 -336.839 448.384 -441.428 745.752 -328.652C963.388 -243.945 1174.5 -14.7177 1185.87 309.575Z" stroke="#6E0ECA" stroke-width="0.5" stroke-miterlimit="10"/>
<path d="M1186.54 320.936C1192.72 725.593 834.511 1117.05 426.319 977.208C97.3586 862.929 -36.0309 345.329 -192.989 272.317C-315.681 195.797 -209.872 -99.9263 33.004 -155.562C167.062 -321.301 435.345 -431.738 738.898 -321.468C960.88 -238.097 1175.51 -7.1994 1186.54 320.936Z" stroke="#6B0ECC" stroke-width="0.5" stroke-miterlimit="10"/>
<path d="M1189.21 330.293C1194.73 735.117 836.516 1128.58 428.491 985.563C101.536 868.777 -27.5074 347.168 -187.642 281.34C-313.008 212.004 -212.882 -75.6997 22.3048 -136.682C154.19 -307.767 424.312 -424.219 733.715 -316.288C960.21 -233.92 1178.51 -1.3513 1189.21 330.293Z" stroke="#680ECD" stroke-width="0.5" stroke-miterlimit="10"/>
<path d="M1193.89 337.477C1198.57 742.634 840.362 1137.93 432.672 991.576C107.89 872.284 -16.9746 346.499 -180.285 287.855C-308.325 225.703 -213.716 -54.1476 13.6146 -120.142C143.494 -296.574 415.287 -418.873 730.708 -313.448C961.716 -232.25 1183.53 2.15667 1193.89 337.477Z" stroke="#650ECE" stroke-width="0.5" stroke-miterlimit="10"/>
<path d="M1200.75 341.986C1204.59 747.311 846.545 1144.62 439.022 995.084C116.246 873.119 -4.43918 343.49 -170.758 292.031C-301.306 237.063 -212.547 -34.7683 7.26161 -106.109C134.968 -287.887 408.6 -416.201 730.039 -313.283C965.392 -233.087 1190.55 2.99061 1200.75 341.986Z" stroke="#620ED0" stroke-width="0.5" stroke-miterlimit="10"/>
<path d="M1209.61 343.322C1212.78 748.813 854.738 1148.12 447.381 995.249C126.612 870.778 10.2718 337.14 -159.223 292.865C-292.445 244.914 -209.369 -18.8976 2.7499 -95.251C128.283 -282.375 403.587 -416.704 731.043 -316.124C971.077 -237.098 1199.75 0.650228 1209.61 343.322Z" stroke="#5F0ED1" stroke-width="0.5" stroke-miterlimit="10"/>
<path d="M1220.64 341.15C1222.98 746.976 865.098 1148.12 457.909 992.075C139.313 864.931 27.1517 327.45 -145.519 290.192C-281.249 249.426 -204.023 -6.36638 0.407034 -88.0662C123.767 -280.537 400.91 -420.713 734.383 -322.807C978.764 -244.616 1211.11 -5.19679 1220.64 341.15Z" stroke="#5D0ED3" stroke-width="0.5" stroke-miterlimit="10"/>
<path d="M1233.68 335.136C1235.18 741.129 877.303 1144.28 470.448 985.059C153.857 855.408 46.0426 313.75 -129.804 283.844C-268.208 250.262 -196.666 2.32193 0.0750526 -84.3901C121.429 -282.374 400.243 -428.398 739.568 -332.831C988.628 -256.143 1224.48 -15.0539 1233.68 335.136Z" stroke="#5A0ED4" stroke-width="0.5" stroke-miterlimit="10"/>
<path d="M1248.89 324.609C1249.72 730.769 891.845 1135.93 485.158 973.362C170.74 841.039 66.9369 295.538 -111.919 272.816C-252.83 246.418 -187.138 6.49782 2.08084 -85.5607C121.262 -288.891 401.915 -440.93 747.257 -347.702C1000.66 -272.017 1240.03 -29.2562 1248.89 324.609Z" stroke="#570ED6" stroke-width="0.5" stroke-miterlimit="10"/>
<path d="M1263.77 311.245C1263.77 717.572 906.054 1124.73 499.701 958.995C187.289 824.166 87.8318 274.655 -94.1997 258.95C-237.786 239.737 -177.777 7.669 3.75301 -89.4017C120.761 -298.079 403.253 -456.132 754.445 -365.41C1012.36 -290.895 1255.07 -46.1293 1263.77 311.245Z" stroke="#540ED7" stroke-width="0.5" stroke-miterlimit="10"/>
<path d="M1273.79 300.051C1272.96 706.712 915.246 1115.71 509.228 946.632C198.821 809.129 103.71 255.776 -81.4971 247.255C-227.59 235.226 -173.432 11.1777 0.408715 -91.2394C115.411 -305.263 399.407 -469.164 756.784 -380.948C1019.22 -307.435 1265.44 -61.1659 1273.79 300.051Z" stroke="#510ED8" stroke-width="0.5" stroke-miterlimit="10"/>
<path d="M1280.81 290.192C1279.31 697.021 921.599 1108.03 515.748 935.771C207.514 795.762 116.582 238.232 -71.8009 237.062C-220.569 232.05 -171.927 16.1889 -5.94207 -91.5746C106.887 -310.944 392.722 -480.86 756.116 -395.15C1023.06 -322.64 1272.79 -74.5329 1280.81 290.192Z" stroke="#4E0EDA" stroke-width="0.5" stroke-miterlimit="10"/>
<path d="M1285.16 281.839C1282.82 688.834 925.276 1101.84 519.592 926.415C213.364 783.9 126.611 222.36 -64.7813 228.208C-216.223 230.38 -173.265 22.371 -14.9693 -90.4048C95.6871 -315.288 383.361 -491.051 752.605 -407.681C1024.23 -336.34 1277.47 -86.7291 1285.16 281.839Z" stroke="#4B0EDB" stroke-width="0.5" stroke-miterlimit="10"/>
<path d="M1287 274.488C1283.82 681.817 926.447 1096.67 520.93 917.895C216.708 772.706 134.301 207.323 -60.2671 220.355C-214.217 229.711 -177.108 29.7224 -26.3347 -88.3998C82.1487 -318.629 371.661 -500.24 746.923 -419.376C1022.73 -349.037 1279.48 -97.589 1287 274.488Z" stroke="#490EDD" stroke-width="0.5" stroke-miterlimit="10"/>
<path d="M1286.5 268.14C1282.65 675.637 925.107 1092.49 519.924 910.545C217.875 762.85 139.647 193.458 -58.0972 213.507C-214.721 230.047 -183.296 37.9105 -40.2116 -85.224C66.2659 -320.8 357.282 -508.426 738.562 -430.067C1019.05 -360.731 1279.47 -107.612 1286.5 268.14Z" stroke="#460EDE" stroke-width="0.5" stroke-miterlimit="10"/>
<path d="M1283.99 262.793C1279.31 670.457 921.932 1089.31 516.916 904.028C216.873 753.66 142.991 180.258 -57.9289 207.658C-217.06 231.383 -191.486 47.2659 -56.0902 -81.2149C48.2144 -322.137 341.069 -515.778 728.367 -439.758C1013.53 -371.759 1277.3 -116.802 1283.99 262.793Z" stroke="#430EE0" stroke-width="0.5" stroke-miterlimit="10"/>
<path d="M1279.81 257.946C1274.29 665.777 917.085 1086.64 512.236 898.178C214.367 745.304 144.496 167.892 -59.4327 202.477C-221.239 233.386 -201.347 57.1216 -73.6409 -76.3715C28.4907 -322.64 323.184 -522.128 716.332 -448.615C1006.01 -381.952 1273.29 -125.325 1279.81 257.946Z" stroke="#400FE1" stroke-width="0.5" stroke-miterlimit="10"/>
<path d="M1274.3 253.602C1268.11 661.767 910.734 1084.47 506.387 892.832C210.523 737.285 144.999 156.03 -62.1062 197.632C-226.419 235.558 -212.378 67.4804 -92.194 -71.3591C7.76458 -323.142 304.297 -528.477 703.463 -457.47C997.153 -391.642 1267.94 -133.344 1274.3 253.602Z" stroke="#3D0FE2" stroke-width="0.5" stroke-miterlimit="10"/>
<path d="M1267.44 249.593C1260.42 657.925 903.213 1082.63 499.032 887.654C205.174 729.601 143.829 144.169 -66.452 193.122C-233.44 238.232 -224.915 78.0072 -112.587 -65.8446C-14.6341 -322.973 283.57 -534.324 688.753 -465.823C987.124 -400.998 1261.43 -141.029 1267.44 249.593Z" stroke="#3A0FE4" stroke-width="0.5" stroke-miterlimit="10"/>
<path d="M1259.58 245.585C1251.73 654.084 894.685 1080.79 490.672 882.643C198.987 721.917 141.988 132.642 -71.4691 188.779C-240.964 241.074 -238.29 88.8684 -133.651 -60.3298C-37.871 -322.805 262.005 -540.003 673.205 -474.008C976.09 -410.353 1253.9 -148.546 1259.58 245.585Z" stroke="#380FE5" stroke-width="0.5" stroke-miterlimit="10"/>
<path d="M1251.06 241.742C1242.53 650.575 885.492 1079.12 481.646 877.631C191.967 714.398 139.146 121.114 -77.3191 184.268C-249.488 243.747 -252.497 99.3939 -155.548 -54.8165C-61.9409 -322.638 239.773 -545.851 656.992 -482.195C964.556 -419.542 1245.88 -156.064 1251.06 241.742Z" stroke="#350FE7" stroke-width="0.5" stroke-miterlimit="10"/>
<path d="M1242.2 237.733C1232.84 646.733 875.798 1077.29 472.287 872.619C184.781 706.713 136.139 109.586 -83.5026 179.925C-258.346 246.588 -267.038 110.254 -177.778 -49.3025C-86.3442 -322.471 217.209 -551.698 640.277 -490.381C952.355 -428.897 1237.19 -163.749 1242.2 237.733Z" stroke="#320FE8" stroke-width="0.5" stroke-miterlimit="10"/>
<path d="M1233.17 233.387C1222.98 642.554 866.102 1075.11 462.757 867.27C177.257 698.858 132.961 97.7216 -89.8561 175.244C-267.207 249.092 -281.75 120.778 -200.011 -44.1253C-110.583 -322.64 194.641 -557.715 623.727 -499.071C940.151 -438.757 1228.49 -171.771 1233.17 233.387Z" stroke="#2F0FE9" stroke-width="0.5" stroke-miterlimit="10"/>
<path d="M1224.32 228.542C1213.45 637.877 856.577 1072.44 453.399 861.257C169.905 690.339 129.955 85.0246 -96.0382 169.732C-276.064 250.596 -296.29 130.302 -222.24 -39.6135C-134.985 -323.641 171.911 -564.564 607.015 -508.26C928.119 -448.948 1219.97 -180.291 1224.32 228.542Z" stroke="#2C0FEB" stroke-width="0.5" stroke-miterlimit="10"/>
<path d="M1215.79 223.03C1204.09 632.698 847.214 1069.1 444.371 854.741C163.049 681.15 127.111 71.9937 -101.891 163.885C-284.424 251.934 -310.5 139.659 -244.14 -35.6027C-159.058 -324.977 149.677 -571.914 590.798 -517.949C916.249 -459.807 1211.61 -189.479 1215.79 223.03Z" stroke="#290FEC" stroke-width="0.5" stroke-miterlimit="10"/>
<path d="M1207.93 216.681C1195.4 626.517 838.689 1064.92 436.18 847.223C156.864 671.126 125.272 57.9595 -106.906 157.035C-292.113 252.268 -323.706 147.846 -265.201 -32.4283C-182.293 -327.149 128.281 -579.934 575.42 -528.642C905.216 -471.669 1204.09 -199.503 1207.93 216.681Z" stroke="#270FEE" stroke-width="0.5" stroke-miterlimit="10"/>
<path d="M1201.08 209.33C1187.88 619.332 831.167 1059.74 428.826 838.869C151.516 660.099 124.27 43.09 -111.084 149.183C-298.799 251.6 -336.241 155.197 -285.259 -30.4231C-204.524 -330.323 107.721 -589.123 560.711 -540.17C895.187 -484.367 1197.57 -210.53 1201.08 209.33Z" stroke="#240FEF" stroke-width="0.5" stroke-miterlimit="10"/>
<path d="M1195.4 200.808C1181.35 611.145 824.814 1053.39 422.64 829.345C147.503 648.069 124.436 27.0502 -114.094 140.327C-304.483 249.929 -347.609 161.379 -304.316 -29.2542C-225.586 -334.668 88.4973 -599.482 547.504 -553.035C886.327 -498.234 1192.22 -222.727 1195.4 200.808Z" stroke="#210FF1" stroke-width="0.5" stroke-miterlimit="10"/>
<path d="M1191.22 191.119C1176.34 601.623 819.801 1045.88 417.961 818.487C144.83 634.537 125.942 9.50859 -115.597 130.137C-308.66 246.922 -357.47 166.392 -321.866 -29.5871C-245.309 -340.514 70.4464 -611.009 535.471 -567.068C878.974 -513.437 1188.21 -236.259 1191.22 191.119Z" stroke="#1E0FF2" stroke-width="0.5" stroke-miterlimit="10"/>
<path d="M523.434 -581.104C868.776 -528.476 1183.7 -247.956 1182.69 178.587C1178.85 254.105 1162.47 329.122 1140.07 400.296C1097.95 530.28 1019.72 650.073 922.6 737.454C782.859 862.927 600.326 913.551 407.262 805.787C134.131 626.014 111.899 6.49953 -128.135 121.781C-319.36 235.393 -368.002 154.361 -332.732 -40.6157C-257.345 -352.879 58.9113 -624.21 523.434 -581.104Z" stroke="#210FF1" stroke-width="0.5" stroke-miterlimit="10"/>
<path d="M512.236 -596.309C859.584 -544.683 1180.02 -260.822 1175.17 165.053C1170.16 240.905 1151.6 314.418 1130.71 383.587C1089.76 510.564 1008.69 627.684 910.9 716.568C770.992 843.211 589.629 897.344 397.735 791.919C124.437 616.323 99.03 2.4885 -139.834 112.424C-329.22 223.028 -377.528 141.328 -342.927 -52.6463C-268.376 -366.414 48.2149 -638.245 512.236 -596.309Z" stroke="#240FEF" stroke-width="0.5" stroke-miterlimit="10"/>
<path d="M502.04 -612.515C851.393 -561.892 1177.35 -274.689 1168.65 150.35C1162.3 226.537 1141.74 298.546 1122.18 365.877C1082.57 489.847 998.657 604.294 899.868 694.681C759.793 822.494 579.6 880.135 388.709 777.049C115.411 605.63 86.4932 -2.69067 -150.699 102.066C-338.247 209.662 -386.387 127.461 -352.121 -65.6781C-278.573 -380.949 38.3527 -653.449 502.04 -612.515Z" stroke="#270FEE" stroke-width="0.5" stroke-miterlimit="10"/>
<path d="M492.511 -629.558C843.703 -579.936 1175.34 -289.392 1162.63 134.812C1155.11 211.165 1132.55 282.005 1114.33 347.331C1075.88 468.294 989.127 580.067 889.67 672.126C749.595 801.108 570.405 862.257 380.684 761.344C107.219 594.101 75.1253 -8.53906 -160.73 90.8707C-346.439 195.46 -394.412 112.591 -360.647 -79.546C-288.102 -396.321 29.3248 -669.322 492.511 -629.558Z" stroke="#290FEC" stroke-width="0.5" stroke-miterlimit="10"/>
<path d="M483.652 -647.433C836.85 -598.814 1173.83 -304.928 1157.45 118.607C1148.76 195.295 1124.02 264.631 1107.31 327.953C1070.2 445.908 980.436 555.008 880.143 648.57C739.9 778.722 561.88 843.547 373.33 744.805C99.8647 581.74 64.4279 -15.387 -170.09 78.8435C-353.96 180.425 -401.599 96.8875 -368.336 -94.0795C-296.793 -412.358 20.8005 -686.194 483.652 -647.433Z" stroke="#2C0FEB" stroke-width="0.5" stroke-miterlimit="10"/>
<path d="M475.295 -665.978C830.499 -618.528 1173 -321.301 1152.77 101.566C1142.91 178.588 1116 246.587 1100.62 307.904C1064.68 422.852 972.079 529.279 871.117 624.344C730.707 755.666 553.858 824 366.477 727.597C92.8449 568.709 54.0651 -22.7379 -178.949 66.1462C-360.98 164.721 -408.452 80.5146 -375.69 -109.45C-304.983 -429.232 13.1122 -703.737 475.295 -665.978Z" stroke="#2F0FE9" stroke-width="0.5" stroke-miterlimit="10"/>
<path d="M467.605 -685.026C824.815 -638.579 1172.83 -338.011 1148.76 84.0216C1137.73 161.377 1108.64 227.873 1094.77 287.185C1060.17 399.125 964.723 502.879 862.759 599.616C722.182 732.107 546.502 803.949 360.292 709.718C86.4927 555.007 44.5368 -30.9263 -187.14 52.7784C-367.332 148.345 -414.637 63.6384 -382.209 -125.491C-312.673 -446.777 5.75697 -721.782 467.605 -685.026Z" stroke="#320FE8" stroke-width="0.5" stroke-miterlimit="10"/>
<path d="M460.417 -704.738C819.465 -659.294 1173.16 -355.384 1145.08 65.9797C1132.88 143.67 1101.62 208.662 1089.25 266.136C1055.82 375.069 957.535 475.982 854.902 574.39C714.157 708.05 539.648 783.401 354.608 691.51C80.8081 540.975 35.3421 -39.4447 -194.663 38.9136C-373.017 131.473 -419.987 46.0978 -388.228 -142.029C-319.862 -464.818 -0.93054 -740.325 460.417 -704.738Z" stroke="#350FE7" stroke-width="0.5" stroke-miterlimit="10"/>
<path d="M453.563 -724.79C814.618 -680.348 1173.83 -373.096 1141.91 47.4324C1128.53 125.29 1095.27 189.112 1084.07 244.581C1051.81 350.507 950.681 448.747 847.213 548.825C706.468 683.655 532.962 762.682 348.924 672.962C74.9579 526.604 26.3158 -48.1346 -202.352 24.8773C-378.867 114.43 -425.671 28.3859 -394.246 -158.738C-326.548 -483.199 -7.44936 -759.374 453.563 -724.79Z" stroke="#380FE5" stroke-width="0.5" stroke-miterlimit="10"/>
<path d="M447.045 -745.171C810.105 -701.732 1174.67 -391.139 1139.07 28.5541C1124.52 106.745 1089.09 169.064 1079.39 222.529C1048.47 325.28 944.331 421.014 840.193 522.596C699.282 658.595 526.945 741.13 344.078 653.583C70.1116 511.402 18.1265 -57.8238 -209.204 10.0088C-383.881 96.3867 -430.517 10.0087 -399.593 -176.28C-333.066 -501.91 -13.4658 -778.753 447.045 -745.171Z" stroke="#3A0FE4" stroke-width="0.5" stroke-miterlimit="10"/>
<path d="M440.695 -765.723C805.594 -723.453 1175.84 -409.352 1136.23 9.67291C1120.51 88.1983 1082.9 149.014 1074.71 200.64C1044.96 300.384 938.148 393.445 833.007 496.53C691.929 633.699 520.762 719.742 339.065 634.534C64.9314 496.53 9.60315 -67.1818 -216.223 -4.52859C-389.061 78.842 -435.363 -8.2042 -404.941 -193.491C-339.249 -520.791 -19.3146 -798.303 440.695 -765.723Z" stroke="#3D0FE2" stroke-width="0.5" stroke-miterlimit="10"/>
<path d="M434.676 -786.438C801.581 -745.17 1177.34 -427.894 1133.88 -9.53787C1117 69.3217 1077.22 128.8 1070.53 178.255C1042.12 274.991 932.296 365.379 826.487 470.135C685.241 608.474 515.245 698.026 334.718 615.156C60.5838 481.329 1.91243 -76.7022 -222.576 -19.3954C-393.576 60.9678 -439.71 -26.7467 -409.622 -211.031C-345.268 -539.835 -24.9995 -818.015 434.676 -786.438Z" stroke="#400FE1" stroke-width="0.5" stroke-miterlimit="10"/>
<path d="M428.659 -807.325C797.569 -767.06 1178.85 -446.443 1131.54 -28.7546C1113.49 50.439 1071.54 108.414 1066.19 156.031C1038.94 249.76 926.278 337.474 819.633 443.734C678.221 583.242 509.394 676.47 330.037 595.606C55.7364 465.955 -6.11077 -86.5627 -229.095 -34.4353C-398.256 42.9206 -444.223 -45.4622 -414.637 -228.744C-351.285 -559.052 -30.5154 -837.733 428.659 -807.325Z" stroke="#430EE0" stroke-width="0.5" stroke-miterlimit="10"/>
<path d="M422.64 -828.042C793.556 -788.78 1180.18 -464.821 1129.04 -47.9681C1109.81 31.3927 1065.85 88.1982 1061.84 133.81C1035.93 224.532 920.259 309.573 812.946 417.337C671.533 558.014 503.71 654.751 325.523 576.225C51.222 450.752 -14.1355 -96.2528 -235.615 -49.3047C-402.937 25.0438 -448.571 -63.8402 -419.486 -246.286C-357.137 -578.098 -36.0328 -857.448 422.64 -828.042Z" stroke="#460EDE" stroke-width="0.5" stroke-miterlimit="10"/>
<path d="M416.623 -848.591C789.378 -810.331 1181.69 -483.031 1126.7 -67.0132C1106.3 12.6817 1060.17 67.9837 1057.66 111.59C1032.92 199.305 914.577 281.673 806.261 391.107C664.681 532.954 498.028 633.199 320.844 557.013C46.5429 435.716 -22.1578 -105.775 -242.301 -64.1729C-407.784 7.1682 -453.25 -82.3841 -424.666 -263.828C-363.153 -596.976 -41.5477 -876.994 416.623 -848.591Z" stroke="#490EDD" stroke-width="0.5" stroke-miterlimit="10"/>
<path d="M410.439 -868.976C785.2 -831.718 1183.03 -501.077 1124.19 -85.7274C1102.63 -5.69837 1054.32 48.0999 1053.15 89.8687C1029.58 174.576 908.393 254.104 799.408 365.209C657.661 508.225 492.178 611.979 316.164 537.965C41.6958 420.845 -30.1807 -114.965 -248.986 -78.7102C-412.631 -10.3764 -457.763 -100.597 -429.681 -281.038C-369.171 -615.69 -47.2305 -896.209 410.439 -868.976Z" stroke="#4B0EDB" stroke-width="0.5" stroke-miterlimit="10"/>
<path d="M404.089 -888.858C780.856 -852.77 1184.2 -518.619 1121.35 -104.106C1098.45 -23.7423 1048.14 28.7193 1048.47 68.3161C1026.24 150.016 902.043 226.871 792.222 339.479C650.308 483.665 485.995 591.095 311.151 519.252C36.5157 406.309 -38.7039 -123.82 -256.005 -92.9115C-417.811 -27.5851 -462.775 -118.307 -435.195 -297.746C-375.353 -633.901 -53.0793 -915.256 404.089 -888.858Z" stroke="#4E0EDA" stroke-width="0.5" stroke-miterlimit="10"/>
<path d="M397.567 -908.405C776.172 -873.319 1185.2 -535.994 1118.5 -122.149C1094.43 -41.4515 1041.95 9.50656 1043.79 47.2656C1022.73 125.958 895.688 200.139 785.198 314.419C643.117 459.774 479.974 570.712 306.3 501.209C31.6649 392.443 -46.8978 -132.173 -262.862 -106.444C-422.829 -44.2917 -467.626 -135.515 -440.38 -313.951C-381.876 -651.777 -59.2673 -933.8 397.567 -908.405Z" stroke="#510ED8" stroke-width="0.5" stroke-miterlimit="10"/>
<path d="M390.714 -927.452C771.325 -893.369 1185.7 -552.702 1115.33 -139.525C1090.09 -58.6607 1035.6 -9.03944 1038.77 26.7147C1019.05 102.4 889.169 173.908 777.677 289.691C635.596 436.216 473.455 550.663 300.952 483.331C25.9821 378.742 -55.9237 -140.193 -270.216 -119.81C-428.344 -60.6656 -472.808 -152.557 -446.23 -329.991C-388.729 -669.154 -65.7858 -951.678 390.714 -927.452Z" stroke="#540ED7" stroke-width="0.5" stroke-miterlimit="10"/>
<path d="M383.359 -945.831C765.976 -912.75 1185.87 -568.742 1111.49 -156.4C1085.07 -75.2015 1028.41 -26.9168 1032.92 6.83244C1014.37 79.5102 881.647 148.345 769.487 265.799C627.238 413.494 466.268 531.449 294.934 466.456C20.1319 366.044 -65.1171 -147.378 -278.072 -132.174C-434.362 -76.0369 -478.658 -168.597 -452.415 -345.028C-396.083 -685.862 -72.639 -969.054 383.359 -945.831Z" stroke="#570ED6" stroke-width="0.5" stroke-miterlimit="10"/>
<path d="M375.503 -963.54C759.959 -931.461 1185.53 -584.112 1107.31 -172.605C1079.73 -91.0727 1020.89 -44.2917 1026.91 -12.3803C1009.69 57.123 873.958 123.452 760.962 242.409C618.546 391.273 458.746 512.904 288.583 450.084C13.613 353.849 -74.8118 -154.06 -286.43 -144.203C-440.881 -91.0727 -485.01 -184.134 -459.268 -359.73C-403.772 -701.9 -79.9936 -985.594 375.503 -963.54Z" stroke="#5A0ED4" stroke-width="0.5" stroke-miterlimit="10"/>
<path d="M367.148 -980.415C753.61 -949.339 1184.7 -598.648 1102.63 -187.81C1073.88 -105.943 1012.87 -60.4988 1020.39 -30.7594C1004.34 35.7365 865.77 99.3921 752.105 219.853C609.522 369.887 450.892 495.026 281.732 434.378C6.76221 342.32 -85.1728 -160.076 -295.286 -155.398C-448.066 -105.275 -491.693 -199.004 -466.453 -373.598C-412.127 -717.104 -87.8473 -1001.47 367.148 -980.415Z" stroke="#5D0ED3" stroke-width="0.5" stroke-miterlimit="10"/>
<path d="M358.118 -996.286C746.586 -966.38 1183.03 -612.347 1097.11 -202.177C1067.19 -119.976 1004 -76.0357 1012.86 -48.1342C998.154 15.3544 856.741 76.3369 742.073 198.469C599.322 349.672 441.863 478.32 273.872 420.011C-1.26431 332.129 -96.3754 -164.586 -305.152 -165.254C-456.092 -118.139 -499.553 -212.536 -474.814 -386.127C-420.99 -731.305 -96.3755 -1016.34 358.118 -996.286Z" stroke="#5F0ED1" stroke-width="0.5" stroke-miterlimit="10"/>
<path d="M348.423 -1011.32C738.897 -982.418 1180.85 -625.044 1091.09 -215.71C1060 -133.342 994.81 -90.7378 1005.01 -64.8412C991.467 -4.35991 847.213 53.9494 731.876 177.585C589.126 329.958 432.669 462.114 265.849 406.144C-9.28797 322.439 -107.742 -168.762 -315.014 -174.61C-464.116 -130.502 -507.409 -225.567 -483.004 -398.156C-430.685 -744.67 -105.736 -1030.2 348.423 -1011.32Z" stroke="#620ED0" stroke-width="0.5" stroke-miterlimit="10"/>
<path d="M337.894 -1025.02C730.206 -997.121 1177.85 -636.406 1084.24 -227.74C1051.98 -145.038 984.616 -103.77 996.317 -79.8782C983.947 -22.4043 836.851 33.0646 720.679 158.371C577.761 312.08 422.475 447.745 256.824 393.78C-18.4796 314.252 -120.277 -171.268 -326.044 -182.462C-473.308 -141.362 -516.266 -236.929 -492.363 -408.682C-441.047 -756.867 -115.764 -1043.07 337.894 -1025.02Z" stroke="#650ECE" stroke-width="0.5" stroke-miterlimit="10"/>
<path d="M326.529 -1037.72C720.847 -1010.82 1174 -646.763 1076.39 -238.932C1042.95 -155.896 973.418 -116.132 986.623 -94.0783C975.591 -39.6117 825.486 13.1841 708.645 140.161C565.56 295.04 411.443 434.214 246.963 382.588C-28.5079 307.07 -133.481 -172.938 -337.911 -189.311C-483.336 -151.218 -526.128 -247.453 -502.726 -418.204C-452.412 -767.726 -126.628 -1054.59 326.529 -1037.72Z" stroke="#680ECD" stroke-width="0.5" stroke-miterlimit="10"/>
<path d="M314.325 -1049.08C710.649 -1023.19 1169.32 -655.788 1067.86 -248.626C1033.26 -165.255 961.548 -126.995 976.091 -106.946C966.229 -55.4865 813.449 -5.3639 695.605 123.117C552.353 279.165 399.407 421.848 236.097 372.393C-39.3742 301.219 -147.858 -173.274 -350.784 -194.994C-494.369 -160.076 -536.994 -256.812 -513.927 -426.561C-464.616 -777.419 -138.497 -1064.96 314.325 -1049.08Z" stroke="#6B0ECC" stroke-width="0.5" stroke-miterlimit="10"/>
<path d="M300.954 -1059.11C699.117 -1034.38 1163.31 -663.474 1058.16 -257.147C1022.39 -173.609 948.511 -136.518 964.558 -118.474C956.033 -70.0225 800.245 -22.573 681.732 107.412C538.314 264.629 386.537 410.82 224.23 363.705C-51.4081 296.708 -163.068 -172.105 -364.656 -199.172C-506.403 -167.26 -548.694 -264.498 -526.295 -433.411C-477.82 -785.773 -151.2 -1073.98 300.954 -1059.11Z" stroke="#6E0ECA" stroke-width="0.5" stroke-miterlimit="10"/>
<path d="M286.744 -1067.46C686.912 -1043.74 1156.62 -669.654 1047.63 -263.995C1010.69 -180.123 934.803 -144.536 952.187 -128.497C944.832 -83.0524 786.202 -38.2763 666.854 93.379C523.435 251.766 372.662 401.633 211.524 356.69C-64.1138 293.869 -179.116 -169.43 -379.368 -201.676C-519.276 -172.772 -561.399 -270.678 -539.335 -438.422C-492.03 -792.621 -165.075 -1081.33 286.744 -1067.46Z" stroke="#700EC9" stroke-width="0.5" stroke-miterlimit="10"/>
<path d="M271.2 -1074.48C673.375 -1051.76 1148.6 -674.334 1035.6 -269.343C997.487 -185.137 919.426 -150.887 938.148 -136.852C932.13 -94.4153 770.492 -52.3124 650.474 80.8466C506.889 240.403 357.285 393.779 197.318 351.007C-78.4873 292.364 -196.833 -165.422 -395.413 -202.847C-533.482 -176.95 -575.438 -275.525 -553.875 -442.266C-507.406 -797.802 -180.117 -1087.18 271.2 -1074.48Z" stroke="#730EC7" stroke-width="0.5" stroke-miterlimit="10"/>
<path d="M249.802 -1080.66C653.815 -1058.94 1134.72 -678.174 1017.88 -274.019C978.429 -189.479 898.362 -156.733 918.588 -144.536C913.74 -105.273 749.427 -65.6766 628.407 68.986C484.654 229.712 336.221 386.596 177.424 346.164C-98.3815 291.697 -220.07 -160.408 -417.313 -203.18C-553.544 -180.29 -595.165 -279.533 -574.104 -445.272C-528.805 -802.311 -201.182 -1092.35 249.802 -1080.66Z" stroke="#760EC6" stroke-width="0.5" stroke-miterlimit="10"/>
<path d="M224.062 -1086C630.081 -1065.29 1116.33 -681.181 995.815 -277.862C955.196 -192.988 872.956 -161.744 894.686 -151.553C891.009 -115.297 723.854 -78.3737 602.166 57.9597C458.245 219.856 310.982 380.248 153.355 342.155C-122.617 291.865 -247.482 -154.727 -443.387 -202.678C-577.779 -182.796 -619.234 -282.54 -598.674 -447.443C-554.545 -805.987 -226.42 -1096.7 224.062 -1086Z" stroke="#790EC5" stroke-width="0.5" stroke-miterlimit="10"/>
<path d="M198.821 -1090.02C606.845 -1070.3 1098.61 -682.854 974.084 -280.203C932.296 -195.161 847.882 -165.088 871.117 -156.901C868.777 -123.653 698.613 -89.4027 576.089 48.4343C432.001 211.5 285.908 375.568 129.451 339.479C-146.521 293.367 -274.896 -147.545 -469.297 -200.842C-601.85 -183.967 -643.138 -284.38 -622.912 -448.28C-579.619 -808.328 -251.16 -1099.71 198.821 -1090.02Z" stroke="#7C0EC3" stroke-width="0.5" stroke-miterlimit="10"/>
<path d="M174.248 -1092.52C584.279 -1073.98 1081.56 -683.02 953.19 -281.204C910.231 -195.829 823.812 -167.259 848.216 -161.077C847.046 -130.836 674.041 -99.4264 550.848 40.2485C406.761 204.484 261.67 372.06 106.383 338.311C-169.756 296.208 -301.307 -139.023 -494.371 -197.667C-625.086 -183.799 -666.039 -284.88 -646.482 -447.778C-604.024 -809.329 -275.231 -1101.21 174.248 -1092.52Z" stroke="#7F0EC2" stroke-width="0.5" stroke-miterlimit="10"/>
<path d="M150.514 -1093.86C562.383 -1076.32 1065.35 -682.185 933.132 -281.037C889.003 -195.328 800.411 -168.261 826.32 -163.917C826.487 -136.684 650.641 -107.947 526.445 33.2314C382.19 198.636 238.27 369.721 83.9862 338.311C-192.153 300.385 -327.214 -129.333 -518.607 -193.156C-647.483 -182.463 -688.269 -283.877 -669.046 -445.94C-627.759 -808.828 -298.631 -1101.38 150.514 -1093.86Z" stroke="#810EC0" stroke-width="0.5" stroke-miterlimit="10"/>
<path d="M127.278 -1093.69C541.153 -1077.15 1049.64 -679.677 913.406 -279.198C868.107 -193.154 777.342 -167.425 804.756 -165.086C806.093 -140.86 627.405 -114.796 502.54 27.8863C358.118 194.46 215.368 369.054 62.2546 339.816C-214.052 306.067 -352.289 -117.97 -542.344 -187.14C-669.382 -179.454 -710 -281.537 -691.112 -442.598C-650.995 -807.156 -321.365 -1100.21 127.278 -1093.69Z" stroke="#840EBF" stroke-width="0.5" stroke-miterlimit="10"/>
<path d="M104.547 -1092.35C520.428 -1076.82 1034.26 -676.002 894.353 -276.358C847.884 -189.98 754.946 -165.754 783.697 -165.42C786.371 -144.201 604.674 -120.811 478.974 23.5422C334.385 191.286 192.805 369.555 40.8609 342.489C-235.446 312.917 -377.026 -105.607 -565.744 -179.956C-690.943 -175.277 -731.227 -278.029 -713.007 -438.087C-673.558 -804.149 -343.595 -1097.87 104.547 -1092.35Z" stroke="#870EBD" stroke-width="0.5" stroke-miterlimit="10"/>
<path d="M82.4805 -1089.85C500.2 -1075.31 1019.72 -671.159 875.964 -272.35C828.325 -185.805 733.214 -162.749 763.469 -164.419C767.313 -146.208 582.775 -125.491 456.406 20.3659C311.65 189.279 171.24 371.057 20.4661 346.33C-256.008 320.934 -400.931 -92.0759 -588.144 -171.604C-711.504 -169.933 -751.622 -273.353 -733.736 -432.408C-695.625 -799.974 -365.16 -1094.36 82.4805 -1089.85Z" stroke="#8A0EBC" stroke-width="0.5" stroke-miterlimit="10"/>
<path d="M61.0847 -1086.17C480.81 -1072.64 1005.84 -665.143 858.078 -267.003C809.269 -180.124 712.152 -158.571 743.745 -162.247C748.926 -147.043 561.379 -128.999 434.174 18.3614C289.418 188.444 149.844 373.73 0.407546 351.175C-276.066 329.957 -424.333 -77.3728 -610.209 -162.247C-731.73 -163.584 -771.68 -267.504 -754.296 -425.725C-716.853 -794.627 -386.221 -1089.51 61.0847 -1086.17Z" stroke="#8D0DBB" stroke-width="0.5" stroke-miterlimit="10"/>
<path d="M40.1908 -1081.33C461.922 -1068.97 992.471 -657.96 840.862 -260.655C790.883 -173.442 691.593 -153.393 724.689 -158.907C731.041 -146.71 540.819 -131.339 412.779 17.692C267.856 188.944 129.451 377.739 -18.8148 357.523C-295.456 340.481 -446.898 -61.3346 -631.437 -151.555C-751.12 -155.899 -790.735 -260.488 -773.853 -417.706C-737.747 -788.112 -406.614 -1083.67 40.1908 -1081.33Z" stroke="#900DB9" stroke-width="0.5" stroke-miterlimit="10"/>
<path d="M19.9662 -1075.48C443.536 -1064.12 979.601 -649.94 824.315 -253.136C773.165 -165.589 671.702 -146.877 706.136 -154.395C713.658 -145.206 520.595 -132.508 391.718 18.0267C246.628 190.448 109.394 382.919 -37.8693 364.875C-314.51 352.01 -469.463 -44.1253 -652.33 -139.692C-770.174 -147.044 -809.623 -252.301 -793.241 -408.349C-757.805 -780.593 -426.337 -1076.82 19.9662 -1075.48Z" stroke="#930DB8" stroke-width="0.5" stroke-miterlimit="10"/>
<path d="M0.242086 -1068.63C425.818 -1058.27 967.399 -640.749 808.101 -244.781C755.782 -156.899 652.146 -139.69 688.084 -149.214C696.943 -143.199 500.871 -133.007 371.326 19.0311C226.068 192.622 90.0041 388.601 -56.0891 372.729C-332.897 364.041 -491.026 -26.5804 -672.556 -127.327C-788.561 -137.685 -827.675 -243.444 -811.796 -398.657C-777.529 -771.903 -445.56 -1068.96 0.242086 -1068.63Z" stroke="#950DB6" stroke-width="0.5" stroke-miterlimit="10"/>
<path d="M-18.8151 -1060.78C408.767 -1051.42 955.864 -630.558 792.721 -235.425C739.232 -147.376 633.423 -131.504 670.865 -142.865C680.895 -139.858 481.98 -132.507 351.6 21.3696C206.175 196.13 71.2814 395.618 -73.6418 382.085C-350.45 377.574 -511.922 -7.53445 -692.114 -113.46C-806.448 -126.826 -845.228 -233.253 -829.85 -387.464C-796.586 -762.548 -464.282 -1059.94 -18.8151 -1060.78Z" stroke="#980DB5" stroke-width="0.5" stroke-miterlimit="10"/>
<path d="M-37.3701 -1051.92C392.218 -1043.57 944.831 -619.364 777.843 -224.899C723.017 -136.516 615.369 -121.981 653.982 -135.514C665.348 -135.514 463.593 -130.836 332.376 24.5443C186.952 200.475 53.0606 403.471 -90.6925 392.277C-367.668 391.943 -532.482 12.5148 -711.171 -98.7573C-823.666 -115.298 -862.279 -222.226 -847.235 -375.434C-815.141 -752.021 -482.336 -1050.25 -37.3701 -1051.92Z" stroke="#9B0DB3" stroke-width="0.5" stroke-miterlimit="10"/>
<path d="M-55.4221 -1042.4C376.004 -1035.22 934.134 -607.504 763.302 -213.874C707.305 -125.157 597.484 -112.125 637.601 -127.496C650.138 -130.504 445.541 -128.499 313.488 28.552C167.897 205.652 35.1758 412.324 -107.407 403.135C-384.383 406.977 -552.54 33.0629 -729.891 -83.3885C-840.548 -102.936 -878.826 -210.533 -864.451 -362.738C-833.026 -740.83 -499.886 -1039.56 -55.4221 -1042.4Z" stroke="#9E0DB2" stroke-width="0.5" stroke-miterlimit="10"/>
<path d="M-72.974 -1031.87C360.458 -1025.69 924.104 -594.804 749.427 -201.843C692.26 -112.792 580.267 -101.097 621.888 -118.473C635.762 -124.487 428.156 -125.156 295.435 33.3989C149.676 211.668 18.1253 421.849 -123.288 414.999C-400.43 423.018 -571.931 54.6174 -747.611 -67.1805C-856.428 -89.7356 -894.54 -197.833 -880.499 -349.203C-850.411 -728.631 -516.937 -1028.03 -72.974 -1031.87Z" stroke="#A10DB1" stroke-width="0.5" stroke-miterlimit="10"/>
<path d="M-89.8564 -1020.85C345.582 -1015.67 914.743 -581.44 736.222 -189.147C677.885 -99.7619 563.718 -89.5703 606.844 -108.951C621.888 -117.973 411.441 -121.315 277.884 38.7435C131.958 218.182 1.57721 431.872 -138.833 427.361C-416.142 439.557 -590.819 76.8366 -765.161 -50.3076C-872.14 -75.8701 -910.085 -184.636 -896.378 -335.004C-867.293 -715.935 -533.485 -1015.84 -89.8564 -1020.85Z" stroke="#A40DAF" stroke-width="0.5" stroke-miterlimit="10"/>
<path d="M-106.402 -1009.15C330.874 -1004.98 905.719 -567.406 723.187 -175.949C663.679 -86.3963 547.34 -77.5414 591.803 -98.7599C608.017 -110.789 394.895 -116.804 260.502 44.9248C114.409 225.533 -14.8015 442.731 -154.041 440.392C-431.351 456.765 -609.371 99.5585 -782.376 -32.7651C-887.516 -61.335 -925.126 -170.769 -912.088 -320.135C-883.672 -702.403 -549.529 -1003.14 -106.402 -1009.15Z" stroke="#A60DAE" stroke-width="0.5" stroke-miterlimit="10"/>
<path d="M-122.282 -996.622C317.001 -993.448 897.362 -552.536 710.985 -161.914C650.307 -72.0276 531.962 -64.5092 577.762 -87.8998C595.313 -102.937 379.182 -111.625 243.954 51.608C97.8611 233.386 -30.3466 454.259 -168.416 454.092C-445.893 474.643 -627.256 123.116 -798.757 -14.5538C-902.058 -46.131 -939.501 -156.234 -926.797 -304.596C-899.551 -688.368 -565.075 -989.605 -122.282 -996.622Z" stroke="#A90DAC" stroke-width="0.5" stroke-miterlimit="10"/>
<path d="M-137.83 -983.59C303.459 -981.418 889.169 -537.165 699.114 -147.211C637.267 -56.9904 516.748 -50.9757 564.053 -76.2041C582.774 -94.2482 363.802 -105.609 227.905 59.127C81.6446 242.074 -45.3932 466.456 -182.293 468.628C-459.77 493.356 -644.476 147.343 -814.639 4.4933C-916.102 -30.0913 -953.378 -140.695 -941.175 -288.223C-914.932 -673.665 -579.954 -975.57 -137.83 -983.59Z" stroke="#AC0DAB" stroke-width="0.5" stroke-miterlimit="10"/>
<path d="M-152.704 -970.056C290.59 -969.053 881.816 -521.292 687.917 -132.173C624.899 -41.6184 502.208 -37.1074 550.85 -64.1736C570.908 -85.2251 348.927 -99.2594 212.194 67.1476C65.7668 251.265 -60.1007 479.155 -195.83 483.499C-473.474 512.403 -661.356 171.904 -830.182 23.8752C-929.807 -13.7168 -966.748 -124.989 -955.047 -271.514C-929.807 -658.46 -594.494 -961.034 -152.704 -970.056Z" stroke="#AF0DAA" stroke-width="0.5" stroke-miterlimit="10"/>
<path d="M-167.08 -956.02C278.053 -956.02 874.962 -505.084 677.051 -116.634C612.864 -25.9121 487.999 -22.5705 538.146 -51.8087C559.374 -75.8675 334.718 -92.7423 197.15 75.3354C50.5554 260.622 -74.142 492.021 -208.702 498.704C-486.345 531.785 -677.738 196.966 -844.892 43.4241C-942.678 2.82485 -979.452 -109.116 -968.253 -254.638C-944.182 -642.754 -608.536 -945.828 -167.08 -956.02Z" stroke="#B20DA8" stroke-width="0.5" stroke-miterlimit="10"/>
<path d="M-181.121 -941.485C266.018 -942.488 868.444 -488.21 666.688 -100.428C601.331 -9.37222 474.293 -7.53444 525.944 -38.6104C548.51 -65.8437 320.845 -85.2244 182.441 84.357C35.6791 270.813 -87.8483 505.888 -221.238 514.743C-499.049 552.001 -693.617 222.695 -859.435 63.9739C-955.381 20.2002 -991.988 -92.0745 -981.123 -236.595C-958.223 -626.548 -622.075 -930.291 -181.121 -941.485Z" stroke="#B50DA7" stroke-width="0.5" stroke-miterlimit="10"/>
<path d="M-194.661 -926.616C254.484 -928.621 862.258 -471.002 656.825 -84.0559C590.297 7.33424 461.254 7.83538 514.075 -25.4126C537.811 -55.6532 307.304 -77.7071 168.232 93.545C21.4698 281.171 -101.054 519.754 -233.441 530.781C-511.252 572.216 -709.331 248.424 -873.644 84.523C-967.752 37.7419 -1004.02 -75.201 -993.828 -218.719C-971.596 -610.009 -635.114 -914.42 -194.661 -926.616Z" stroke="#B70DA5" stroke-width="0.5" stroke-miterlimit="10"/>
<path d="M-207.698 -911.414C243.286 -914.421 856.744 -453.461 647.299 -67.1827C579.601 24.5416 448.385 23.5392 502.71 -11.5466C527.616 -44.7946 294.268 -69.5217 154.36 103.234C7.4306 292.029 -113.924 534.121 -245.14 547.487C-523.118 593.099 -724.373 274.988 -887.349 105.74C-979.618 55.9519 -1015.72 -57.6594 -1005.86 -200.175C-984.633 -593.136 -647.649 -898.048 -207.698 -911.414Z" stroke="#BA0DA4" stroke-width="0.5" stroke-miterlimit="10"/>
<path d="M-220.403 -895.874C232.586 -899.884 851.56 -435.582 638.271 -50.1391C569.403 41.9194 436.013 39.4132 491.843 2.3225C518.086 -33.9328 281.897 -61.3333 140.985 112.926C-6.11082 302.891 -126.295 548.491 -256.342 564.196C-534.32 613.985 -738.917 301.387 -900.556 126.961C-990.987 74.1648 -1026.92 -40.1146 -1017.56 -181.627C-997.171 -575.925 -659.853 -881.506 -220.403 -895.874Z" stroke="#BD0DA2" stroke-width="0.5" stroke-miterlimit="10"/>
<path d="M-232.439 -880.002C222.556 -885.182 847.046 -417.371 629.912 -32.7634C559.874 59.4621 424.312 55.7865 481.646 16.6908C509.059 -22.5719 270.028 -52.6455 128.448 123.285C-18.8154 314.419 -137.829 563.695 -266.706 581.405C-544.851 635.371 -752.792 328.286 -912.759 148.68C-1001.35 92.8772 -1036.95 -21.9036 -1028.1 -162.581C-1009.21 -558.382 -671.555 -864.631 -232.439 -880.002Z" stroke="#C00DA1" stroke-width="0.5" stroke-miterlimit="10"/>
<path d="M-244.306 -864.13C212.528 -870.312 842.701 -399.326 621.556 -15.2203C550.181 77.3394 412.612 72.16 471.284 31.2266C500.034 -11.0434 257.994 -43.7901 115.579 133.644C-31.8519 325.947 -149.696 578.732 -277.402 598.781C-555.548 656.923 -766.831 355.52 -925.461 170.4C-1012.21 111.59 -1047.65 -3.85919 -1039.29 -143.534C-1020.91 -540.839 -682.752 -847.756 -244.306 -864.13Z" stroke="#C30DA0" stroke-width="0.5" stroke-miterlimit="10"/>
<path d="M-255.504 -847.924C203.335 -855.108 838.857 -380.781 614.034 2.48929C541.489 95.3831 401.915 88.7001 461.924 45.7617C491.844 0.484325 246.963 -34.9356 103.878 144.169C-43.5523 337.642 -160.393 593.936 -286.93 616.324C-565.242 678.643 -779.702 382.752 -936.994 192.454C-1021.91 130.636 -1057.18 14.5187 -1049.16 -124.154C-1032.11 -522.962 -693.617 -830.548 -255.504 -847.924Z" stroke="#C60D9E" stroke-width="0.5" stroke-miterlimit="10"/>
<path d="M-266.371 -831.716C194.475 -839.902 835.513 -362.234 606.845 20.2013C533.13 113.429 391.383 105.41 452.896 60.4664C484.154 12.1816 236.431 -25.9115 92.3432 154.697C-55.2544 349.34 -170.925 609.142 -296.459 633.702C-574.771 700.198 -792.741 409.988 -948.529 214.343C-1031.61 149.518 -1066.54 32.8991 -1059.02 -104.938C-1042.97 -505.083 -704.149 -813.17 -266.371 -831.716Z" stroke="#C90D9D" stroke-width="0.5" stroke-miterlimit="10"/>
<path d="M-276.902 -815.345C185.949 -824.534 832.504 -343.524 599.824 38.2426C524.939 131.805 381.019 122.281 443.869 75.3332C476.297 24.0411 225.732 -16.8922 80.976 165.387C-66.7888 361.199 -181.29 624.677 -305.653 651.409C-584.133 722.082 -805.278 437.385 -959.729 236.561C-1040.97 168.561 -1075.73 51.4415 -1068.71 -85.3931C-1053.34 -487.209 -714.179 -795.964 -276.902 -815.345Z" stroke="#CB0D9B" stroke-width="0.5" stroke-miterlimit="10"/>
<path d="M-287.098 -799.138C177.592 -809.497 829.83 -324.978 593.306 55.9533C517.25 149.682 371.157 138.99 435.512 90.0366C469.277 35.7372 215.703 -7.86945 70.1115 176.08C-77.8204 373.062 -191.151 640.048 -314.344 668.952C-592.824 743.802 -817.313 464.619 -970.427 258.616C-1049.83 187.609 -1084.43 69.8205 -1077.74 -66.0117C-1063.36 -469.164 -723.873 -778.588 -287.098 -799.138Z" stroke="#CE0D9A" stroke-width="0.5" stroke-miterlimit="10"/>
<path d="M-296.793 -782.93C169.903 -794.291 827.49 -306.431 587.288 73.6651C510.063 167.728 361.797 155.532 427.656 104.741C462.591 47.2672 206.176 1.15446 59.9152 186.608C-88.1839 384.759 -200.345 655.254 -322.368 686.497C-601.015 765.524 -828.847 492.022 -980.289 280.671C-1058.02 206.657 -1092.28 88.2007 -1086.1 -46.629C-1073.06 -451.285 -733.067 -761.377 -296.793 -782.93Z" stroke="#D10D98" stroke-width="0.5" stroke-miterlimit="10"/>
<path d="M-305.986 -766.726C162.548 -779.09 825.818 -288.055 581.605 91.3725C503.21 185.77 352.938 172.07 420.134 119.274C456.239 58.7928 197.149 10.0068 49.8861 196.964C-98.3801 396.285 -209.371 670.288 -330.224 703.87C-608.871 787.074 -840.046 519.085 -990.151 302.556C-1066.04 225.534 -1099.97 106.576 -1094.46 -27.2511C-1082.25 -433.578 -741.926 -744.171 -305.986 -766.726Z" stroke="#D40C97" stroke-width="0.5" stroke-miterlimit="10"/>
<path d="M-315.012 -750.851C155.529 -764.217 824.315 -269.842 576.257 108.918C496.691 203.65 344.246 188.613 412.78 133.812C450.222 70.3234 188.124 18.8643 40.1919 207.492C-108.074 408.15 -218.062 685.662 -337.745 721.249C-616.559 808.629 -851.077 546.154 -999.678 324.278C-1073.73 244.249 -1107.49 124.623 -1102.31 -8.36891C-1091.11 -415.865 -750.45 -727.127 -315.012 -750.851Z" stroke="#D70C96" stroke-width="0.5" stroke-miterlimit="10"/>
<path d="M-323.536 -735.149C149.011 -749.517 823.313 -251.8 571.411 126.124C490.675 221.19 336.057 204.649 406.095 147.844C444.707 81.3478 179.767 27.2154 30.9994 217.347C-117.434 419.174 -226.252 700.195 -344.764 738.121C-623.746 829.678 -861.44 572.883 -1008.7 345.661C-1080.91 262.624 -1114.34 142.33 -1109.66 10.5079C-1099.64 -398.492 -758.639 -710.422 -323.536 -735.149Z" stroke="#DA0C94" stroke-width="0.5" stroke-miterlimit="10"/>
<path d="M-331.897 -719.611C142.656 -734.982 822.474 -233.923 566.56 143.333C484.654 238.565 327.863 220.688 399.405 162.045C439.355 92.5416 171.406 35.7361 21.97 227.371C-126.631 430.368 -234.278 714.897 -351.788 755.162C-630.769 850.896 -871.806 599.615 -1017.73 367.213C-1088.1 281.17 -1121.37 160.207 -1117.19 29.3871C-1107.83 -381.284 -766.332 -693.882 -331.897 -719.611Z" stroke="#DC0C93" stroke-width="0.5" stroke-miterlimit="10"/>
<path d="M-339.751 -704.407C136.64 -720.948 821.974 -216.38 562.383 160.04C479.307 255.607 320.343 236.393 393.222 175.745C434.342 103.234 163.719 43.7556 13.2794 237.062C-135.488 441.228 -241.966 729.266 -358.306 771.703C-637.454 871.614 -881.834 626.013 -1026.09 388.265C-1094.62 299.214 -1127.72 177.75 -1123.87 47.7655C-1115.68 -364.409 -773.852 -677.508 -339.751 -704.407Z" stroke="#DF0C91" stroke-width="0.5" stroke-miterlimit="10"/>
<path d="M-347.272 -689.534C131.125 -707.077 821.975 -199.168 558.539 176.584C474.293 272.485 313.323 251.768 387.54 189.115C429.997 113.597 156.365 51.4445 5.25722 246.254C-143.678 451.59 -248.985 743.303 -364.155 787.912C-643.303 892 -891.026 651.913 -1033.94 408.986C-1100.64 316.927 -1133.4 194.795 -1130.22 65.813C-1123.2 -347.865 -780.871 -661.633 -347.272 -689.534Z" stroke="#E20C90" stroke-width="0.5" stroke-miterlimit="10"/>
<path d="M-354.627 -675.001C125.776 -693.546 822.142 -182.463 554.862 192.621C469.446 288.856 306.303 266.802 382.024 202.144C425.651 123.619 149.177 58.6263 -2.7664 255.274C-151.701 461.779 -256.006 757.001 -370.005 803.949C-649.321 912.214 -900.22 677.64 -1041.8 429.533C-1106.66 334.3 -1139.25 211.667 -1136.41 83.6876C-1130.39 -331.829 -787.725 -646.264 -354.627 -675.001Z" stroke="#E50C8F" stroke-width="0.5" stroke-miterlimit="10"/>
<path d="M-361.481 -661.132C120.927 -680.68 822.81 -166.255 551.518 207.994C464.765 304.563 299.616 281.006 376.841 214.343C421.639 132.81 142.323 65.1442 -10.2891 263.296C-159.391 470.97 -262.526 769.701 -375.355 818.821C-654.671 931.262 -909.08 702.369 -1049.16 448.749C-1112.17 350.509 -1144.43 227.374 -1142.09 100.23C-1137.25 -316.121 -794.078 -631.058 -361.481 -661.132Z" stroke="#E80C8D" stroke-width="0.5" stroke-miterlimit="10"/>
<path d="M-368 -647.602C116.247 -668.152 823.646 -150.386 548.676 223.194C460.753 319.931 293.431 295.037 371.994 226.536C418.128 141.996 135.971 71.657 -17.644 271.312C-166.913 480.156 -268.878 782.395 -380.537 833.854C-660.02 950.473 -917.605 727.093 -1056.34 468.294C-1117.52 367.046 -1149.62 243.243 -1147.78 117.101C-1143.77 -300.921 -800.263 -616.526 -368 -647.602Z" stroke="#EB0C8C" stroke-width="0.5" stroke-miterlimit="10"/>
<path d="M-374.353 -634.568C111.9 -656.121 824.815 -135.013 546.001 237.732C456.907 334.803 287.412 308.572 367.48 238.066C414.784 150.519 129.785 77.5066 -24.4983 278.832C-173.935 488.846 -274.729 794.761 -385.385 848.392C-664.868 969.187 -925.964 751.321 -1063.03 487.342C-1122.37 383.087 -1154.3 258.616 -1152.79 133.477C-1149.95 -286.383 -806.114 -602.657 -374.353 -634.568Z" stroke="#ED0C8A" stroke-width="0.5" stroke-miterlimit="10"/>
<path d="M-380.369 -622.204C107.89 -644.926 826.321 -120.31 543.495 251.599C453.231 349.004 281.73 321.27 363.135 248.759C411.777 158.037 123.769 82.5193 -31.3503 285.349C-180.954 496.532 -280.578 805.955 -390.064 861.758C-669.714 986.73 -933.986 774.545 -1069.72 505.22C-1127.22 397.957 -1158.81 272.818 -1157.97 148.681C-1155.97 -272.349 -811.628 -589.29 -380.369 -622.204Z" stroke="#F00C89" stroke-width="0.5" stroke-miterlimit="10"/>
<path d="M-386.055 -610.508C104.043 -634.233 828.157 -106.442 541.487 264.966C450.053 362.705 276.38 333.467 359.121 259.119C408.933 165.389 118.084 87.1981 -37.7043 291.531C-187.308 503.884 -285.929 816.816 -394.245 874.958C-673.895 1003.94 -941.51 797.435 -1075.9 522.93C-1131.56 412.661 -1162.99 287.02 -1162.49 163.719C-1161.49 -258.982 -816.98 -576.425 -386.055 -610.508Z" stroke="#F30C87" stroke-width="0.5" stroke-miterlimit="10"/>
<path d="M539.65 277.328C447.046 375.234 271.199 344.826 355.445 268.305C406.594 171.569 112.904 90.7044 -43.8874 296.708C-193.658 510.23 -291.109 826.671 -398.255 887.152C-791.403 1074.28 -1167 601.788 -1167 177.751C-1167 -246.286 -821.993 -564.398 -391.569 -599.651C100.534 -624.378 830.164 -93.0783 539.65 277.328Z" stroke="#F60C86" stroke-width="0.5" stroke-miterlimit="10"/>
</g>
</g>
<defs>
<linearGradient id="paint0_linear" x1="966.5" y1="20.5" x2="-4.04794e-05" y2="865.5" gradientUnits="userSpaceOnUse">
<stop stop-color="white" stop-opacity="0.53"/>
<stop offset="0.848958" stop-color="white" stop-opacity="0"/>
</linearGradient>
</defs>
</svg>
