<svg width="81" height="80" viewBox="0 0 81 80" fill="none" xmlns="http://www.w3.org/2000/svg">
<path fill-rule="evenodd" clip-rule="evenodd" d="M38.7455 0.0306896C60.6407 -0.811304 78.9019 15.7779 80.5584 36.9202C80.6902 38.6079 79.3598 40.0557 77.6547 40.0557C76.128 40.0557 74.8721 38.8838 74.7535 37.3728C73.3233 19.117 57.4251 4.82828 38.4627 5.83132C21.6616 6.71915 6.76694 21.5087 5.87239 38.1913C4.86264 57.0199 19.2525 72.8059 37.638 74.226C39.1597 74.3437 40.3404 75.5908 40.3404 77.1067C40.3404 78.8374 38.9198 80.1241 37.1822 79.9899C15.8901 78.3451 -0.817018 60.2136 0.0309587 38.4733C0.841506 17.6845 17.8089 0.836344 38.7455 0.0306896Z" fill="#B6C1BD"/>
<path fill-rule="evenodd" clip-rule="evenodd" d="M41.8219 79.9688C19.9267 80.8108 1.66546 64.2216 0.00901673 43.0793C-0.122817 41.3916 1.20758 39.9438 2.91268 39.9438C4.43937 39.9438 5.69533 41.1157 5.81385 42.6267C7.24406 60.8825 23.1423 75.1712 42.1047 74.1682C58.9057 73.2804 73.8004 58.4908 74.695 41.8082C75.7047 22.9796 61.3149 7.1936 42.9294 5.77349C41.4077 5.6558 40.227 4.40871 40.227 2.89279C40.227 1.16214 41.6476 -0.124595 43.3852 0.0096123C64.6773 1.65437 81.3844 19.7859 80.5364 41.5262C79.7259 62.315 62.7584 79.1632 41.8219 79.9688Z" fill="#B6C1BD"/>
</svg>
