<svg width="81" height="81" viewBox="0 0 81 81" fill="none" xmlns="http://www.w3.org/2000/svg">
<path fill-rule="evenodd" clip-rule="evenodd" d="M38.7455 1.03078C60.6407 0.188788 78.9019 16.778 80.5584 37.9203C80.6902 39.608 79.3598 41.0558 77.6547 41.0558C76.128 41.0558 74.8721 39.8839 74.7535 38.3729C73.3233 20.1171 57.4251 5.82837 38.4627 6.83141C21.6616 7.71924 6.76694 22.5088 5.87239 39.1914C4.86264 58.02 19.2525 73.806 37.638 75.2261C39.1597 75.3438 40.3404 76.5909 40.3404 78.1068C40.3404 79.8375 38.9198 81.1242 37.1822 80.99C15.8901 79.3452 -0.817018 61.2137 0.0309587 39.4734C0.841506 18.6846 17.8089 1.83644 38.7455 1.03078Z" fill="#2A5444"/>
<path fill-rule="evenodd" clip-rule="evenodd" d="M41.8219 80.9689C19.9267 81.8109 1.66546 65.2217 0.00901673 44.0794C-0.122817 42.3917 1.20758 40.9439 2.91268 40.9439C4.43937 40.9439 5.69533 42.1158 5.81385 43.6268C7.24406 61.8826 23.1423 76.1713 42.1047 75.1683C58.9057 74.2805 73.8004 59.4909 74.695 42.8083C75.7047 23.9797 61.3149 8.19369 42.9294 6.77358C41.4077 6.65589 40.227 5.4088 40.227 3.89288C40.227 2.16223 41.6476 0.875497 43.3852 1.0097C64.6773 2.65446 81.3844 20.786 80.5364 42.5263C79.7259 63.3151 62.7584 80.1633 41.8219 80.9689Z" fill="#2A5444"/>
<path fill-rule="evenodd" clip-rule="evenodd" d="M41.8219 80.9689C19.9267 81.8109 1.66546 65.2217 0.00901673 44.0794C-0.122817 42.3917 1.20758 40.9439 2.91268 40.9439C4.43937 40.9439 5.69533 42.1158 5.81385 43.6268C7.24406 61.8826 23.1423 76.1713 42.1047 75.1683C58.9057 74.2805 73.8004 59.4909 74.695 42.8083C75.7047 23.9797 61.3149 8.19369 42.9294 6.77358C41.4077 6.65589 40.227 5.4088 40.227 3.89288C40.227 2.16223 41.6476 0.875497 43.3852 1.0097C64.6773 2.65446 81.3844 20.786 80.5364 42.5263C79.7259 63.3151 62.7584 80.1633 41.8219 80.9689Z" fill="#2A5444"/>
<path fill-rule="evenodd" clip-rule="evenodd" d="M78.4929 29.1695C84.9731 50.1007 73.6755 72.0333 53.6823 79.1053C52.0862 79.6695 50.3434 78.7591 49.9021 77.1121C49.507 75.6374 50.3139 74.121 51.7427 73.6154C69.0064 67.509 78.6934 48.4543 72.8167 30.3976C67.6107 14.3988 49.47 3.83949 33.1244 7.29318C14.676 11.191 3.15226 29.1762 6.53907 47.3029C6.81923 48.8032 5.92022 50.2664 4.45595 50.6588C2.78428 51.1067 1.1737 50.0675 0.853623 48.3544C-3.06848 27.3621 10.1211 6.5315 31.3401 1.72378C51.6304 -2.87384 72.2959 9.15483 78.4929 29.1695Z" fill="#2A5444"/>
</svg>
