<svg width="1695" height="591" viewBox="0 0 1695 591" fill="none" xmlns="http://www.w3.org/2000/svg">
<rect x="15" y="20" width="1612" height="1" fill="white" fill-opacity="0.05"/>
<rect x="15" y="101" width="1612" height="1" fill="white" fill-opacity="0.05"/>
<rect x="15" y="182" width="1612" height="1" fill="white" fill-opacity="0.05"/>
<rect x="15" y="263" width="1612" height="1" fill="white" fill-opacity="0.05"/>
<rect x="15" y="344" width="1612" height="1" fill="white" fill-opacity="0.05"/>
<rect x="15" y="425" width="1612" height="1" fill="white" fill-opacity="0.05"/>
<rect x="787" width="1" height="507" fill="white" fill-opacity="0.05"/>
<rect x="1626" width="1" height="507" fill="white" fill-opacity="0.05"/>
<rect x="1565" y="529" width="62" height="59" fill="url(#paint0_linear)" fill-opacity="0.3"/>
<rect x="1564" y="588" width="64" height="3" rx="1.5" fill="#1ED19B"/>
<path d="M1583.89 576V570.804L1586.95 574.752H1588.05L1591.08 570.804V576H1592.22V569.472H1590.87L1587.5 573.828L1584.09 569.472H1582.76V576H1583.89ZM1594.26 571.392L1595.45 571.584C1595.58 570.696 1596.42 570.264 1597.87 570.264C1599.55 570.264 1600.26 570.768 1600.26 571.944V572.028L1596.72 572.244C1594.82 572.376 1593.97 573.036 1593.97 574.224C1593.97 575.436 1594.97 576.12 1596.73 576.12C1598.24 576.12 1599.56 575.58 1600.27 574.668V574.8C1600.27 575.652 1600.67 576.096 1601.55 576.096C1601.76 576.096 1601.97 576.072 1602.17 576.024L1602.2 575.184C1602.13 575.196 1602.02 575.208 1601.94 575.208C1601.54 575.208 1601.4 575.004 1601.4 574.596V571.86C1601.4 570.12 1600.32 569.34 1597.89 569.34C1595.82 569.34 1594.56 570.024 1594.26 571.392ZM1595.16 574.164C1595.16 573.516 1595.69 573.18 1596.79 573.096L1600.27 572.856V573.12C1600.27 574.332 1598.71 575.196 1596.89 575.196C1595.73 575.196 1595.16 574.836 1595.16 574.164ZM1609.08 566.916C1609.08 567.588 1608.51 568.008 1607.64 568.008C1606.76 568.008 1606.18 567.588 1606.18 566.916H1605.14C1605.14 568.068 1606.17 568.74 1607.64 568.74C1609.1 568.74 1610.13 568.068 1610.13 566.916H1609.08ZM1603.84 576H1605.03L1610.05 570.9V576H1611.24V569.472H1610.05L1605.03 574.572V569.472H1603.84V576Z" fill="white" fill-opacity="0.6"/>
<path d="M1583.26 555H1595.27V553.47H1590.53V542.4H1588.84L1583.48 543.39V544.974L1588.62 544.038V553.47H1583.26V555ZM1603.47 555.18C1607.88 555.18 1610.52 552.75 1610.52 548.7C1610.52 544.65 1607.9 542.22 1603.47 542.22C1599.08 542.22 1596.45 544.65 1596.45 548.7C1596.45 552.75 1599.08 555.18 1603.47 555.18ZM1603.47 553.668C1600.25 553.668 1598.41 551.85 1598.41 548.7C1598.41 545.568 1600.25 543.75 1603.47 543.75C1606.73 543.75 1608.54 545.568 1608.54 548.7C1608.54 551.85 1606.73 553.668 1603.47 553.668Z" fill="white"/>
<path d="M1411.89 576V570.804L1414.95 574.752H1416.05L1419.08 570.804V576H1420.22V569.472H1418.87L1415.5 573.828L1412.09 569.472H1410.76V576H1411.89ZM1422.26 571.392L1423.45 571.584C1423.58 570.696 1424.42 570.264 1425.87 570.264C1427.55 570.264 1428.26 570.768 1428.26 571.944V572.028L1424.72 572.244C1422.82 572.376 1421.97 573.036 1421.97 574.224C1421.97 575.436 1422.97 576.12 1424.73 576.12C1426.24 576.12 1427.56 575.58 1428.27 574.668V574.8C1428.27 575.652 1428.67 576.096 1429.55 576.096C1429.76 576.096 1429.97 576.072 1430.17 576.024L1430.2 575.184C1430.13 575.196 1430.02 575.208 1429.94 575.208C1429.54 575.208 1429.4 575.004 1429.4 574.596V571.86C1429.4 570.12 1428.32 569.34 1425.89 569.34C1423.82 569.34 1422.56 570.024 1422.26 571.392ZM1423.16 574.164C1423.16 573.516 1423.69 573.18 1424.79 573.096L1428.27 572.856V573.12C1428.27 574.332 1426.71 575.196 1424.89 575.196C1423.73 575.196 1423.16 574.836 1423.16 574.164ZM1437.08 566.916C1437.08 567.588 1436.51 568.008 1435.64 568.008C1434.76 568.008 1434.18 567.588 1434.18 566.916H1433.14C1433.14 568.068 1434.17 568.74 1435.64 568.74C1437.1 568.74 1438.13 568.068 1438.13 566.916H1437.08ZM1431.84 576H1433.03L1438.05 570.9V576H1439.24V569.472H1438.05L1433.03 574.572V569.472H1431.84V576Z" fill="white" fill-opacity="0.6"/>
<path d="M1417.28 555.18C1421.69 555.18 1424.34 552.75 1424.34 548.7C1424.34 544.65 1421.71 542.22 1417.28 542.22C1412.89 542.22 1410.26 544.65 1410.26 548.7C1410.26 552.75 1412.89 555.18 1417.28 555.18ZM1417.28 553.668C1414.06 553.668 1412.22 551.85 1412.22 548.7C1412.22 545.568 1414.06 543.75 1417.28 543.75C1420.54 543.75 1422.36 545.568 1422.36 548.7C1422.36 551.85 1420.54 553.668 1417.28 553.668ZM1439.69 548.484C1439.69 544.452 1437.35 542.22 1432.91 542.22C1428.88 542.22 1426.59 543.804 1426.59 546.342C1426.59 548.862 1428.75 550.302 1432.44 550.302C1434.98 550.302 1436.87 549.582 1437.79 548.43C1437.79 551.922 1436.08 553.704 1432.84 553.704C1430.57 553.704 1429.11 552.984 1428.64 551.652L1426.77 552.048C1427.42 554.082 1429.58 555.18 1432.84 555.18C1437.25 555.18 1439.69 552.75 1439.69 548.484ZM1432.91 543.678C1435.66 543.678 1437.39 544.83 1437.39 546.576C1437.39 547.944 1435.7 548.916 1432.91 548.916C1430.08 548.916 1428.52 547.962 1428.52 546.324C1428.52 544.74 1430.05 543.678 1432.91 543.678Z" fill="white"/>
<path d="M1238.89 576V570.804L1241.95 574.752H1243.05L1246.08 570.804V576H1247.22V569.472H1245.87L1242.5 573.828L1239.09 569.472H1237.76V576H1238.89ZM1249.26 571.392L1250.45 571.584C1250.58 570.696 1251.42 570.264 1252.87 570.264C1254.55 570.264 1255.26 570.768 1255.26 571.944V572.028L1251.72 572.244C1249.82 572.376 1248.97 573.036 1248.97 574.224C1248.97 575.436 1249.97 576.12 1251.73 576.12C1253.24 576.12 1254.56 575.58 1255.27 574.668V574.8C1255.27 575.652 1255.67 576.096 1256.55 576.096C1256.76 576.096 1256.97 576.072 1257.17 576.024L1257.2 575.184C1257.13 575.196 1257.02 575.208 1256.94 575.208C1256.54 575.208 1256.4 575.004 1256.4 574.596V571.86C1256.4 570.12 1255.32 569.34 1252.89 569.34C1250.82 569.34 1249.56 570.024 1249.26 571.392ZM1250.16 574.164C1250.16 573.516 1250.69 573.18 1251.79 573.096L1255.27 572.856V573.12C1255.27 574.332 1253.71 575.196 1251.89 575.196C1250.73 575.196 1250.16 574.836 1250.16 574.164ZM1264.08 566.916C1264.08 567.588 1263.51 568.008 1262.64 568.008C1261.76 568.008 1261.18 567.588 1261.18 566.916H1260.14C1260.14 568.068 1261.17 568.74 1262.64 568.74C1264.1 568.74 1265.13 568.068 1265.13 566.916H1264.08ZM1258.84 576H1260.03L1265.05 570.9V576H1266.24V569.472H1265.05L1260.03 574.572V569.472H1258.84V576Z" fill="white" fill-opacity="0.6"/>
<path d="M1244.24 555.18C1248.65 555.18 1251.29 552.75 1251.29 548.7C1251.29 544.65 1248.67 542.22 1244.24 542.22C1239.85 542.22 1237.22 544.65 1237.22 548.7C1237.22 552.75 1239.85 555.18 1244.24 555.18ZM1244.24 553.668C1241.02 553.668 1239.18 551.85 1239.18 548.7C1239.18 545.568 1241.02 543.75 1244.24 543.75C1247.5 543.75 1249.31 545.568 1249.31 548.7C1249.31 551.85 1247.5 553.668 1244.24 553.668ZM1260.22 555.18C1264.54 555.18 1266.87 553.83 1266.87 551.58C1266.87 550.086 1265.7 549.006 1263.55 548.502C1265.34 547.98 1266.31 546.954 1266.31 545.586C1266.31 543.498 1264.08 542.22 1260.22 542.22C1256.34 542.22 1254.12 543.498 1254.12 545.586C1254.12 546.954 1255.09 547.962 1256.88 548.502C1254.73 549.006 1253.56 550.086 1253.56 551.58C1253.56 553.83 1255.89 555.18 1260.22 555.18ZM1264.36 545.73C1264.36 547.062 1263.01 547.8 1260.22 547.8C1257.43 547.8 1256.07 547.062 1256.07 545.73C1256.07 544.398 1257.43 543.624 1260.22 543.624C1263.01 543.624 1264.36 544.398 1264.36 545.73ZM1260.22 553.794C1257.11 553.794 1255.56 552.966 1255.56 551.526C1255.56 550.086 1257.09 549.258 1260.22 549.258C1263.32 549.258 1264.87 550.086 1264.87 551.526C1264.87 552.966 1263.32 553.794 1260.22 553.794Z" fill="white"/>
<path d="M1065.89 576V570.804L1068.95 574.752H1070.05L1073.08 570.804V576H1074.22V569.472H1072.87L1069.5 573.828L1066.09 569.472H1064.76V576H1065.89ZM1076.26 571.392L1077.45 571.584C1077.58 570.696 1078.42 570.264 1079.87 570.264C1081.55 570.264 1082.26 570.768 1082.26 571.944V572.028L1078.72 572.244C1076.82 572.376 1075.97 573.036 1075.97 574.224C1075.97 575.436 1076.97 576.12 1078.73 576.12C1080.24 576.12 1081.56 575.58 1082.27 574.668V574.8C1082.27 575.652 1082.67 576.096 1083.55 576.096C1083.76 576.096 1083.97 576.072 1084.17 576.024L1084.2 575.184C1084.13 575.196 1084.02 575.208 1083.94 575.208C1083.54 575.208 1083.4 575.004 1083.4 574.596V571.86C1083.4 570.12 1082.32 569.34 1079.89 569.34C1077.82 569.34 1076.56 570.024 1076.26 571.392ZM1077.16 574.164C1077.16 573.516 1077.69 573.18 1078.79 573.096L1082.27 572.856V573.12C1082.27 574.332 1080.71 575.196 1078.89 575.196C1077.73 575.196 1077.16 574.836 1077.16 574.164ZM1091.08 566.916C1091.08 567.588 1090.51 568.008 1089.64 568.008C1088.76 568.008 1088.18 567.588 1088.18 566.916H1087.14C1087.14 568.068 1088.17 568.74 1089.64 568.74C1091.1 568.74 1092.13 568.068 1092.13 566.916H1091.08ZM1085.84 576H1087.03L1092.05 570.9V576H1093.24V569.472H1092.05L1087.03 574.572V569.472H1085.84V576Z" fill="white" fill-opacity="0.6"/>
<path d="M1072.54 555.18C1076.95 555.18 1079.6 552.75 1079.6 548.7C1079.6 544.65 1076.97 542.22 1072.54 542.22C1068.15 542.22 1065.52 544.65 1065.52 548.7C1065.52 552.75 1068.15 555.18 1072.54 555.18ZM1072.54 553.668C1069.32 553.668 1067.48 551.85 1067.48 548.7C1067.48 545.568 1069.32 543.75 1072.54 543.75C1075.8 543.75 1077.62 545.568 1077.62 548.7C1077.62 551.85 1075.8 553.668 1072.54 553.668ZM1093.17 543.912V542.4H1081.22V543.948H1091.05L1083.61 555H1085.86L1093.17 543.912Z" fill="white"/>
<path d="M892.891 576V570.804L895.951 574.752H897.055L900.079 570.804V576H901.219V569.472H899.875L896.503 573.828L893.095 569.472H891.763V576H892.891ZM903.258 571.392L904.446 571.584C904.578 570.696 905.418 570.264 906.87 570.264C908.55 570.264 909.258 570.768 909.258 571.944V572.028L905.718 572.244C903.822 572.376 902.97 573.036 902.97 574.224C902.97 575.436 903.966 576.12 905.73 576.12C907.242 576.12 908.562 575.58 909.27 574.668V574.8C909.27 575.652 909.666 576.096 910.554 576.096C910.758 576.096 910.974 576.072 911.166 576.024L911.202 575.184C911.13 575.196 911.022 575.208 910.938 575.208C910.542 575.208 910.398 575.004 910.398 574.596V571.86C910.398 570.12 909.318 569.34 906.894 569.34C904.818 569.34 903.558 570.024 903.258 571.392ZM904.158 574.164C904.158 573.516 904.686 573.18 905.79 573.096L909.27 572.856V573.12C909.27 574.332 907.71 575.196 905.886 575.196C904.734 575.196 904.158 574.836 904.158 574.164ZM918.077 566.916C918.077 567.588 917.513 568.008 916.637 568.008C915.761 568.008 915.185 567.588 915.185 566.916H914.141C914.141 568.068 915.173 568.74 916.637 568.74C918.101 568.74 919.133 568.068 919.133 566.916H918.077ZM912.845 576H914.033L919.049 570.9V576H920.237V569.472H919.049L914.033 574.572V569.472H912.845V576Z" fill="white" fill-opacity="0.6"/>
<path d="M898.282 555.18C902.692 555.18 905.338 552.75 905.338 548.7C905.338 544.65 902.71 542.22 898.282 542.22C893.89 542.22 891.262 544.65 891.262 548.7C891.262 552.75 893.89 555.18 898.282 555.18ZM898.282 553.668C895.06 553.668 893.224 551.85 893.224 548.7C893.224 545.568 895.06 543.75 898.282 543.75C901.54 543.75 903.358 545.568 903.358 548.7C903.358 551.85 901.54 553.668 898.282 553.668ZM907.733 548.916C907.733 552.948 910.091 555.18 914.519 555.18C918.551 555.18 920.837 553.596 920.837 551.058C920.837 548.538 918.695 547.098 915.005 547.098C912.467 547.098 910.559 547.818 909.641 548.97C909.641 545.478 911.351 543.696 914.591 543.696C916.859 543.696 918.317 544.416 918.785 545.748L920.657 545.352C920.009 543.318 917.849 542.22 914.609 542.22C910.181 542.22 907.733 544.65 907.733 548.916ZM914.537 553.722C911.765 553.722 910.037 552.57 910.037 550.824C910.037 549.456 911.729 548.484 914.537 548.484C917.363 548.484 918.911 549.438 918.911 551.076C918.911 552.66 917.381 553.722 914.537 553.722Z" fill="white"/>
<path d="M719.891 576V570.804L722.951 574.752H724.055L727.079 570.804V576H728.219V569.472H726.875L723.503 573.828L720.095 569.472H718.763V576H719.891ZM730.258 571.392L731.446 571.584C731.578 570.696 732.418 570.264 733.87 570.264C735.55 570.264 736.258 570.768 736.258 571.944V572.028L732.718 572.244C730.822 572.376 729.97 573.036 729.97 574.224C729.97 575.436 730.966 576.12 732.73 576.12C734.242 576.12 735.562 575.58 736.27 574.668V574.8C736.27 575.652 736.666 576.096 737.554 576.096C737.758 576.096 737.974 576.072 738.166 576.024L738.202 575.184C738.13 575.196 738.022 575.208 737.938 575.208C737.542 575.208 737.398 575.004 737.398 574.596V571.86C737.398 570.12 736.318 569.34 733.894 569.34C731.818 569.34 730.558 570.024 730.258 571.392ZM731.158 574.164C731.158 573.516 731.686 573.18 732.79 573.096L736.27 572.856V573.12C736.27 574.332 734.71 575.196 732.886 575.196C731.734 575.196 731.158 574.836 731.158 574.164ZM745.077 566.916C745.077 567.588 744.513 568.008 743.637 568.008C742.761 568.008 742.185 567.588 742.185 566.916H741.141C741.141 568.068 742.173 568.74 743.637 568.74C745.101 568.74 746.133 568.068 746.133 566.916H745.077ZM739.845 576H741.033L746.049 570.9V576H747.237V569.472H746.049L741.033 574.572V569.472H739.845V576Z" fill="white" fill-opacity="0.6"/>
<path d="M725.625 555.18C730.035 555.18 732.681 552.75 732.681 548.7C732.681 544.65 730.053 542.22 725.625 542.22C721.233 542.22 718.605 544.65 718.605 548.7C718.605 552.75 721.233 555.18 725.625 555.18ZM725.625 553.668C722.403 553.668 720.567 551.85 720.567 548.7C720.567 545.568 722.403 543.75 725.625 543.75C728.883 543.75 730.701 545.568 730.701 548.7C730.701 551.85 728.883 553.668 725.625 553.668ZM741.25 555.18C745.318 555.18 747.514 553.632 747.514 550.95C747.514 548.268 745.336 546.792 741.718 546.792C740.044 546.792 738.514 547.17 737.398 547.854L737.848 543.858H746.704V542.4H736.246L735.526 549.168L737.2 549.366C737.974 548.574 739.414 548.142 741.304 548.142C744.112 548.142 745.57 549.168 745.57 550.95C745.57 552.714 744.13 553.686 741.25 553.686C738.802 553.686 737.29 552.984 736.876 551.616L734.968 552.03C735.634 554.172 737.758 555.18 741.25 555.18Z" fill="white"/>
<path d="M546.891 576V570.804L549.951 574.752H551.055L554.079 570.804V576H555.219V569.472H553.875L550.503 573.828L547.095 569.472H545.763V576H546.891ZM557.258 571.392L558.446 571.584C558.578 570.696 559.418 570.264 560.87 570.264C562.55 570.264 563.258 570.768 563.258 571.944V572.028L559.718 572.244C557.822 572.376 556.97 573.036 556.97 574.224C556.97 575.436 557.966 576.12 559.73 576.12C561.242 576.12 562.562 575.58 563.27 574.668V574.8C563.27 575.652 563.666 576.096 564.554 576.096C564.758 576.096 564.974 576.072 565.166 576.024L565.202 575.184C565.13 575.196 565.022 575.208 564.938 575.208C564.542 575.208 564.398 575.004 564.398 574.596V571.86C564.398 570.12 563.318 569.34 560.894 569.34C558.818 569.34 557.558 570.024 557.258 571.392ZM558.158 574.164C558.158 573.516 558.686 573.18 559.79 573.096L563.27 572.856V573.12C563.27 574.332 561.71 575.196 559.886 575.196C558.734 575.196 558.158 574.836 558.158 574.164ZM572.077 566.916C572.077 567.588 571.513 568.008 570.637 568.008C569.761 568.008 569.185 567.588 569.185 566.916H568.141C568.141 568.068 569.173 568.74 570.637 568.74C572.101 568.74 573.133 568.068 573.133 566.916H572.077ZM566.845 576H568.033L573.049 570.9V576H574.237V569.472H573.049L568.033 574.572V569.472H566.845V576Z" fill="white" fill-opacity="0.6"/>
<path d="M552.353 555.18C556.763 555.18 559.409 552.75 559.409 548.7C559.409 544.65 556.781 542.22 552.353 542.22C547.961 542.22 545.333 544.65 545.333 548.7C545.333 552.75 547.961 555.18 552.353 555.18ZM552.353 553.668C549.131 553.668 547.295 551.85 547.295 548.7C547.295 545.568 549.131 543.75 552.353 543.75C555.611 543.75 557.429 545.568 557.429 548.7C557.429 551.85 555.611 553.668 552.353 553.668ZM572.802 555V552.354H575.43V550.896H572.802V542.4H570.876L561.228 550.95V552.354H570.948V555H572.802ZM563.406 550.896L570.948 544.272V550.896H563.406Z" fill="white"/>
<path d="M373.891 576V570.804L376.951 574.752H378.055L381.079 570.804V576H382.219V569.472H380.875L377.503 573.828L374.095 569.472H372.763V576H373.891ZM384.258 571.392L385.446 571.584C385.578 570.696 386.418 570.264 387.87 570.264C389.55 570.264 390.258 570.768 390.258 571.944V572.028L386.718 572.244C384.822 572.376 383.97 573.036 383.97 574.224C383.97 575.436 384.966 576.12 386.73 576.12C388.242 576.12 389.562 575.58 390.27 574.668V574.8C390.27 575.652 390.666 576.096 391.554 576.096C391.758 576.096 391.974 576.072 392.166 576.024L392.202 575.184C392.13 575.196 392.022 575.208 391.938 575.208C391.542 575.208 391.398 575.004 391.398 574.596V571.86C391.398 570.12 390.318 569.34 387.894 569.34C385.818 569.34 384.558 570.024 384.258 571.392ZM385.158 574.164C385.158 573.516 385.686 573.18 386.79 573.096L390.27 572.856V573.12C390.27 574.332 388.71 575.196 386.886 575.196C385.734 575.196 385.158 574.836 385.158 574.164ZM399.077 566.916C399.077 567.588 398.513 568.008 397.637 568.008C396.761 568.008 396.185 567.588 396.185 566.916H395.141C395.141 568.068 396.173 568.74 397.637 568.74C399.101 568.74 400.133 568.068 400.133 566.916H399.077ZM393.845 576H395.033L400.049 570.9V576H401.237V569.472H400.049L395.033 574.572V569.472H393.845V576Z" fill="white" fill-opacity="0.6"/>
<path d="M379.537 555.18C383.947 555.18 386.593 552.75 386.593 548.7C386.593 544.65 383.965 542.22 379.537 542.22C375.145 542.22 372.517 544.65 372.517 548.7C372.517 552.75 375.145 555.18 379.537 555.18ZM379.537 553.668C376.315 553.668 374.479 551.85 374.479 548.7C374.479 545.568 376.315 543.75 379.537 543.75C382.795 543.75 384.613 545.568 384.613 548.7C384.613 551.85 382.795 553.668 379.537 553.668ZM401.48 551.562C401.48 549.942 400.49 548.952 398.69 548.556C400.328 548.106 401.21 547.08 401.21 545.586C401.21 543.426 399.086 542.22 395.216 542.22C391.562 542.22 389.492 543.48 388.97 545.694L390.788 546.108C391.13 544.542 392.516 543.678 395.18 543.678C397.862 543.678 399.248 544.452 399.248 545.82C399.248 547.134 398.186 547.908 396.26 547.908H392.804V549.366H396.278C398.366 549.366 399.464 550.14 399.464 551.454C399.464 552.948 398.114 553.74 395.216 553.74C392.318 553.74 390.932 552.858 390.608 551.238L388.7 551.616C389.222 554.028 391.256 555.18 395.216 555.18C399.374 555.18 401.48 553.902 401.48 551.562Z" fill="white"/>
<path d="M200.891 576V570.804L203.951 574.752H205.055L208.079 570.804V576H209.219V569.472H207.875L204.503 573.828L201.095 569.472H199.763V576H200.891ZM211.258 571.392L212.446 571.584C212.578 570.696 213.418 570.264 214.87 570.264C216.55 570.264 217.258 570.768 217.258 571.944V572.028L213.718 572.244C211.822 572.376 210.97 573.036 210.97 574.224C210.97 575.436 211.966 576.12 213.73 576.12C215.242 576.12 216.562 575.58 217.27 574.668V574.8C217.27 575.652 217.666 576.096 218.554 576.096C218.758 576.096 218.974 576.072 219.166 576.024L219.202 575.184C219.13 575.196 219.022 575.208 218.938 575.208C218.542 575.208 218.398 575.004 218.398 574.596V571.86C218.398 570.12 217.318 569.34 214.894 569.34C212.818 569.34 211.558 570.024 211.258 571.392ZM212.158 574.164C212.158 573.516 212.686 573.18 213.79 573.096L217.27 572.856V573.12C217.27 574.332 215.71 575.196 213.886 575.196C212.734 575.196 212.158 574.836 212.158 574.164ZM226.077 566.916C226.077 567.588 225.513 568.008 224.637 568.008C223.761 568.008 223.185 567.588 223.185 566.916H222.141C222.141 568.068 223.173 568.74 224.637 568.74C226.101 568.74 227.133 568.068 227.133 566.916H226.077ZM220.845 576H222.033L227.049 570.9V576H228.237V569.472H227.049L222.033 574.572V569.472H220.845V576Z" fill="white" fill-opacity="0.6"/>
<path d="M207.389 555.18C211.799 555.18 214.445 552.75 214.445 548.7C214.445 544.65 211.817 542.22 207.389 542.22C202.997 542.22 200.369 544.65 200.369 548.7C200.369 552.75 202.997 555.18 207.389 555.18ZM207.389 553.668C204.167 553.668 202.331 551.85 202.331 548.7C202.331 545.568 204.167 543.75 207.389 543.75C210.647 543.75 212.465 545.568 212.465 548.7C212.465 551.85 210.647 553.668 207.389 553.668ZM216.822 553.506V555H229.008V553.47H219.936L224.58 550.698C227.892 548.88 228.684 547.71 228.684 545.982C228.684 543.66 226.542 542.22 222.762 542.22C219.162 542.22 217.002 543.66 216.66 546.144L218.532 546.468C218.712 544.704 220.134 543.732 222.762 543.732C225.336 543.732 226.686 544.596 226.686 546.036C226.686 547.206 226.146 547.998 223.716 549.456L216.822 553.506Z" fill="white"/>
<path d="M34.2402 555.18C38.6502 555.18 41.2962 552.75 41.2962 548.7C41.2962 544.65 38.6682 542.22 34.2402 542.22C29.8482 542.22 27.2202 544.65 27.2202 548.7C27.2202 552.75 29.8482 555.18 34.2402 555.18ZM34.2402 553.668C31.0182 553.668 29.1822 551.85 29.1822 548.7C29.1822 545.568 31.0182 543.75 34.2402 543.75C37.4982 543.75 39.3162 545.568 39.3162 548.7C39.3162 551.85 37.4982 553.668 34.2402 553.668ZM43.4222 555H55.4282V553.47H50.6942V542.4H49.0022L43.6382 543.39V544.974L48.7862 544.038V553.47H43.4222V555Z" fill="white"/>
<path d="M27.8905 576V570.804L30.9505 574.752H32.0545L35.0785 570.804V576H36.2185V569.472H34.8745L31.5025 573.828L28.0945 569.472H26.7625V576H27.8905ZM38.2577 571.392L39.4457 571.584C39.5777 570.696 40.4177 570.264 41.8697 570.264C43.5497 570.264 44.2577 570.768 44.2577 571.944V572.028L40.7177 572.244C38.8217 572.376 37.9697 573.036 37.9697 574.224C37.9697 575.436 38.9657 576.12 40.7297 576.12C42.2417 576.12 43.5617 575.58 44.2697 574.668V574.8C44.2697 575.652 44.6657 576.096 45.5537 576.096C45.7577 576.096 45.9737 576.072 46.1657 576.024L46.2017 575.184C46.1297 575.196 46.0217 575.208 45.9377 575.208C45.5417 575.208 45.3977 575.004 45.3977 574.596V571.86C45.3977 570.12 44.3177 569.34 41.8937 569.34C39.8177 569.34 38.5577 570.024 38.2577 571.392ZM39.1577 574.164C39.1577 573.516 39.6857 573.18 40.7897 573.096L44.2697 572.856V573.12C44.2697 574.332 42.7097 575.196 40.8857 575.196C39.7337 575.196 39.1577 574.836 39.1577 574.164ZM53.0765 566.916C53.0765 567.588 52.5125 568.008 51.6365 568.008C50.7605 568.008 50.1845 567.588 50.1845 566.916H49.1405C49.1405 568.068 50.1725 568.74 51.6365 568.74C53.1005 568.74 54.1325 568.068 54.1325 566.916H53.0765ZM47.8445 576H49.0325L54.0485 570.9V576H55.2365V569.472H54.0485L49.0325 574.572V569.472H47.8445V576Z" fill="white" fill-opacity="0.6"/>
<path d="M394.09 496.979L15 507H1627V21C1627 54.4021 1620.86 129.599 1596.28 163.168C1571.7 196.737 1560.27 264.835 1557.62 294.688C1556.3 321.828 1551.68 368.465 1543.75 337.902C1535.82 307.339 1529.54 320.158 1527.4 330.387C1505.99 418.067 1456.2 403.5 1440.68 376.106C1429.57 356.5 1398.36 327.882 1344.05 337.902C1289.73 347.923 1258.21 321.487 1246.92 307.214C1222.14 275.9 1166.34 222.414 1141.37 258.99C1110.15 304.709 1064.56 362.327 1027.89 325.376C991.219 288.425 973.875 297.82 960 350.428C946.124 403.036 930.267 376.106 927.294 371.722C924.321 367.338 897.066 333.518 883.19 355.438C869.315 377.358 805.39 421.199 784.082 362.327C767.035 315.23 756.497 326.42 753.358 337.902C743.117 367.546 719.067 408.172 704.795 333.518C690.524 258.864 661.188 238.5 661.188 258.99C652.466 378.235 625.286 359.98 621.049 333.518C618.24 315.982 611.336 291.431 606.182 333.518C599.74 386.126 576.945 409.299 556.628 448.755C536.311 488.211 521.451 486 506.578 474.433C500.136 469.423 479.143 444.193 436.707 474.433C409.95 493.5 404.416 495.5 394.09 496.979Z" fill="url(#paint1_linear)" fill-opacity="0.6"/>
<g filter="url(#filter0_d)">
<path d="M15 507L394.09 496.979C404.416 495.5 409.95 493.5 436.707 474.433C479.143 444.193 500.136 469.423 506.578 474.433C521.451 486 536.311 488.212 556.628 448.755C576.945 409.299 599.74 386.126 606.182 333.518C611.336 291.431 618.24 315.982 621.049 333.518C625.286 359.98 652.466 378.235 661.187 258.99C661.187 238.5 690.524 258.864 704.795 333.518C719.067 408.172 743.117 367.546 753.358 337.902C756.497 326.42 767.035 315.231 784.082 362.327C805.39 421.199 869.315 377.358 883.191 355.438C897.066 333.518 924.321 367.338 927.294 371.722C930.267 376.106 946.124 403.036 960 350.428C973.875 297.82 991.219 288.425 1027.89 325.376C1064.56 362.327 1110.15 304.709 1141.37 258.99C1166.34 222.414 1222.14 275.9 1246.92 307.214C1258.21 321.487 1289.73 347.923 1344.05 337.902C1398.36 327.882 1429.57 356.5 1440.68 376.106C1456.2 403.5 1505.99 418.067 1527.4 330.387C1529.54 320.158 1535.82 307.339 1543.75 337.902C1551.68 368.465 1556.3 321.828 1557.62 294.688C1560.27 264.835 1571.7 196.737 1596.28 163.168C1620.86 129.599 1627 54.4021 1627 21" stroke="url(#paint2_radial)" stroke-width="3" stroke-linecap="round"/>
</g>
<rect x="11" y="507" width="1620" height="4" rx="2" fill="#1ED19B" fill-opacity="0.2"/>
<circle cx="41" cy="509" r="4" fill="#79918D"/>
<circle cx="214" cy="509" r="4" fill="#79918D"/>
<circle cx="387" cy="509" r="4" fill="#79918D"/>
<circle cx="560" cy="509" r="4" fill="#79918D"/>
<circle cx="733" cy="509" r="4" fill="#79918D"/>
<circle cx="906" cy="509" r="4" fill="#79918D"/>
<circle cx="1079" cy="509" r="4" fill="#79918D"/>
<circle cx="1252" cy="509" r="4" fill="#79918D"/>
<circle cx="1425" cy="509" r="4" fill="#79918D"/>
<circle cx="1597" cy="509" r="4" fill="#79918D"/>
<path d="M1655.21 513.18C1659.62 513.18 1662.26 510.75 1662.26 506.7C1662.26 502.65 1659.64 500.22 1655.21 500.22C1650.82 500.22 1648.19 502.65 1648.19 506.7C1648.19 510.75 1650.82 513.18 1655.21 513.18ZM1655.21 511.668C1651.99 511.668 1650.15 509.85 1650.15 506.7C1650.15 503.568 1651.99 501.75 1655.21 501.75C1658.47 501.75 1660.28 503.568 1660.28 506.7C1660.28 509.85 1658.47 511.668 1655.21 511.668Z" fill="white" fill-opacity="0.6"/>
<path d="M1660.7 23.562C1660.7 21.942 1659.71 20.952 1657.91 20.556C1659.55 20.106 1660.43 19.08 1660.43 17.586C1660.43 15.426 1658.3 14.22 1654.43 14.22C1650.78 14.22 1648.71 15.48 1648.19 17.694L1650.01 18.108C1650.35 16.542 1651.73 15.678 1654.4 15.678C1657.08 15.678 1658.47 16.452 1658.47 17.82C1658.47 19.134 1657.4 19.908 1655.48 19.908H1652.02V21.366H1655.5C1657.58 21.366 1658.68 22.14 1658.68 23.454C1658.68 24.948 1657.33 25.74 1654.43 25.74C1651.54 25.74 1650.15 24.858 1649.83 23.238L1647.92 23.616C1648.44 26.028 1650.47 27.18 1654.43 27.18C1658.59 27.18 1660.7 25.902 1660.7 23.562ZM1670.1 27.18C1674.51 27.18 1677.15 24.75 1677.15 20.7C1677.15 16.65 1674.52 14.22 1670.1 14.22C1665.7 14.22 1663.08 16.65 1663.08 20.7C1663.08 24.75 1665.7 27.18 1670.1 27.18ZM1670.1 25.668C1666.87 25.668 1665.04 23.85 1665.04 20.7C1665.04 17.568 1666.87 15.75 1670.1 15.75C1673.35 15.75 1675.17 17.568 1675.17 20.7C1675.17 23.85 1673.35 25.668 1670.1 25.668ZM1686.55 27.18C1690.96 27.18 1693.61 24.75 1693.61 20.7C1693.61 16.65 1690.98 14.22 1686.55 14.22C1682.16 14.22 1679.53 16.65 1679.53 20.7C1679.53 24.75 1682.16 27.18 1686.55 27.18ZM1686.55 25.668C1683.33 25.668 1681.49 23.85 1681.49 20.7C1681.49 17.568 1683.33 15.75 1686.55 15.75C1689.81 15.75 1691.63 17.568 1691.63 20.7C1691.63 23.85 1689.81 25.668 1686.55 25.668Z" fill="white" fill-opacity="0.6"/>
<path d="M1648.19 106.506V108H1660.37V106.47H1651.3L1655.95 103.698C1659.26 101.88 1660.05 100.71 1660.05 98.982C1660.05 96.66 1657.91 95.22 1654.13 95.22C1650.53 95.22 1648.37 96.66 1648.03 99.144L1649.9 99.468C1650.08 97.704 1651.5 96.732 1654.13 96.732C1656.7 96.732 1658.05 97.596 1658.05 99.036C1658.05 100.206 1657.51 100.998 1655.08 102.456L1648.19 106.506ZM1668.51 108.18C1672.58 108.18 1674.78 106.632 1674.78 103.95C1674.78 101.268 1672.6 99.792 1668.98 99.792C1667.31 99.792 1665.78 100.17 1664.66 100.854L1665.11 96.858H1673.97V95.4H1663.51L1662.79 102.168L1664.46 102.366C1665.24 101.574 1666.68 101.142 1668.57 101.142C1671.37 101.142 1672.83 102.168 1672.83 103.95C1672.83 105.714 1671.39 106.686 1668.51 106.686C1666.06 106.686 1664.55 105.984 1664.14 104.616L1662.23 105.03C1662.9 107.172 1665.02 108.18 1668.51 108.18ZM1683.93 108.18C1688.34 108.18 1690.99 105.75 1690.99 101.7C1690.99 97.65 1688.36 95.22 1683.93 95.22C1679.54 95.22 1676.91 97.65 1676.91 101.7C1676.91 105.75 1679.54 108.18 1683.93 108.18ZM1683.93 106.668C1680.71 106.668 1678.87 104.85 1678.87 101.7C1678.87 98.568 1680.71 96.75 1683.93 96.75C1687.19 96.75 1689.01 98.568 1689.01 101.7C1689.01 104.85 1687.19 106.668 1683.93 106.668Z" fill="white" fill-opacity="0.6"/>
<path d="M1648.19 187.506V189H1660.37V187.47H1651.3L1655.95 184.698C1659.26 182.88 1660.05 181.71 1660.05 179.982C1660.05 177.66 1657.91 176.22 1654.13 176.22C1650.53 176.22 1648.37 177.66 1648.03 180.144L1649.9 180.468C1650.08 178.704 1651.5 177.732 1654.13 177.732C1656.7 177.732 1658.05 178.596 1658.05 180.036C1658.05 181.206 1657.51 181.998 1655.08 183.456L1648.19 187.506ZM1669.39 189.18C1673.8 189.18 1676.45 186.75 1676.45 182.7C1676.45 178.65 1673.82 176.22 1669.39 176.22C1665 176.22 1662.37 178.65 1662.37 182.7C1662.37 186.75 1665 189.18 1669.39 189.18ZM1669.39 187.668C1666.17 187.668 1664.34 185.85 1664.34 182.7C1664.34 179.568 1666.17 177.75 1669.39 177.75C1672.65 177.75 1674.47 179.568 1674.47 182.7C1674.47 185.85 1672.65 187.668 1669.39 187.668ZM1685.85 189.18C1690.26 189.18 1692.9 186.75 1692.9 182.7C1692.9 178.65 1690.27 176.22 1685.85 176.22C1681.45 176.22 1678.83 178.65 1678.83 182.7C1678.83 186.75 1681.45 189.18 1685.85 189.18ZM1685.85 187.668C1682.62 187.668 1680.79 185.85 1680.79 182.7C1680.79 179.568 1682.62 177.75 1685.85 177.75C1689.1 177.75 1690.92 179.568 1690.92 182.7C1690.92 185.85 1689.1 187.668 1685.85 187.668Z" fill="white" fill-opacity="0.6"/>
<path d="M1647.97 270H1659.98V268.47H1655.24V257.4H1653.55L1648.19 258.39V259.974L1653.34 259.038V268.47H1647.97V270ZM1667.67 270.18C1671.74 270.18 1673.93 268.632 1673.93 265.95C1673.93 263.268 1671.76 261.792 1668.14 261.792C1666.46 261.792 1664.93 262.17 1663.82 262.854L1664.27 258.858H1673.12V257.4H1662.67L1661.95 264.168L1663.62 264.366C1664.39 263.574 1665.83 263.142 1667.72 263.142C1670.53 263.142 1671.99 264.168 1671.99 265.95C1671.99 267.714 1670.55 268.686 1667.67 268.686C1665.22 268.686 1663.71 267.984 1663.3 266.616L1661.39 267.03C1662.05 269.172 1664.18 270.18 1667.67 270.18ZM1683.09 270.18C1687.5 270.18 1690.14 267.75 1690.14 263.7C1690.14 259.65 1687.51 257.22 1683.09 257.22C1678.69 257.22 1676.07 259.65 1676.07 263.7C1676.07 267.75 1678.69 270.18 1683.09 270.18ZM1683.09 268.668C1679.86 268.668 1678.03 266.85 1678.03 263.7C1678.03 260.568 1679.86 258.75 1683.09 258.75C1686.34 258.75 1688.16 260.568 1688.16 263.7C1688.16 266.85 1686.34 268.668 1683.09 268.668Z" fill="white" fill-opacity="0.6"/>
<path d="M1647.97 351H1659.98V349.47H1655.24V338.4H1653.55L1648.19 339.39V340.974L1653.34 340.038V349.47H1647.97V351ZM1668.18 351.18C1672.59 351.18 1675.24 348.75 1675.24 344.7C1675.24 340.65 1672.61 338.22 1668.18 338.22C1663.79 338.22 1661.16 340.65 1661.16 344.7C1661.16 348.75 1663.79 351.18 1668.18 351.18ZM1668.18 349.668C1664.96 349.668 1663.12 347.85 1663.12 344.7C1663.12 341.568 1664.96 339.75 1668.18 339.75C1671.44 339.75 1673.26 341.568 1673.26 344.7C1673.26 347.85 1671.44 349.668 1668.18 349.668ZM1684.63 351.18C1689.04 351.18 1691.69 348.75 1691.69 344.7C1691.69 340.65 1689.06 338.22 1684.63 338.22C1680.24 338.22 1677.61 340.65 1677.61 344.7C1677.61 348.75 1680.24 351.18 1684.63 351.18ZM1684.63 349.668C1681.41 349.668 1679.58 347.85 1679.58 344.7C1679.58 341.568 1681.41 339.75 1684.63 339.75C1687.89 339.75 1689.71 341.568 1689.71 344.7C1689.71 347.85 1687.89 349.668 1684.63 349.668Z" fill="white" fill-opacity="0.6"/>
<path d="M1654.38 432.18C1658.45 432.18 1660.64 430.632 1660.64 427.95C1660.64 425.268 1658.47 423.792 1654.85 423.792C1653.17 423.792 1651.64 424.17 1650.53 424.854L1650.98 420.858H1659.83V419.4H1649.38L1648.66 426.168L1650.33 426.366C1651.1 425.574 1652.54 425.142 1654.43 425.142C1657.24 425.142 1658.7 426.168 1658.7 427.95C1658.7 429.714 1657.26 430.686 1654.38 430.686C1651.93 430.686 1650.42 429.984 1650.01 428.616L1648.1 429.03C1648.76 431.172 1650.89 432.18 1654.38 432.18ZM1669.8 432.18C1674.21 432.18 1676.85 429.75 1676.85 425.7C1676.85 421.65 1674.23 419.22 1669.8 419.22C1665.41 419.22 1662.78 421.65 1662.78 425.7C1662.78 429.75 1665.41 432.18 1669.8 432.18ZM1669.8 430.668C1666.58 430.668 1664.74 428.85 1664.74 425.7C1664.74 422.568 1666.58 420.75 1669.8 420.75C1673.06 420.75 1674.87 422.568 1674.87 425.7C1674.87 428.85 1673.06 430.668 1669.8 430.668Z" fill="white" fill-opacity="0.6"/>
<defs>
<filter id="filter0_d" x="0.499992" y="6.5" width="1641" height="515" filterUnits="userSpaceOnUse" color-interpolation-filters="sRGB">
<feFlood flood-opacity="0" result="BackgroundImageFix"/>
<feColorMatrix in="SourceAlpha" type="matrix" values="0 0 0 0 0 0 0 0 0 0 0 0 0 0 0 0 0 0 127 0"/>
<feOffset/>
<feGaussianBlur stdDeviation="6.5"/>
<feColorMatrix type="matrix" values="0 0 0 0 0.0901961 0 0 0 0 0.615686 0 0 0 0 0.498039 0 0 0 0.48 0"/>
<feBlend mode="normal" in2="BackgroundImageFix" result="effect1_dropShadow"/>
<feBlend mode="normal" in="SourceGraphic" in2="effect1_dropShadow" result="shape"/>
</filter>
<linearGradient id="paint0_linear" x1="1596" y1="529" x2="1596" y2="588" gradientUnits="userSpaceOnUse">
<stop stop-color="#1ED19B" stop-opacity="0"/>
<stop offset="1" stop-color="#1ED19B"/>
</linearGradient>
<linearGradient id="paint1_linear" x1="821" y1="21" x2="821" y2="507" gradientUnits="userSpaceOnUse">
<stop stop-color="#17A57A" stop-opacity="0.72"/>
<stop offset="1" stop-color="#179882" stop-opacity="0"/>
</linearGradient>
<radialGradient id="paint2_radial" cx="0" cy="0" r="1" gradientUnits="userSpaceOnUse" gradientTransform="translate(820.931 264.069) scale(2753.9 830.271)">
<stop stop-color="#17A57A"/>
<stop offset="1" stop-color="#1751A5"/>
</radialGradient>
</defs>
</svg>
