<svg width="2456" height="2420" viewBox="0 0 2456 2420" fill="none" xmlns="http://www.w3.org/2000/svg">
<path d="M1924.45 1710.49C1969.08 2104.62 1607.52 2400.17 1187.8 2419.22C757.373 2431.58 416.378 2108.63 412.867 1684.42C417.548 1257.21 804.344 570.868 1423.32 769.854C1661.68 867.761 1843.88 1047.7 1854.24 1278.43C1855.75 1415.6 1898.54 1562.63 1924.45 1710.49Z" stroke="#F60C86" stroke-width="0.5" stroke-miterlimit="10"/>
<path d="M1930.8 1706.81C1974.59 2101.11 1613.04 2398.67 1193.65 2414.38C765.397 2424.07 428.413 2097.1 421.894 1680.08C423.9 1260.05 805.18 581.727 1416.3 775.368C1652.49 867.76 1836.52 1041.85 1852.91 1270.24C1858.92 1406.75 1905.23 1555.27 1930.8 1706.81Z" stroke="#F30C87" stroke-width="0.5" stroke-miterlimit="10"/>
<path d="M1937.82 1702.3C1980.78 2096.93 1619.39 2396.33 1200.17 2408.86C773.924 2416.05 441.286 2085.07 431.591 1675.24C431.09 1262.39 806.519 592.088 1410.12 780.549C1644.3 867.595 1830.01 1035.84 1852.24 1261.56C1862.77 1396.72 1912.58 1547.09 1937.82 1702.3Z" stroke="#F00C89" stroke-width="0.5" stroke-miterlimit="10"/>
<path d="M1945.68 1696.79C1987.97 2091.59 1626.58 2392.99 1207.52 2402.35C783.282 2406.86 454.991 2072.04 442.12 1669.39C438.944 1263.73 808.69 601.274 1404.6 784.556C1636.61 866.255 1824.16 1028.49 1852.4 1251.87C1867.28 1385.86 1920.6 1537.9 1945.68 1696.79Z" stroke="#ED0C8A" stroke-width="0.5" stroke-miterlimit="10"/>
<path d="M1954.04 1690.44C1995.49 2085.4 1634.27 2388.81 1215.38 2394.83C793.314 2396.83 469.201 2058 453.154 1662.37C447.471 1263.9 811.367 609.462 1399.58 787.564C1629.42 863.918 1818.64 1020.13 1852.91 1241.01C1872.63 1374.17 1929.3 1527.87 1954.04 1690.44Z" stroke="#EB0C8C" stroke-width="0.5" stroke-miterlimit="10"/>
<path d="M1963.23 1683.26C2003.85 2078.56 1642.63 2383.8 1224.07 2386.64C804.012 2385.98 484.078 2043.14 465.022 1654.85C456.664 1263.4 814.877 616.983 1395.4 789.906C1623.24 860.913 1814.13 1011.28 1854.41 1229.65C1878.48 1361.47 1938.83 1517.02 1963.23 1683.26Z" stroke="#E80C8D" stroke-width="0.5" stroke-miterlimit="10"/>
<path d="M1972.92 1675.4C2012.87 2070.87 1651.65 2378.12 1233.26 2377.62C815.377 2374.44 499.622 2027.6 477.39 1646.5C466.525 1262.22 818.888 623.83 1391.89 791.407C1617.55 857.067 1810.28 1001.42 1856.42 1217.45C1885 1348.27 1948.69 1505.49 1972.92 1675.4Z" stroke="#E50C8F" stroke-width="0.5" stroke-miterlimit="10"/>
<path d="M1983.12 1666.72C2022.23 2062.35 1661.18 2371.61 1242.96 2367.93C827.078 2362.08 515.669 2011.39 490.261 1637.31C476.722 1260.22 823.4 629.679 1388.72 792.243C1612.2 852.39 1806.77 990.896 1858.92 1204.42C1892.02 1334.07 1959.22 1493.12 1983.12 1666.72Z" stroke="#E20C90" stroke-width="0.5" stroke-miterlimit="10"/>
<path d="M1993.82 1657.19C2032.1 2052.99 1671.21 2364.25 1253.32 2357.4C839.449 2349.05 532.386 1994.35 503.802 1627.45C487.755 1257.55 828.751 635.024 1386.21 792.242C1607.52 847.042 1803.76 979.7 1862.1 1190.72C1899.54 1319.36 1970.42 1479.92 1993.82 1657.19Z" stroke="#DF0C91" stroke-width="0.5" stroke-miterlimit="10"/>
<path d="M2005.02 1647.17C2042.63 2043.3 1681.57 2356.4 1264.02 2346.21C852.32 2335.35 549.268 1976.47 517.676 1616.93C498.955 1254.21 834.267 639.536 1384.04 791.742C1603.35 841.196 1801.26 967.839 1865.44 1176.52C1907.4 1303.83 1981.78 1466.22 2005.02 1647.17Z" stroke="#DC0C93" stroke-width="0.5" stroke-miterlimit="10"/>
<path d="M2016.72 1636.64C2053.49 2032.94 1692.6 2348.05 1275.22 2334.68C865.523 2321.15 566.817 1958.43 532.049 1605.9C510.653 1250.36 840.282 643.712 1382.37 790.571C1599.5 834.679 1799.25 955.307 1869.45 1161.48C1915.92 1287.95 1993.82 1452.02 2016.72 1636.64Z" stroke="#DA0C94" stroke-width="0.5" stroke-miterlimit="10"/>
<path d="M2028.59 1625.45C2064.53 2021.92 1703.81 2339.03 1286.59 2322.32C878.897 2306.28 584.537 1939.55 546.593 1594.2C522.69 1245.69 846.469 647.055 1381.03 788.902C1595.99 827.663 1797.58 942.444 1873.63 1146.11C1924.62 1271.25 2006.02 1437.15 2028.59 1625.45Z" stroke="#D70C96" stroke-width="0.5" stroke-miterlimit="10"/>
<path d="M2040.96 1613.75C2076.23 2010.56 1715.34 2329.5 1298.45 2309.62C892.937 2290.91 602.756 1920.34 561.636 1582.18C535.059 1240.84 853.154 650.231 1380.03 786.731C1592.81 819.979 1796.24 928.912 1878.31 1130.07C1933.81 1254.21 2018.72 1421.78 2040.96 1613.75Z" stroke="#D40C97" stroke-width="0.5" stroke-miterlimit="10"/>
<path d="M2053.66 1601.72C2088.09 1998.69 1727.37 2319.65 1310.66 2296.59C907.145 2275.37 621.144 1900.62 577.015 1569.65C547.93 1235.49 860.175 652.904 1379.36 784.225C1590.14 812.126 1795.07 915.045 1883.16 1113.86C1943.34 1236.83 2031.6 1406.08 2053.66 1601.72Z" stroke="#D10D98" stroke-width="0.5" stroke-miterlimit="10"/>
<path d="M2066.53 1589.19C2100.13 1986.33 1739.58 2309.29 1323.03 2282.89C921.688 2259 639.865 1880.41 592.56 1556.61C560.801 1229.65 867.363 654.909 1378.86 781.051C1587.47 803.606 1794.24 900.676 1888.34 1096.99C1952.87 1218.95 2044.8 1389.87 2066.53 1589.19Z" stroke="#CE0D9A" stroke-width="0.5" stroke-miterlimit="10"/>
<path d="M2079.57 1576.33C2112.33 1973.63 1751.94 2298.59 1335.56 2269.02C936.229 2242.62 658.752 1860.02 608.272 1543.25C574.005 1223.46 874.883 656.744 1378.69 777.539C1585.12 794.748 1793.73 885.804 1893.86 1079.61C1962.89 1200.74 2058.17 1373.33 2079.57 1576.33Z" stroke="#CB0D9B" stroke-width="0.5" stroke-miterlimit="10"/>
<path d="M2092.94 1563.29C2125.04 1960.93 1764.48 2287.73 1348.6 2254.82C951.276 2225.75 678.145 1839.3 624.488 1529.71C587.38 1217.11 882.575 658.414 1378.69 774.03C1582.95 785.892 1793.4 870.934 1899.38 1062.4C1972.93 1182.19 2071.88 1356.62 2092.94 1563.29Z" stroke="#C90D9D" stroke-width="0.5" stroke-miterlimit="10"/>
<path d="M2106.32 1549.93C2137.57 1947.74 1777.19 2276.54 1361.47 2240.45C966.153 2208.88 697.201 1818.42 640.368 1516.01C600.753 1210.43 890.265 659.754 1378.69 770.191C1580.95 776.54 1792.9 855.9 1905.06 1044.86C1983.12 1163.49 2085.42 1339.58 2106.32 1549.93Z" stroke="#C60D9E" stroke-width="0.5" stroke-miterlimit="10"/>
<path d="M2119.68 1536.39C2150.11 1934.37 1789.89 2265.18 1374.34 2225.91C981.194 2191.66 716.42 1797.2 656.579 1501.98C614.456 1203.58 898.118 660.753 1378.85 766.178C1578.94 767.18 1792.73 840.526 1910.74 1026.98C1993.32 1144.6 2099.29 1322.37 2119.68 1536.39Z" stroke="#C30DA0" stroke-width="0.5" stroke-miterlimit="10"/>
<path d="M2133.23 1522.7C2162.98 1921 1802.59 2253.65 1387.38 2211.05C996.24 2174.29 735.813 1775.81 672.795 1487.78C627.998 1196.73 905.976 661.757 1379.02 762.002C1576.94 757.658 1792.56 824.99 1916.59 1009.11C2003.68 1125.56 2113 1305 2133.23 1522.7Z" stroke="#C00DA1" stroke-width="0.5" stroke-miterlimit="10"/>
<path d="M2146.76 1509C2175.68 1907.47 1815.46 2242.12 1400.42 2196.34C1011.45 2157.08 755.202 1754.6 689.009 1473.74C641.704 1189.71 913.832 662.759 1379.36 757.825C1575.1 748.135 1792.56 809.619 1922.44 991.062C2013.88 1106.34 2126.87 1287.62 2146.76 1509Z" stroke="#BD0DA2" stroke-width="0.5" stroke-miterlimit="10"/>
<path d="M2160.14 1495.29C2188.22 1893.94 1828.17 2230.59 1413.29 2181.47C1026.33 2139.54 774.256 1733.21 705.054 1459.37C655.242 1182.53 921.687 663.594 1379.36 753.48C1573.09 738.444 1792.23 793.912 1928.13 973.017C2024.24 1087.3 2140.58 1270.24 2160.14 1495.29Z" stroke="#BA0DA4" stroke-width="0.5" stroke-miterlimit="10"/>
<path d="M2173.51 1481.43C2200.92 1880.24 1840.87 2218.9 1426.16 2166.6C1041.37 2122.16 793.48 1711.66 721.102 1445.17C668.616 1175.51 929.377 664.597 1379.52 749.137C1571.08 728.754 1791.9 778.208 1933.98 954.973C2034.27 1068.08 2154.29 1252.7 2173.51 1481.43Z" stroke="#B70DA5" stroke-width="0.5" stroke-miterlimit="10"/>
<path d="M2186.88 1467.73C2213.46 1866.87 1853.41 2207.37 1439.03 2151.9C1056.25 2104.79 812.704 1690.44 737.15 1431.14C681.989 1168.5 937.067 665.6 1379.36 744.961C1568.75 719.064 1791.4 762.838 1939.33 936.931C2044.3 1049.04 2167.83 1235.33 2186.88 1467.73Z" stroke="#B50DA7" stroke-width="0.5" stroke-miterlimit="10"/>
<path d="M2199.92 1455.37C2225.66 1854.68 1865.78 2197.18 1451.73 2138.37C1070.96 2088.75 831.757 1670.39 753.027 1418.11C695.192 1162.82 944.419 667.941 1379.19 742.122C1566.57 710.879 1790.89 748.638 1944.84 920.391C2054.16 1031.33 2181.2 1219.29 2199.92 1455.37Z" stroke="#B20DA8" stroke-width="0.5" stroke-miterlimit="10"/>
<path d="M2212.79 1444.34C2237.86 1843.81 1877.98 2188.32 1464.1 2126.34C1085.5 2074.04 850.311 1651.84 768.572 1406.74C708.229 1158.47 951.774 671.446 1378.85 740.448C1564.06 703.859 1790.22 735.603 1950.02 904.85C2063.85 1014.79 2194.4 1204.58 2212.79 1444.34Z" stroke="#AF0DAA" stroke-width="0.5" stroke-miterlimit="10"/>
<path d="M2225.33 1433.65C2249.56 1833.46 1889.68 2179.8 1476.14 2114.48C1099.54 2059.68 868.699 1633.3 783.784 1395.55C720.767 1154.46 958.628 675.459 1378.02 739.114C1561.05 697.179 1788.89 723.075 1954.87 889.816C2073.22 998.582 2207.27 1190.22 2225.33 1433.65Z" stroke="#AC0DAB" stroke-width="0.5" stroke-miterlimit="10"/>
<path d="M2237.53 1423.45C2260.93 1823.43 1901.21 2171.78 1487.84 2103.28C1113.41 2045.81 886.752 1615.59 798.661 1384.86C733.137 1150.96 965.148 679.803 1376.85 738.446C1557.71 691.164 1787.38 711.046 1959.22 875.448C2082.41 983.045 2219.81 1176.35 2237.53 1423.45Z" stroke="#A90DAC" stroke-width="0.5" stroke-miterlimit="10"/>
<path d="M2249.56 1413.76C2272.3 1813.91 1912.58 2164.27 1499.37 2092.59C1126.95 2032.61 904.637 1598.38 813.37 1374.84C745.171 1148.11 971.499 684.981 1375.51 738.278C1554.37 685.483 1785.71 699.517 1963.56 861.413C2091.1 968.007 2232.18 1162.98 2249.56 1413.76Z" stroke="#A60DAE" stroke-width="0.5" stroke-miterlimit="10"/>
<path d="M2261.1 1404.74C2283 1805.05 1923.45 2157.41 1510.41 2082.4C1139.99 2019.91 921.855 1581.67 827.579 1365.31C756.873 1145.61 977.517 690.494 1373.84 738.611C1550.52 680.469 1783.7 688.489 1967.57 848.046C2099.46 953.47 2244.05 1150.12 2261.1 1404.74Z" stroke="#A40DAF" stroke-width="0.5" stroke-miterlimit="10"/>
<path d="M2272.3 1396.22C2293.36 1796.87 1933.81 2151.07 1521.11 2072.88C1152.86 2007.72 938.907 1565.47 841.456 1356.29C768.075 1143.77 983.035 696.677 1371.67 739.615C1546.18 676.127 1781.2 678.299 1970.92 835.349C2107.49 939.771 2255.42 1138.09 2272.3 1396.22Z" stroke="#A10DB1" stroke-width="0.5" stroke-miterlimit="10"/>
<path d="M2283 1388.37C2303.39 1789.18 1943.84 2145.39 1531.3 2063.85C1165.07 1996.19 955.454 1549.93 854.827 1347.94C778.939 1142.77 988.049 703.526 1369 741.285C1541.33 672.45 1778.02 668.608 1973.93 823.152C2114.84 926.572 2266.45 1126.56 2283 1388.37Z" stroke="#9E0DB2" stroke-width="0.5" stroke-miterlimit="10"/>
<path d="M2293.19 1381.35C2312.75 1782.33 1953.37 2140.54 1541.16 2055.83C1176.93 1985.49 971.666 1535.39 867.863 1340.58C789.3 1142.43 992.728 711.211 1365.98 743.791C1536.31 669.61 1774.68 659.752 1976.43 811.958C2121.86 914.041 2276.98 1115.87 2293.19 1381.35Z" stroke="#9B0DB3" stroke-width="0.5" stroke-miterlimit="10"/>
<path d="M2302.72 1375C2321.44 1776.32 1962.06 2136.36 1550.19 2048.48C1188.13 1975.64 986.88 1521.53 880.068 1333.73C798.998 1142.77 996.575 719.399 1362.31 746.967C1530.47 667.272 1770.67 651.734 1978.44 801.266C2128.38 902.179 2286.84 1105.84 2302.72 1375Z" stroke="#980DB5" stroke-width="0.5" stroke-miterlimit="10"/>
<path d="M2311.75 1369.32C2329.8 1770.8 1970.42 2132.85 1558.71 2041.63C1198.66 1966.11 1001.75 1507.99 891.767 1327.55C808.022 1143.77 999.916 728.419 1357.96 750.64C1523.95 665.598 1765.99 644.046 1979.61 791.239C2134.06 891.317 2296.2 1096.49 2311.75 1369.32Z" stroke="#950DB6" stroke-width="0.5" stroke-miterlimit="10"/>
<path d="M2320.27 1364.64C2337.49 1766.29 1978.27 2130.35 1566.74 2035.95C1208.86 1957.93 1016.13 1495.8 902.968 1322.54C816.549 1145.77 1002.76 738.443 1353.12 755.652C1516.93 665.264 1760.64 637.697 1980.45 782.551C2139.24 881.126 2304.89 1087.96 2320.27 1364.64Z" stroke="#930DB8" stroke-width="0.5" stroke-miterlimit="10"/>
<path d="M2327.96 1360.63C2344.34 1762.45 1985.3 2128.51 1573.93 2030.77C1218.05 1950.08 1029.67 1484.1 913.332 1317.86C824.406 1148.28 1004.77 748.971 1347.43 760.834C1509.24 665.1 1754.62 631.684 1980.45 773.865C2143.76 871.772 2312.92 1080.45 2327.96 1360.63Z" stroke="#900DB9" stroke-width="0.5" stroke-miterlimit="10"/>
<path d="M2334.98 1357.63C2350.69 1759.78 1991.48 2127.68 1580.44 2026.76C1226.58 1943.56 1042.37 1473.58 923.025 1314.52C831.424 1152.12 1006.27 760.833 1341.08 767.349C1500.71 666.269 1747.93 626.839 1979.61 766.681C2147.6 863.418 2320.27 1073.77 2334.98 1357.63Z" stroke="#8D0DBB" stroke-width="0.5" stroke-miterlimit="10"/>
<path d="M2341.17 1355.45C2356.04 1757.77 1997 2127.67 1586.13 2023.42C1234.44 1937.54 1054.41 1463.55 931.886 1311.85C837.778 1156.63 1006.77 773.196 1334.06 774.699C1491.52 668.272 1740.58 622.828 1978.27 760.331C2150.61 855.898 2326.79 1067.92 2341.17 1355.45Z" stroke="#8A0EBC" stroke-width="0.5" stroke-miterlimit="10"/>
<path d="M2346.68 1354.45C2360.72 1756.94 2001.84 2128.84 1591.14 2021.42C1241.46 1933.03 1065.78 1455.03 940.076 1310.34C843.293 1162.31 1006.6 786.896 1326.2 783.053C1481.49 671.113 1732.39 619.988 1975.93 754.818C2152.95 849.382 2332.47 1063.24 2346.68 1354.45Z" stroke="#870EBD" stroke-width="0.5" stroke-miterlimit="10"/>
<path d="M2351.19 1354.28C2364.57 1757.1 2005.52 2130.85 1595.32 2020.25C1247.64 1929.36 1076.31 1447.34 947.429 1309.84C848.139 1169 1005.6 801.432 1317.51 792.577C1470.79 675.29 1723.19 618.15 1972.92 750.641C2154.29 843.869 2337.49 1059.4 2351.19 1354.28Z" stroke="#840EBF" stroke-width="0.5" stroke-miterlimit="10"/>
<path d="M2354.87 1355.29C2367.41 1758.27 2008.53 2134.03 1598.5 2020.08C1252.99 1926.52 1085.67 1440.66 953.781 1310.34C851.816 1176.52 1003.59 817.138 1307.81 802.937C1458.92 680.304 1713.16 617.149 1968.74 747.134C2154.79 839.526 2341.5 1056.72 2354.87 1355.29Z" stroke="#810EC0" stroke-width="0.5" stroke-miterlimit="10"/>
<path d="M2357.71 1357.46C2369.41 1760.61 2010.7 2138.37 1600.84 2021.25C1257.33 1925.18 1094.36 1435.15 959.297 1312.01C854.825 1185.37 1000.75 833.846 1297.45 814.632C1446.39 686.652 1702.47 617.65 1964.06 745.129C2154.45 836.185 2344.51 1055.05 2357.71 1357.46Z" stroke="#7F0EC2" stroke-width="0.5" stroke-miterlimit="10"/>
<path d="M2359.55 1360.63C2370.59 1763.95 2011.87 2143.71 1602.17 2023.25C1260.84 1924.51 1102.05 1430.64 963.811 1314.69C856.665 1195.23 996.908 851.721 1285.92 827.161C1432.85 693.835 1690.6 618.818 1958.21 743.958C2153.12 834.011 2346.68 1054.72 2359.55 1360.63Z" stroke="#7C0EC3" stroke-width="0.5" stroke-miterlimit="10"/>
<path d="M2360.39 1364.98C2370.59 1768.63 2011.87 2150.23 1602.51 2026.6C1263.19 1925.35 1108.74 1427.46 967.323 1318.7C857.502 1206.42 992.229 870.936 1273.38 841.197C1418.14 702.357 1677.56 621.493 1951.2 744.126C2150.61 833.01 2347.85 1055.39 2360.39 1364.98Z" stroke="#790EC5" stroke-width="0.5" stroke-miterlimit="10"/>
<path d="M2360.22 1370.66C2369.58 1774.48 2011.03 2158.08 1601.84 2031.27C1264.52 1927.35 1114.25 1425.62 969.827 1323.88C857.499 1218.79 986.375 891.151 1259.84 856.232C1402.42 712.046 1663.69 625.334 1943.34 745.461C2147.26 833.343 2347.85 1057.39 2360.22 1370.66Z" stroke="#760EC6" stroke-width="0.5" stroke-miterlimit="10"/>
<path d="M2358.72 1378.18C2367.24 1782.16 2008.86 2167.77 1599.83 2037.62C1264.69 1931.2 1118.6 1425.46 970.998 1330.89C855.995 1232.99 979.188 913.206 1244.96 873.275C1385.37 723.742 1648.48 631.015 1933.98 748.636C2142.58 835.349 2346.68 1061.23 2358.72 1378.18Z" stroke="#730EC7" stroke-width="0.5" stroke-miterlimit="10"/>
<path d="M2355.21 1391.88C2363.06 1796.2 2004.68 2183.65 1595.82 2050.32C1262.68 1941.22 1120.94 1431.47 970.164 1344.26C852.654 1253.37 969.997 941.776 1228.25 896.499C1366.65 741.62 1631.43 642.878 1922.95 758.16C2135.9 843.703 2343.67 1071.26 2355.21 1391.88Z" stroke="#700EC9" stroke-width="0.5" stroke-miterlimit="10"/>
<path d="M2353.87 1404.58C2360.89 1809.06 2002.51 2198.52 1593.99 2061.85C1263.02 1950.24 1125.45 1436.49 971.501 1356.29C851.317 1272.59 962.976 969.01 1213.54 918.386C1349.77 758.161 1616.38 653.572 1913.75 766.348C2131.39 851.055 2342.5 1080.28 2353.87 1404.58Z" stroke="#6E0ECA" stroke-width="0.5" stroke-miterlimit="10"/>
<path d="M2354.54 1415.94C2360.72 1820.59 2002.51 2212.05 1594.32 2072.21C1265.36 1957.93 1131.97 1440.33 975.011 1367.32C852.319 1290.8 958.128 995.074 1201 939.438C1335.06 773.699 1603.35 663.262 1906.9 773.532C2128.88 856.903 2343.51 1087.8 2354.54 1415.94Z" stroke="#6B0ECC" stroke-width="0.5" stroke-miterlimit="10"/>
<path d="M2357.21 1425.29C2362.73 1830.12 2004.52 2223.58 1596.49 2080.56C1269.54 1963.78 1140.49 1442.17 980.358 1376.34C854.992 1307 955.118 1019.3 1190.3 958.318C1322.19 787.233 1592.31 670.781 1901.72 778.712C2128.21 861.08 2346.51 1093.65 2357.21 1425.29Z" stroke="#680ECD" stroke-width="0.5" stroke-miterlimit="10"/>
<path d="M2361.89 1432.48C2366.57 1837.63 2008.36 2232.93 1600.67 2086.58C1275.89 1967.28 1151.03 1441.5 987.715 1382.86C859.675 1320.7 954.284 1040.85 1181.61 974.858C1311.49 798.426 1583.29 676.127 1898.71 781.552C2129.72 862.75 2351.53 1097.16 2361.89 1432.48Z" stroke="#650ECE" stroke-width="0.5" stroke-miterlimit="10"/>
<path d="M2368.75 1436.99C2372.59 1842.31 2014.55 2239.62 1607.02 2090.08C1284.25 1968.12 1163.56 1438.49 997.242 1387.03C866.694 1332.06 955.453 1060.23 1175.26 988.891C1302.97 807.113 1576.6 678.799 1898.04 781.717C2133.39 861.913 2358.55 1097.99 2368.75 1436.99Z" stroke="#620ED0" stroke-width="0.5" stroke-miterlimit="10"/>
<path d="M2377.61 1438.32C2380.78 1843.81 2022.74 2243.12 1615.38 2090.25C1294.61 1965.78 1178.27 1432.14 1008.78 1387.86C875.555 1339.91 958.631 1076.1 1170.75 999.749C1296.28 812.625 1571.59 678.296 1899.04 778.876C2139.08 857.902 2367.75 1095.65 2377.61 1438.32Z" stroke="#5F0ED1" stroke-width="0.5" stroke-miterlimit="10"/>
<path d="M2388.64 1436.15C2390.98 1841.98 2033.1 2243.12 1625.91 2087.08C1307.31 1959.93 1195.15 1422.45 1022.48 1385.19C886.751 1344.43 963.977 1088.63 1168.41 1006.93C1291.77 814.463 1568.91 674.287 1902.38 772.193C2146.76 850.384 2379.11 1089.8 2388.64 1436.15Z" stroke="#5D0ED3" stroke-width="0.5" stroke-miterlimit="10"/>
<path d="M2401.68 1430.14C2403.18 1836.13 2045.3 2239.28 1638.45 2080.06C1321.86 1950.41 1214.04 1408.75 1038.2 1378.84C899.792 1345.26 971.334 1097.32 1168.08 1010.61C1289.43 812.626 1568.24 666.602 1907.57 762.169C2156.63 838.857 2392.48 1079.95 2401.68 1430.14Z" stroke="#5A0ED4" stroke-width="0.5" stroke-miterlimit="10"/>
<path d="M2416.89 1419.61C2417.72 1825.77 2059.85 2230.93 1653.16 2068.36C1338.74 1936.04 1234.94 1390.54 1056.08 1367.82C915.17 1341.42 980.862 1101.5 1170.08 1009.44C1289.26 806.109 1569.91 654.07 1915.26 747.298C2168.66 822.983 2408.03 1065.74 2416.89 1419.61Z" stroke="#570ED6" stroke-width="0.5" stroke-miterlimit="10"/>
<path d="M2431.77 1406.24C2431.77 1812.57 2074.05 2219.73 1667.7 2054C1355.29 1919.17 1255.83 1369.66 1073.8 1353.95C930.214 1334.74 990.223 1102.67 1171.75 1005.6C1288.76 796.921 1571.25 638.868 1922.44 729.59C2180.36 804.105 2423.07 1048.87 2431.77 1406.24Z" stroke="#540ED7" stroke-width="0.5" stroke-miterlimit="10"/>
<path d="M2441.79 1395.05C2440.96 1801.71 2083.25 2210.71 1677.23 2041.63C1366.82 1904.13 1271.71 1350.78 1086.5 1342.25C940.41 1330.23 994.568 1106.18 1168.41 1003.76C1283.41 789.737 1567.41 625.836 1924.78 714.052C2187.22 787.565 2433.44 1033.83 2441.79 1395.05Z" stroke="#510ED8" stroke-width="0.5" stroke-miterlimit="10"/>
<path d="M2448.81 1385.19C2447.31 1792.02 2089.6 2203.03 1683.75 2030.77C1375.51 1890.76 1284.58 1333.23 1096.2 1332.06C947.431 1327.05 996.073 1111.19 1162.06 1003.43C1274.89 784.056 1560.72 614.14 1924.12 699.85C2191.06 772.36 2440.79 1020.47 2448.81 1385.19Z" stroke="#4E0EDA" stroke-width="0.5" stroke-miterlimit="10"/>
<path d="M2453.16 1376.84C2450.82 1783.83 2093.28 2196.84 1687.59 2021.42C1381.36 1878.9 1294.61 1317.36 1103.22 1323.21C951.777 1325.38 994.735 1117.37 1153.03 1004.6C1263.69 779.712 1551.36 603.949 1920.61 687.319C2192.23 758.66 2445.47 1008.27 2453.16 1376.84Z" stroke="#4B0EDB" stroke-width="0.5" stroke-miterlimit="10"/>
<path d="M2455 1369.49C2451.82 1776.82 2094.45 2191.67 1688.93 2012.89C1384.71 1867.71 1302.3 1302.32 1107.73 1315.36C953.783 1324.71 990.892 1124.72 1141.67 1006.6C1250.15 776.371 1539.66 594.76 1914.92 675.624C2190.73 745.963 2447.48 997.411 2455 1369.49Z" stroke="#490EDD" stroke-width="0.5" stroke-miterlimit="10"/>
<path d="M2454.5 1363.14C2450.65 1770.64 2093.11 2187.49 1687.92 2005.54C1385.88 1857.85 1307.65 1288.46 1109.9 1308.51C953.279 1325.05 984.704 1132.91 1127.79 1009.78C1234.27 774.2 1525.28 586.574 1906.56 664.933C2187.05 734.269 2447.47 987.388 2454.5 1363.14Z" stroke="#460EDE" stroke-width="0.5" stroke-miterlimit="10"/>
<path d="M2451.99 1357.79C2447.31 1765.46 2089.93 2184.31 1684.92 1999.03C1384.87 1848.66 1310.99 1275.26 1110.07 1302.66C950.94 1326.38 976.514 1142.27 1111.91 1013.79C1216.21 772.863 1509.07 579.222 1896.37 655.242C2181.53 723.241 2445.3 978.198 2451.99 1357.79Z" stroke="#430EE0" stroke-width="0.5" stroke-miterlimit="10"/>
<path d="M2447.81 1352.95C2442.29 1760.78 2085.09 2181.64 1680.24 1993.18C1382.37 1840.3 1312.5 1262.89 1108.57 1297.48C946.761 1328.39 966.653 1152.12 1094.36 1018.63C1196.49 772.36 1491.18 572.872 1884.33 646.385C2174.01 713.048 2441.29 969.675 2447.81 1352.95Z" stroke="#400FE1" stroke-width="0.5" stroke-miterlimit="10"/>
<path d="M2442.3 1348.6C2436.11 1756.77 2078.73 2179.47 1674.39 1987.83C1378.52 1832.29 1313 1251.03 1105.89 1292.63C941.581 1330.56 955.622 1162.48 1075.81 1023.64C1175.76 771.858 1472.3 566.523 1871.46 637.53C2165.15 703.358 2435.94 961.656 2442.3 1348.6Z" stroke="#3D0FE2" stroke-width="0.5" stroke-miterlimit="10"/>
<path d="M2435.44 1344.59C2428.42 1752.93 2071.21 2177.63 1667.03 1982.65C1373.17 1824.6 1311.83 1239.17 1101.55 1288.12C934.56 1333.23 943.085 1173.01 1055.41 1029.16C1153.37 772.027 1451.57 560.676 1856.75 629.177C2155.12 694.002 2429.43 953.971 2435.44 1344.59Z" stroke="#3A0FE4" stroke-width="0.5" stroke-miterlimit="10"/>
<path d="M2427.58 1340.58C2419.73 1749.08 2062.69 2175.79 1658.67 1977.64C1366.99 1816.92 1309.99 1227.64 1096.53 1283.78C927.036 1336.07 929.71 1183.87 1034.35 1034.67C1130.13 772.195 1430 554.997 1841.21 620.992C2144.09 684.647 2421.9 946.454 2427.58 1340.58Z" stroke="#380FE5" stroke-width="0.5" stroke-miterlimit="10"/>
<path d="M2419.06 1336.74C2410.53 1745.58 2053.49 2174.12 1649.65 1972.63C1359.97 1809.4 1307.15 1216.11 1090.68 1279.27C918.512 1338.75 915.503 1194.39 1012.45 1040.18C1106.06 772.362 1407.77 549.149 1824.99 612.805C2132.56 675.458 2413.88 938.936 2419.06 1336.74Z" stroke="#350FE7" stroke-width="0.5" stroke-miterlimit="10"/>
<path d="M2410.2 1332.73C2400.84 1741.73 2043.8 2172.29 1640.29 1967.62C1352.78 1801.71 1304.14 1204.59 1084.5 1274.92C909.654 1341.59 900.962 1205.25 990.222 1045.7C1081.66 772.529 1385.21 543.302 1808.28 604.619C2120.36 666.103 2405.19 931.251 2410.2 1332.73Z" stroke="#320FE8" stroke-width="0.5" stroke-miterlimit="10"/>
<path d="M2401.17 1328.39C2390.98 1737.55 2034.1 2170.11 1630.76 1962.27C1345.26 1793.86 1300.96 1192.72 1078.14 1270.24C900.793 1344.09 886.25 1215.78 967.989 1050.87C1057.42 772.36 1362.64 537.285 1791.73 595.929C2108.15 656.243 2396.49 923.229 2401.17 1328.39Z" stroke="#2F0FE9" stroke-width="0.5" stroke-miterlimit="10"/>
<path d="M2392.32 1323.54C2381.45 1732.88 2024.58 2167.44 1621.4 1956.26C1337.91 1785.34 1297.95 1180.02 1071.96 1264.73C891.936 1345.6 871.71 1225.3 945.76 1055.39C1033.01 771.359 1339.91 530.436 1775.01 586.74C2096.12 646.052 2387.97 914.709 2392.32 1323.54Z" stroke="#2C0FEB" stroke-width="0.5" stroke-miterlimit="10"/>
<path d="M2383.79 1318.03C2372.09 1727.7 2015.21 2164.1 1612.37 1949.74C1331.05 1776.15 1295.11 1166.99 1066.11 1258.89C883.576 1346.93 857.5 1234.66 923.86 1059.4C1008.94 770.023 1317.68 523.086 1758.8 577.051C2084.25 635.193 2379.61 905.521 2383.79 1318.03Z" stroke="#290FEC" stroke-width="0.5" stroke-miterlimit="10"/>
<path d="M2375.93 1311.68C2363.4 1721.52 2006.69 2159.92 1604.18 1942.22C1324.86 1766.13 1293.27 1152.96 1061.09 1252.04C875.887 1347.27 844.294 1242.85 902.799 1062.57C985.707 767.851 1296.28 515.066 1743.42 566.358C2073.22 623.331 2372.09 895.497 2375.93 1311.68Z" stroke="#270FEE" stroke-width="0.5" stroke-miterlimit="10"/>
<path d="M2369.08 1304.33C2355.88 1714.33 1999.17 2154.74 1596.83 1933.87C1319.52 1755.1 1292.27 1138.09 1056.92 1244.18C869.201 1346.6 831.759 1250.2 882.741 1064.58C963.476 764.677 1275.72 505.877 1728.71 554.83C2063.19 610.633 2365.57 884.47 2369.08 1304.33Z" stroke="#240FEF" stroke-width="0.5" stroke-miterlimit="10"/>
<path d="M2363.4 1295.81C2349.35 1706.15 1992.81 2148.39 1590.64 1924.35C1315.5 1743.07 1292.44 1122.05 1053.91 1235.33C863.517 1344.93 820.391 1256.38 863.684 1065.75C942.414 760.332 1256.5 495.518 1715.5 541.965C2054.33 596.766 2360.22 872.273 2363.4 1295.81Z" stroke="#210FF1" stroke-width="0.5" stroke-miterlimit="10"/>
<path d="M2359.22 1286.12C2344.34 1696.62 1987.8 2140.88 1585.96 1913.49C1312.83 1729.54 1293.94 1104.51 1052.4 1225.14C859.34 1341.92 810.53 1261.39 846.134 1065.41C922.691 754.486 1238.45 483.991 1703.47 527.932C2046.97 581.563 2356.21 858.741 2359.22 1286.12Z" stroke="#1E0FF2" stroke-width="0.5" stroke-miterlimit="10"/>
<path d="M1691.43 513.896C2036.78 566.524 2351.7 847.044 2350.69 1273.59C2346.85 1349.1 2330.47 1424.12 2308.07 1495.3C2265.95 1625.28 2187.72 1745.07 2090.6 1832.45C1950.86 1957.93 1768.33 2008.55 1575.26 1900.79C1302.13 1721.01 1279.9 1101.5 1039.87 1216.78C848.64 1330.39 799.998 1249.36 835.268 1054.38C910.655 742.121 1226.91 470.79 1691.43 513.896Z" stroke="#210FF1" stroke-width="0.5" stroke-miterlimit="10"/>
<path d="M1680.24 498.691C2027.58 550.317 2348.02 834.178 2343.17 1260.05C2338.16 1335.9 2319.6 1409.42 2298.71 1478.59C2257.76 1605.56 2176.69 1722.68 2078.9 1811.57C1938.99 1938.21 1757.63 1992.34 1565.74 1886.92C1292.44 1711.32 1267.03 1097.49 1028.17 1207.42C838.78 1318.03 790.472 1236.33 825.073 1042.35C899.624 728.586 1216.21 456.755 1680.24 498.691Z" stroke="#240FEF" stroke-width="0.5" stroke-miterlimit="10"/>
<path d="M1670.04 482.485C2019.39 533.108 2345.35 820.311 2336.65 1245.35C2330.3 1321.54 2309.74 1393.55 2290.18 1460.88C2250.57 1584.85 2166.66 1699.29 2067.87 1789.68C1927.79 1917.49 1747.6 1975.13 1556.71 1872.05C1283.41 1700.63 1254.49 1092.31 1017.3 1197.07C829.753 1304.66 781.613 1222.46 815.879 1029.32C889.427 714.051 1206.35 441.551 1670.04 482.485Z" stroke="#270FEE" stroke-width="0.5" stroke-miterlimit="10"/>
<path d="M1660.51 465.442C2011.7 515.064 2343.34 805.608 2330.63 1229.81C2323.11 1306.16 2300.55 1377 2282.33 1442.33C2243.88 1563.29 2157.13 1675.07 2057.67 1767.13C1917.59 1896.11 1738.4 1957.26 1548.68 1856.34C1275.22 1689.1 1243.13 1086.46 1007.27 1185.87C821.561 1290.46 773.588 1207.59 807.353 1015.45C879.898 698.679 1197.32 425.678 1660.51 465.442Z" stroke="#290FEC" stroke-width="0.5" stroke-miterlimit="10"/>
<path d="M1651.65 447.567C2004.85 496.186 2341.83 790.072 2325.45 1213.61C2316.76 1290.29 2292.02 1359.63 2275.31 1422.95C2238.2 1540.91 2148.44 1650.01 2048.14 1743.57C1907.9 1873.72 1729.88 1938.55 1541.33 1839.81C1267.86 1676.74 1232.43 1079.61 997.91 1173.84C814.04 1275.43 766.401 1191.89 799.664 1000.92C871.207 682.642 1188.8 408.806 1651.65 447.567Z" stroke="#2C0FEB" stroke-width="0.5" stroke-miterlimit="10"/>
<path d="M1643.29 429.022C1998.5 476.472 2341 773.699 2320.77 1196.57C2310.91 1273.59 2284 1341.59 2268.62 1402.9C2232.68 1517.85 2140.08 1624.28 2039.12 1719.34C1898.71 1850.67 1721.86 1919 1534.48 1822.6C1260.84 1663.71 1222.07 1072.26 989.051 1161.15C807.02 1259.72 759.548 1175.51 792.31 985.55C863.017 665.768 1181.11 391.263 1643.29 429.022Z" stroke="#2F0FE9" stroke-width="0.5" stroke-miterlimit="10"/>
<path d="M1635.61 409.974C1992.82 456.421 2340.83 756.989 2316.76 1179.02C2305.73 1256.38 2276.64 1322.87 2262.77 1382.19C2228.17 1494.13 2132.72 1597.88 2030.76 1694.62C1890.18 1827.11 1714.5 1898.95 1528.29 1804.72C1254.49 1650.01 1212.54 1064.07 980.86 1147.78C800.668 1243.35 753.363 1158.64 785.791 969.509C855.327 648.223 1173.76 373.218 1635.61 409.974Z" stroke="#320FE8" stroke-width="0.5" stroke-miterlimit="10"/>
<path d="M1628.42 390.262C1987.46 435.706 2341.16 739.616 2313.08 1160.98C2300.88 1238.67 2269.62 1303.66 2257.25 1361.14C2223.82 1470.07 2125.53 1570.98 2022.9 1669.39C1882.16 1803.05 1707.65 1878.4 1522.61 1786.51C1248.81 1635.97 1203.34 1055.56 973.337 1133.91C794.983 1226.47 748.013 1141.1 779.772 952.971C848.138 630.182 1167.07 354.675 1628.42 390.262Z" stroke="#350FE7" stroke-width="0.5" stroke-miterlimit="10"/>
<path d="M1621.56 370.21C1982.62 414.652 2341.83 721.904 2309.91 1142.43C2296.53 1220.29 2263.27 1284.11 2252.07 1339.58C2219.81 1445.51 2118.68 1543.75 2015.21 1643.83C1874.47 1778.66 1700.96 1857.68 1516.92 1767.96C1242.96 1621.6 1194.32 1046.87 965.648 1119.88C789.133 1209.43 742.329 1123.39 773.754 936.262C841.452 611.801 1160.55 335.626 1621.56 370.21Z" stroke="#380FE5" stroke-width="0.5" stroke-miterlimit="10"/>
<path d="M1615.05 349.829C1978.11 393.268 2342.67 703.861 2307.07 1123.55C2292.52 1201.75 2257.09 1264.06 2247.39 1317.53C2216.47 1420.28 2112.33 1516.01 2008.19 1617.6C1867.28 1753.59 1694.95 1836.13 1512.08 1748.58C1238.11 1606.4 1186.13 1037.18 958.796 1105.01C784.119 1191.39 737.483 1105.01 768.407 918.72C834.934 593.09 1154.53 316.247 1615.05 349.829Z" stroke="#3A0FE4" stroke-width="0.5" stroke-miterlimit="10"/>
<path d="M1608.7 329.277C1973.59 371.547 2343.84 685.648 2304.23 1104.67C2288.51 1183.2 2250.9 1244.01 2242.71 1295.64C2212.96 1395.38 2106.15 1488.44 2001.01 1591.53C1859.93 1728.7 1688.76 1814.74 1507.07 1729.53C1232.93 1591.53 1177.6 1027.82 951.777 1090.47C778.939 1173.84 732.637 1086.8 763.059 901.509C828.751 574.209 1148.69 296.697 1608.7 329.277Z" stroke="#3D0FE2" stroke-width="0.5" stroke-miterlimit="10"/>
<path d="M1602.68 308.562C1969.58 349.83 2345.34 667.106 2301.88 1085.46C2285 1164.32 2245.22 1223.8 2238.53 1273.25C2210.12 1369.99 2100.3 1460.38 1994.49 1565.14C1853.24 1703.47 1683.24 1793.03 1502.72 1710.16C1228.58 1576.33 1169.91 1018.3 945.424 1075.6C774.424 1155.97 728.29 1068.25 758.378 883.969C822.732 555.165 1143 276.985 1602.68 308.562Z" stroke="#400FE1" stroke-width="0.5" stroke-miterlimit="10"/>
<path d="M1596.66 287.675C1965.57 327.94 2346.85 648.557 2299.54 1066.25C2281.49 1145.44 2239.54 1203.41 2234.19 1251.03C2206.94 1344.76 2094.28 1432.47 1987.63 1538.73C1846.22 1678.24 1677.39 1771.47 1498.04 1690.61C1223.74 1560.96 1161.89 1008.44 938.905 1060.56C769.744 1137.92 723.777 1049.54 753.363 866.256C816.715 535.948 1137.48 257.267 1596.66 287.675Z" stroke="#430EE0" stroke-width="0.5" stroke-miterlimit="10"/>
<path d="M1590.64 266.958C1961.56 306.22 2348.18 630.179 2297.04 1047.03C2277.81 1126.39 2233.85 1183.2 2229.84 1228.81C2203.93 1319.53 2088.26 1404.57 1980.95 1512.34C1839.53 1653.01 1671.71 1749.75 1493.52 1671.23C1219.22 1545.75 1153.86 998.747 932.385 1045.7C765.063 1120.04 719.429 1031.16 748.514 848.714C810.863 516.902 1131.97 237.552 1590.64 266.958Z" stroke="#460EDE" stroke-width="0.5" stroke-miterlimit="10"/>
<path d="M1584.62 246.409C1957.38 284.669 2349.69 611.969 2294.7 1027.99C2274.3 1107.68 2228.17 1162.98 2225.66 1206.59C2200.92 1294.3 2082.58 1376.67 1974.26 1486.11C1832.68 1627.95 1666.03 1728.2 1488.84 1652.01C1214.54 1530.72 1145.84 989.225 925.699 1030.83C760.216 1102.17 714.75 1012.62 743.334 831.172C804.847 498.024 1126.45 218.006 1584.62 246.409Z" stroke="#490EDD" stroke-width="0.5" stroke-miterlimit="10"/>
<path d="M1578.44 226.024C1953.2 263.282 2351.03 593.923 2292.19 1009.27C2270.63 1089.3 2222.32 1143.1 2221.15 1184.87C2197.58 1269.58 2076.39 1349.1 1967.41 1460.21C1825.66 1603.23 1660.18 1706.98 1484.16 1632.96C1209.7 1515.84 1137.82 980.035 919.014 1016.29C755.369 1084.62 710.237 994.403 738.319 813.962C798.829 479.31 1120.77 198.791 1578.44 226.024Z" stroke="#4B0EDB" stroke-width="0.5" stroke-miterlimit="10"/>
<path d="M1572.09 206.142C1948.86 242.23 2352.2 576.381 2289.35 990.894C2266.45 1071.26 2216.14 1123.72 2216.47 1163.32C2194.24 1245.02 2070.04 1321.87 1960.22 1434.48C1818.31 1578.67 1653.99 1686.09 1479.15 1614.25C1204.52 1501.31 1129.3 971.18 911.995 1002.09C750.189 1067.41 705.225 976.693 732.805 797.254C792.647 461.099 1114.92 179.744 1572.09 206.142Z" stroke="#4E0EDA" stroke-width="0.5" stroke-miterlimit="10"/>
<path d="M1565.57 186.595C1944.17 221.681 2353.2 559.006 2286.5 972.851C2262.43 1053.55 2209.95 1104.51 2211.79 1142.27C2190.73 1220.96 2063.69 1295.14 1953.2 1409.42C1811.12 1554.77 1647.97 1665.71 1474.3 1596.21C1199.66 1487.44 1121.1 962.827 905.138 988.556C745.171 1050.71 700.374 959.485 727.62 781.049C786.124 443.223 1108.73 161.2 1565.57 186.595Z" stroke="#510ED8" stroke-width="0.5" stroke-miterlimit="10"/>
<path d="M1558.71 167.548C1939.33 201.631 2353.7 542.298 2283.33 955.475C2258.09 1036.34 2203.6 1085.96 2206.77 1121.71C2187.05 1197.4 2057.17 1268.91 1945.68 1384.69C1803.6 1531.22 1641.46 1645.66 1468.95 1578.33C1193.98 1473.74 1112.08 954.807 897.784 975.19C739.656 1034.33 695.192 942.443 721.77 765.009C779.271 425.846 1102.21 143.322 1558.71 167.548Z" stroke="#540ED7" stroke-width="0.5" stroke-miterlimit="10"/>
<path d="M1551.36 149.169C1933.98 182.25 2353.87 526.258 2279.49 938.6C2253.07 1019.8 2196.41 1068.08 2200.92 1101.83C2182.37 1174.51 2049.65 1243.35 1937.49 1360.8C1795.24 1508.49 1634.27 1626.45 1462.93 1561.46C1188.13 1461.04 1102.88 947.622 889.928 962.826C733.638 1018.96 689.342 926.403 715.585 749.972C771.917 409.138 1095.36 125.946 1551.36 149.169Z" stroke="#570ED6" stroke-width="0.5" stroke-miterlimit="10"/>
<path d="M1543.5 131.46C1927.96 163.539 2353.53 510.888 2275.31 922.395C2247.73 1003.93 2188.89 1050.71 2194.91 1082.62C2177.69 1152.12 2041.96 1218.45 1928.96 1337.41C1786.55 1486.27 1626.75 1607.9 1456.58 1545.08C1181.61 1448.85 1093.19 940.94 881.57 950.797C727.119 1003.93 682.99 910.866 708.732 735.27C764.228 393.1 1088.01 109.406 1543.5 131.46Z" stroke="#5A0ED4" stroke-width="0.5" stroke-miterlimit="10"/>
<path d="M1535.15 114.585C1921.61 145.661 2352.7 496.352 2270.63 907.19C2241.88 989.057 2180.87 1034.5 2188.39 1064.24C2172.34 1130.74 2033.77 1194.39 1920.11 1314.85C1777.52 1464.89 1618.89 1590.03 1449.73 1529.38C1174.76 1437.32 1082.83 934.924 872.714 939.602C719.934 989.725 676.307 895.996 701.547 721.402C755.873 377.896 1080.15 93.5334 1535.15 114.585Z" stroke="#5D0ED3" stroke-width="0.5" stroke-miterlimit="10"/>
<path d="M1526.12 98.7138C1914.59 128.62 2351.03 482.653 2265.11 892.823C2235.19 975.024 2172 1018.96 2180.86 1046.87C2166.15 1110.35 2024.74 1171.34 1910.07 1293.47C1767.32 1444.67 1609.86 1573.32 1441.87 1515.01C1166.74 1427.13 1071.62 930.414 862.848 929.746C711.908 976.861 668.447 882.464 693.186 708.873C747.01 363.695 1071.62 78.6648 1526.12 98.7138Z" stroke="#5F0ED1" stroke-width="0.5" stroke-miterlimit="10"/>
<path d="M1516.42 83.6776C1906.9 112.582 2348.85 469.956 2259.09 879.29C2228 961.658 2162.81 1004.26 2173.01 1030.16C2159.47 1090.64 2015.21 1148.95 1899.88 1272.59C1757.13 1424.96 1600.67 1557.11 1433.85 1501.14C1158.71 1417.44 1060.26 926.238 852.986 920.39C703.884 964.498 660.591 869.433 684.996 696.844C737.315 350.33 1062.26 64.7981 1516.42 83.6776Z" stroke="#620ED0" stroke-width="0.5" stroke-miterlimit="10"/>
<path d="M1505.89 69.977C1898.21 97.8786 2345.85 458.594 2252.24 867.26C2219.98 949.962 2152.62 991.23 2164.32 1015.12C2151.95 1072.6 2004.85 1128.06 1888.68 1253.37C1745.76 1407.08 1590.47 1542.75 1424.82 1488.78C1149.52 1409.25 1047.72 923.732 841.956 912.538C694.692 953.638 651.734 858.071 675.637 686.318C726.953 338.133 1052.24 51.9329 1505.89 69.977Z" stroke="#650ECE" stroke-width="0.5" stroke-miterlimit="10"/>
<path d="M1494.53 57.2806C1888.85 84.1797 2342 448.237 2244.39 856.068C2210.95 939.104 2141.42 978.868 2154.62 1000.92C2143.59 1055.39 1993.49 1108.18 1876.64 1235.16C1733.56 1390.04 1579.44 1529.21 1414.96 1477.59C1139.49 1402.07 1034.52 922.062 830.089 905.689C684.664 943.782 641.872 847.547 665.274 676.796C715.588 327.274 1041.37 40.406 1494.53 57.2806Z" stroke="#680ECD" stroke-width="0.5" stroke-miterlimit="10"/>
<path d="M1482.33 45.9171C1878.65 71.8138 2337.32 439.212 2235.86 846.374C2201.26 929.745 2129.55 968.005 2144.09 988.054C2134.23 1039.51 1981.45 1089.64 1863.61 1218.12C1720.35 1374.17 1567.41 1516.85 1404.1 1467.39C1128.63 1396.22 1020.14 921.726 817.216 900.006C673.631 934.924 631.006 838.188 654.073 668.439C703.384 317.581 1029.5 30.045 1482.33 45.9171Z" stroke="#6B0ECC" stroke-width="0.5" stroke-miterlimit="10"/>
<path d="M1468.95 35.8921C1867.12 60.6192 2331.31 431.526 2226.16 837.853C2190.39 921.391 2116.51 958.482 2132.56 976.526C2124.03 1024.98 1968.25 1072.43 1849.73 1202.41C1706.31 1359.63 1554.54 1505.82 1392.23 1458.7C1116.59 1391.71 1004.93 922.895 803.344 895.828C661.597 927.74 619.306 830.502 641.705 661.589C690.18 309.227 1016.8 21.0224 1468.95 35.8921Z" stroke="#6E0ECA" stroke-width="0.5" stroke-miterlimit="10"/>
<path d="M1454.74 27.5401C1854.91 51.2648 2324.62 425.346 2215.63 831.005C2178.69 914.877 2102.8 950.464 2120.19 966.503C2112.83 1011.95 1954.2 1056.72 1834.85 1188.38C1691.44 1346.77 1540.66 1496.63 1379.52 1451.69C1103.89 1388.87 988.884 925.57 788.632 893.324C648.724 922.228 606.601 824.322 628.665 656.578C675.97 302.379 1002.92 13.6729 1454.74 27.5401Z" stroke="#700EC9" stroke-width="0.5" stroke-miterlimit="10"/>
<path d="M1439.2 20.5212C1841.37 43.2434 2316.6 420.666 2203.6 825.657C2165.49 909.863 2087.43 944.113 2106.15 958.148C2100.13 1000.58 1938.49 1042.69 1818.47 1175.85C1674.89 1335.4 1525.29 1488.78 1365.32 1446.01C1089.51 1387.36 971.167 929.578 772.587 892.153C634.518 918.05 592.562 819.475 614.125 652.734C660.594 297.198 987.883 7.82346 1439.2 20.5212Z" stroke="#730EC7" stroke-width="0.5" stroke-miterlimit="10"/>
<path d="M1417.8 14.3412C1821.81 36.061 2302.72 416.826 2185.88 820.981C2146.43 905.521 2066.36 938.267 2086.59 950.464C2081.74 989.727 1917.43 1029.32 1796.41 1163.99C1652.65 1324.71 1504.22 1481.6 1345.42 1441.16C1069.62 1386.7 947.93 934.592 750.687 891.82C614.456 914.71 572.835 815.467 593.896 649.728C639.195 292.689 966.818 2.64595 1417.8 14.3412Z" stroke="#760EC6" stroke-width="0.5" stroke-miterlimit="10"/>
<path d="M1392.06 8.9953C1798.08 29.7126 2284.33 413.819 2163.82 817.138C2123.2 902.012 2040.96 933.256 2062.69 943.447C2059.01 979.703 1891.85 1016.63 1770.17 1152.96C1626.25 1314.86 1478.98 1475.25 1321.36 1437.15C1045.38 1386.86 920.518 940.273 724.613 892.322C590.221 912.204 548.766 812.46 569.326 647.557C613.455 289.013 941.58 -1.69752 1392.06 8.9953Z" stroke="#790EC5" stroke-width="0.5" stroke-miterlimit="10"/>
<path d="M1366.82 4.98344C1774.85 24.6983 2266.61 412.146 2142.08 814.797C2100.3 899.839 2015.88 929.912 2039.12 938.099C2036.78 971.347 1866.61 1005.6 1744.09 1143.43C1600 1306.5 1453.91 1470.57 1297.45 1434.48C1021.48 1388.37 893.104 947.455 698.703 894.158C566.15 911.033 524.862 810.62 545.088 646.72C588.381 286.672 916.84 -4.70693 1366.82 4.98344Z" stroke="#7C0EC3" stroke-width="0.5" stroke-miterlimit="10"/>
<path d="M1342.25 2.47811C1752.28 21.0235 2249.56 411.98 2121.19 813.796C2078.23 899.171 1991.81 927.741 2016.22 933.923C2015.05 964.164 1842.04 995.574 1718.85 1135.25C1574.76 1299.48 1429.67 1467.06 1274.38 1433.31C998.244 1391.21 866.693 955.977 673.629 897.333C542.914 911.201 501.961 810.12 521.518 647.222C563.976 285.671 892.769 -6.20981 1342.25 2.47811Z" stroke="#7F0EC2" stroke-width="0.5" stroke-miterlimit="10"/>
<path d="M1318.51 1.14174C1730.38 18.6846 2233.35 412.815 2101.13 813.963C2057 899.672 1968.41 926.739 1994.32 931.083C1994.49 958.316 1818.64 987.053 1694.44 1128.23C1550.19 1293.64 1406.27 1464.72 1251.99 1433.31C975.847 1395.38 840.786 965.667 649.393 901.844C520.517 912.537 479.731 811.123 498.954 649.06C540.241 286.172 869.369 -6.37665 1318.51 1.14174Z" stroke="#810EC0" stroke-width="0.5" stroke-miterlimit="10"/>
<path d="M1295.28 1.31021C1709.15 17.8507 2217.64 415.323 2081.41 815.802C2036.11 901.846 1945.34 927.575 1972.76 929.914C1974.09 954.14 1795.4 980.204 1670.54 1122.89C1526.12 1289.46 1383.37 1464.05 1230.25 1434.82C953.948 1401.07 815.711 977.03 625.656 907.86C498.618 915.546 458 813.463 476.888 652.402C517.005 287.844 846.635 -5.20573 1295.28 1.31021Z" stroke="#840EBF" stroke-width="0.5" stroke-miterlimit="10"/>
<path d="M1272.55 2.64668C1688.43 18.1847 2202.26 418.998 2062.35 818.642C2015.88 905.02 1922.95 929.246 1951.7 929.58C1954.37 950.799 1772.67 974.189 1646.97 1118.54C1502.38 1286.29 1360.8 1464.56 1208.86 1437.49C932.554 1407.92 790.974 989.393 602.256 915.044C477.057 919.723 436.773 816.971 454.993 656.913C494.442 290.851 824.405 -2.8668 1272.55 2.64668Z" stroke="#870EBD" stroke-width="0.5" stroke-miterlimit="10"/>
<path d="M1250.48 5.15077C1668.2 19.6863 2187.72 423.841 2043.96 822.65C1996.32 909.195 1901.21 932.251 1931.47 930.581C1935.31 948.792 1750.77 969.509 1624.41 1115.37C1479.65 1284.28 1339.24 1466.06 1188.47 1441.33C911.992 1415.93 767.069 1002.92 579.856 923.396C456.496 925.067 416.378 821.647 434.264 662.592C472.375 295.026 802.84 0.639736 1250.48 5.15077Z" stroke="#8A0EBC" stroke-width="0.5" stroke-miterlimit="10"/>
<path d="M1229.08 8.82695C1648.81 22.36 2173.84 429.857 2026.08 827.997C1977.27 914.876 1880.15 936.429 1911.74 932.753C1916.93 947.957 1729.38 966.001 1602.17 1113.36C1457.42 1283.44 1317.84 1468.73 1168.41 1446.18C891.934 1424.96 743.667 1017.63 557.791 932.753C436.27 931.416 396.32 827.496 413.704 669.275C451.147 300.373 781.779 5.48544 1229.08 8.82695Z" stroke="#8D0DBB" stroke-width="0.5" stroke-miterlimit="10"/>
<path d="M1208.19 13.671C1629.92 26.0346 2160.47 437.04 2008.86 834.345C1958.88 921.558 1859.59 941.607 1892.69 936.093C1899.04 948.29 1708.82 963.661 1580.78 1112.69C1435.86 1283.94 1297.45 1472.74 1149.19 1452.52C872.544 1435.48 721.102 1033.67 536.563 943.445C416.88 939.101 377.265 834.512 394.147 677.294C430.253 306.888 761.386 11.332 1208.19 13.671Z" stroke="#900DB9" stroke-width="0.5" stroke-miterlimit="10"/>
<path d="M1187.97 19.5192C1611.54 30.8803 2147.6 445.06 1992.31 841.864C1941.17 929.411 1839.7 948.123 1874.14 940.605C1881.66 949.794 1688.59 962.492 1559.72 1113.03C1414.63 1285.45 1277.39 1477.92 1130.13 1459.87C853.49 1447.01 698.537 1050.87 515.67 955.308C397.826 947.956 358.377 842.699 374.759 686.651C410.195 314.407 741.663 18.1826 1187.97 19.5192Z" stroke="#930DB8" stroke-width="0.5" stroke-miterlimit="10"/>
<path d="M1168.24 26.3714C1593.82 36.73 2135.4 454.251 1976.1 850.219C1923.78 938.101 1820.15 955.31 1856.08 945.786C1864.94 951.801 1668.87 961.993 1539.33 1114.03C1394.07 1287.62 1258 1483.6 1111.91 1467.73C835.103 1459.04 676.974 1068.42 495.444 967.673C379.439 957.315 340.325 851.556 356.204 696.343C390.471 323.097 722.44 26.0372 1168.24 26.3714Z" stroke="#950DB6" stroke-width="0.5" stroke-miterlimit="10"/>
<path d="M1149.18 34.2231C1576.77 43.5794 2123.86 464.442 1960.72 859.575C1907.23 947.624 1801.42 963.496 1838.87 952.135C1848.89 955.142 1649.98 962.493 1519.6 1116.37C1374.18 1291.13 1239.28 1490.62 1094.36 1477.09C817.55 1472.57 656.078 1087.47 475.886 981.54C361.552 968.174 322.772 861.747 338.15 707.536C371.414 332.452 703.718 35.0585 1149.18 34.2231Z" stroke="#980DB5" stroke-width="0.5" stroke-miterlimit="10"/>
<path d="M1130.63 43.0786C1560.22 51.4324 2112.83 475.636 1945.84 870.101C1891.02 958.484 1783.37 973.019 1821.98 959.486C1833.35 959.486 1631.59 964.164 1500.38 1119.54C1354.95 1295.47 1221.06 1498.47 1077.31 1487.28C800.332 1486.94 635.518 1107.51 456.829 996.243C344.334 979.702 305.721 872.774 320.765 719.566C352.859 342.979 685.664 44.7494 1130.63 43.0786Z" stroke="#9B0DB3" stroke-width="0.5" stroke-miterlimit="10"/>
<path d="M1112.58 52.5996C1544 59.7838 2102.13 487.496 1931.3 881.126C1875.3 969.843 1765.48 982.875 1805.6 967.504C1818.14 964.496 1613.54 966.501 1481.49 1123.55C1335.9 1300.65 1203.18 1507.32 1060.59 1498.13C783.617 1501.98 615.46 1128.06 438.109 1011.61C327.452 992.064 289.174 884.467 303.549 732.262C334.974 354.17 668.114 55.4399 1112.58 52.5996Z" stroke="#9E0DB2" stroke-width="0.5" stroke-miterlimit="10"/>
<path d="M1095.03 63.127C1528.46 69.3087 2092.1 500.196 1917.43 893.157C1860.26 982.208 1748.27 993.903 1789.89 976.527C1803.76 970.513 1596.16 969.844 1463.43 1128.4C1317.68 1306.67 1186.13 1516.85 1044.71 1510C767.57 1518.02 596.069 1149.62 420.389 1027.82C311.572 1005.26 273.46 897.167 287.501 745.797C317.589 366.369 651.063 66.9697 1095.03 63.127Z" stroke="#A10DB1" stroke-width="0.5" stroke-miterlimit="10"/>
<path d="M1078.14 74.1523C1513.58 79.3317 2082.74 513.56 1904.22 905.853C1845.89 995.238 1731.72 1005.43 1774.84 986.049C1789.89 977.027 1579.44 973.685 1445.88 1133.74C1299.96 1313.18 1169.58 1526.87 1029.17 1522.36C751.858 1534.56 577.181 1171.84 402.839 1044.69C295.86 1019.13 257.915 910.364 271.622 759.996C300.707 379.065 634.515 79.1646 1078.14 74.1523Z" stroke="#A40DAF" stroke-width="0.5" stroke-miterlimit="10"/>
<path d="M1061.6 85.8472C1498.87 90.024 2073.72 527.594 1891.19 919.051C1831.68 1008.6 1715.34 1017.46 1759.8 996.24C1776.02 984.211 1562.89 978.196 1428.5 1139.92C1282.41 1320.53 1153.2 1537.73 1013.96 1535.39C736.649 1551.77 558.629 1194.56 385.624 1062.23C280.484 1033.67 242.874 924.231 255.912 774.865C284.328 392.597 618.471 91.8619 1061.6 85.8472Z" stroke="#A60DAE" stroke-width="0.5" stroke-miterlimit="10"/>
<path d="M1045.72 98.3779C1485 101.552 2065.36 542.464 1878.98 933.086C1818.31 1022.97 1699.96 1030.49 1745.76 1007.1C1763.31 992.063 1547.18 983.375 1411.95 1146.61C1265.86 1328.39 1137.65 1549.26 999.584 1549.09C722.107 1569.64 540.744 1218.12 369.243 1080.45C265.942 1048.87 228.499 938.766 241.203 790.404C268.449 406.632 602.925 105.395 1045.72 98.3779Z" stroke="#A90DAC" stroke-width="0.5" stroke-miterlimit="10"/>
<path d="M1030.17 111.41C1471.46 113.582 2057.17 557.835 1867.11 947.789C1805.27 1038.01 1684.75 1044.02 1732.05 1018.8C1750.77 1000.75 1531.8 989.391 1395.9 1154.13C1249.64 1337.07 1122.61 1561.46 985.707 1563.63C708.23 1588.36 523.524 1242.34 353.361 1099.49C251.898 1064.91 214.622 954.305 226.825 806.777C253.068 421.335 588.046 119.43 1030.17 111.41Z" stroke="#AC0DAB" stroke-width="0.5" stroke-miterlimit="10"/>
<path d="M1015.3 124.944C1458.59 125.947 2049.82 573.708 1855.92 962.827C1792.9 1053.38 1670.21 1057.89 1718.85 1030.83C1738.91 1009.77 1516.93 995.741 1380.19 1162.15C1233.77 1346.26 1107.9 1574.16 972.17 1578.5C694.526 1607.4 506.644 1266.9 337.818 1118.88C238.193 1081.28 201.252 970.011 212.953 823.486C238.193 436.54 573.506 133.966 1015.3 124.944Z" stroke="#AF0DAA" stroke-width="0.5" stroke-miterlimit="10"/>
<path d="M1000.92 138.98C1446.05 138.98 2042.96 589.916 1845.05 978.366C1780.86 1069.09 1656 1072.43 1706.15 1043.19C1727.37 1019.13 1502.72 1002.26 1365.15 1170.34C1218.56 1355.62 1093.86 1587.02 959.298 1593.7C681.655 1626.79 490.262 1291.97 323.108 1138.42C225.322 1097.82 188.548 985.884 199.747 840.362C223.818 452.246 559.464 149.172 1000.92 138.98Z" stroke="#B20DA8" stroke-width="0.5" stroke-miterlimit="10"/>
<path d="M986.879 153.515C1434.02 152.512 2036.44 606.79 1834.69 994.572C1769.33 1085.63 1642.29 1087.47 1693.94 1056.39C1716.51 1029.16 1488.85 1009.78 1350.44 1179.36C1203.68 1365.81 1080.15 1600.89 946.762 1609.74C668.951 1647 474.383 1317.7 308.565 1158.97C212.619 1115.2 176.012 1002.93 186.877 858.405C209.777 468.452 545.925 164.709 986.879 153.515Z" stroke="#B50DA7" stroke-width="0.5" stroke-miterlimit="10"/>
<path d="M973.339 168.384C1422.48 166.379 2030.26 623.998 1824.82 1010.94C1758.3 1102.33 1629.25 1102.84 1682.07 1069.59C1705.81 1039.35 1475.3 1017.29 1336.23 1188.55C1189.47 1376.17 1066.95 1614.75 934.559 1625.78C656.748 1667.22 458.669 1343.42 294.356 1179.52C200.248 1132.74 163.976 1019.8 174.172 876.281C196.404 484.991 532.886 180.58 973.339 168.384Z" stroke="#B70DA5" stroke-width="0.5" stroke-miterlimit="10"/>
<path d="M960.302 183.586C1411.29 180.579 2024.74 641.539 1815.3 1027.82C1747.6 1119.54 1616.38 1118.54 1670.71 1083.45C1695.62 1050.21 1462.27 1025.48 1322.36 1198.23C1175.43 1387.03 1054.08 1629.12 922.86 1642.49C644.882 1688.1 443.627 1369.99 280.651 1200.74C188.382 1150.95 152.276 1037.34 162.139 894.825C183.367 501.864 520.351 196.952 960.302 183.586Z" stroke="#BA0DA4" stroke-width="0.5" stroke-miterlimit="10"/>
<path d="M947.597 199.126C1400.59 195.116 2019.56 659.418 1806.27 1044.86C1737.4 1136.92 1604.01 1134.41 1659.84 1097.32C1686.09 1061.07 1449.9 1033.67 1308.99 1207.93C1161.89 1397.89 1041.7 1643.49 911.658 1659.2C633.68 1708.98 429.083 1396.39 267.444 1221.96C177.013 1169.16 141.075 1054.89 150.436 913.373C170.829 519.075 508.147 213.494 947.597 199.126Z" stroke="#BD0DA2" stroke-width="0.5" stroke-miterlimit="10"/>
<path d="M935.561 214.998C1390.56 209.818 2015.05 677.629 1797.91 1062.24C1727.87 1154.46 1592.31 1150.79 1649.65 1111.69C1677.06 1072.43 1438.03 1042.35 1296.45 1218.28C1149.18 1409.42 1030.17 1658.7 901.294 1676.41C623.149 1730.37 415.208 1423.29 255.241 1243.68C166.649 1187.88 131.045 1073.1 139.904 932.419C158.793 536.618 496.445 230.369 935.561 214.998Z" stroke="#C00DA1" stroke-width="0.5" stroke-miterlimit="10"/>
<path d="M923.694 230.87C1380.53 224.688 2010.7 695.674 1789.56 1079.78C1718.18 1172.34 1580.61 1167.16 1639.28 1126.23C1668.03 1083.96 1425.99 1051.21 1283.58 1228.64C1136.15 1420.95 1018.3 1673.73 890.598 1693.78C612.452 1751.92 401.169 1450.52 242.539 1265.4C155.786 1206.59 120.349 1091.14 128.707 951.466C147.094 554.161 485.248 247.244 923.694 230.87Z" stroke="#C30DA0" stroke-width="0.5" stroke-miterlimit="10"/>
<path d="M912.496 247.076C1371.34 239.892 2006.86 714.219 1782.03 1097.49C1709.49 1190.38 1569.92 1183.7 1629.92 1140.76C1659.84 1095.48 1414.96 1060.06 1271.88 1239.17C1124.45 1432.64 1007.61 1688.94 881.07 1711.32C602.758 1773.64 388.298 1477.75 231.006 1287.45C146.091 1225.64 110.822 1109.52 118.845 970.846C135.895 572.038 474.383 264.452 912.496 247.076Z" stroke="#C60D9E" stroke-width="0.5" stroke-miterlimit="10"/>
<path d="M901.629 263.284C1362.47 255.098 2003.51 732.766 1774.85 1115.2C1701.13 1208.43 1559.38 1200.41 1620.9 1155.47C1652.15 1107.18 1404.43 1069.09 1260.34 1249.7C1112.75 1444.34 997.075 1704.14 871.541 1728.7C593.229 1795.2 375.259 1504.99 219.471 1309.34C136.395 1244.52 101.46 1127.9 108.982 990.062C125.028 589.917 463.851 281.83 901.629 263.284Z" stroke="#C90D9D" stroke-width="0.5" stroke-miterlimit="10"/>
<path d="M891.098 279.655C1353.95 270.466 2000.5 751.476 1767.82 1133.24C1692.94 1226.8 1549.02 1217.28 1611.87 1170.33C1644.3 1119.04 1393.73 1078.11 1248.98 1260.39C1101.21 1456.2 986.71 1719.68 862.347 1746.41C583.867 1817.08 362.722 1532.39 208.271 1331.56C127.033 1263.56 92.2653 1146.44 99.2858 1009.61C114.664 607.791 453.821 299.036 891.098 279.655Z" stroke="#CB0D9B" stroke-width="0.5" stroke-miterlimit="10"/>
<path d="M880.902 295.862C1345.59 285.503 1997.83 770.022 1761.31 1150.95C1685.25 1244.68 1539.16 1233.99 1603.51 1185.04C1637.28 1130.74 1383.7 1087.13 1238.11 1271.08C1090.18 1468.06 976.849 1735.05 853.656 1763.95C575.176 1838.8 350.687 1559.62 197.573 1353.62C118.175 1282.61 83.5739 1164.82 90.2601 1028.99C104.635 625.836 444.127 316.412 880.902 295.862Z" stroke="#CE0D9A" stroke-width="0.5" stroke-miterlimit="10"/>
<path d="M871.207 312.07C1337.9 300.709 1995.49 788.569 1755.29 1168.67C1678.06 1262.73 1529.8 1250.53 1595.66 1199.74C1630.59 1142.27 1374.18 1096.15 1227.92 1281.61C1079.82 1479.76 967.655 1750.25 845.632 1781.5C566.985 1860.52 339.153 1587.02 187.711 1375.67C109.984 1301.66 75.7176 1183.2 81.9023 1048.37C94.9404 643.715 434.933 333.623 871.207 312.07Z" stroke="#D10D98" stroke-width="0.5" stroke-miterlimit="10"/>
<path d="M862.014 328.274C1330.55 315.91 1993.82 806.945 1749.61 1186.37C1671.21 1280.77 1520.94 1267.07 1588.13 1214.27C1624.24 1153.79 1365.15 1105.01 1217.89 1291.96C1069.62 1491.28 958.629 1765.29 837.776 1798.87C559.129 1882.07 327.954 1614.09 177.849 1397.56C101.961 1320.53 68.0288 1201.58 73.5449 1067.75C85.7472 661.422 426.074 350.829 862.014 328.274Z" stroke="#D40C97" stroke-width="0.5" stroke-miterlimit="10"/>
<path d="M852.988 344.149C1323.53 330.783 1992.31 825.158 1744.26 1203.92C1664.69 1298.65 1512.25 1283.61 1580.78 1228.81C1618.22 1165.32 1356.12 1113.86 1208.19 1302.49C1059.93 1503.15 949.938 1780.66 830.255 1816.25C551.441 1903.63 316.923 1641.15 168.322 1419.28C94.2728 1339.25 60.5075 1219.62 65.6893 1086.63C76.8886 679.135 417.55 367.873 852.988 344.149Z" stroke="#D70C96" stroke-width="0.5" stroke-miterlimit="10"/>
<path d="M844.464 359.851C1317.01 345.483 1991.31 843.2 1739.41 1221.12C1658.67 1316.19 1504.06 1299.65 1574.09 1242.84C1612.71 1176.35 1347.77 1122.22 1199 1312.35C1050.57 1514.17 941.748 1795.19 823.236 1833.12C544.254 1924.68 306.56 1667.88 159.297 1440.66C87.0863 1357.62 53.6554 1237.33 58.3357 1105.51C68.365 696.508 409.361 384.578 844.464 359.851Z" stroke="#DA0C94" stroke-width="0.5" stroke-miterlimit="10"/>
<path d="M836.103 375.389C1310.66 360.018 1990.47 861.077 1734.56 1238.33C1652.65 1333.57 1495.86 1315.69 1567.41 1257.04C1607.36 1187.54 1339.41 1130.74 1189.97 1322.37C1041.37 1525.37 933.722 1809.9 816.212 1850.16C537.231 1945.9 296.194 1694.62 150.268 1462.21C79.8956 1376.17 46.6318 1255.21 50.8107 1124.39C60.1713 713.716 401.668 401.118 836.103 375.389Z" stroke="#DC0C93" stroke-width="0.5" stroke-miterlimit="10"/>
<path d="M828.249 390.593C1304.64 374.052 1989.97 878.62 1730.38 1255.04C1647.31 1350.61 1488.34 1331.39 1561.22 1270.75C1602.34 1198.23 1331.72 1138.76 1181.28 1332.06C1032.51 1536.23 926.034 1824.27 809.694 1866.7C530.546 1966.61 286.166 1721.01 141.911 1483.26C73.3778 1394.21 40.2812 1272.75 44.1257 1142.77C52.3163 730.591 394.148 417.492 828.249 390.593Z" stroke="#DF0C91" stroke-width="0.5" stroke-miterlimit="10"/>
<path d="M820.728 405.466C1299.12 387.923 1989.98 895.832 1726.54 1271.58C1642.29 1367.49 1481.32 1346.77 1555.54 1284.11C1598 1208.6 1324.37 1146.44 1173.26 1341.25C1024.32 1546.59 919.015 1838.3 803.845 1882.91C524.697 1987 276.974 1746.91 134.056 1503.99C67.3618 1411.93 34.5994 1289.8 37.7754 1160.81C44.7959 747.135 387.129 433.367 820.728 405.466Z" stroke="#E20C90" stroke-width="0.5" stroke-miterlimit="10"/>
<path d="M813.373 419.999C1293.78 401.454 1990.14 912.537 1722.86 1287.62C1637.45 1383.86 1474.3 1361.8 1550.02 1297.14C1593.65 1218.62 1317.18 1153.63 1165.23 1350.27C1016.3 1556.78 911.994 1852 797.995 1898.95C518.679 2007.21 267.78 1772.64 126.2 1524.53C61.3437 1429.3 28.7485 1306.67 31.5902 1178.69C37.6077 763.171 380.275 448.736 813.373 419.999Z" stroke="#E50C8F" stroke-width="0.5" stroke-miterlimit="10"/>
<path d="M806.519 433.868C1288.93 414.32 1990.81 928.745 1719.52 1302.99C1632.76 1399.56 1467.62 1376.01 1544.84 1309.34C1589.64 1227.81 1310.32 1160.14 1157.71 1358.3C1008.61 1565.97 905.474 1864.7 792.645 1913.82C513.329 2026.26 258.92 1797.37 118.844 1543.75C55.827 1445.51 23.5661 1322.37 25.9063 1195.23C30.7538 778.879 373.922 463.942 806.519 433.868Z" stroke="#E80C8D" stroke-width="0.5" stroke-miterlimit="10"/>
<path d="M800 447.398C1284.25 426.848 1991.65 944.614 1716.68 1318.19C1628.75 1414.93 1461.43 1390.04 1539.99 1321.54C1586.13 1237 1303.97 1166.66 1150.36 1366.31C1001.09 1575.16 899.122 1877.4 787.463 1928.85C507.98 2045.47 250.395 1822.09 111.656 1563.29C50.4778 1462.05 18.3841 1338.24 20.2228 1212.1C24.2345 794.079 367.737 478.474 800 447.398Z" stroke="#EB0C8C" stroke-width="0.5" stroke-miterlimit="10"/>
<path d="M793.647 460.432C1279.9 438.879 1992.81 959.987 1714 1332.73C1624.91 1429.8 1455.41 1403.57 1535.48 1333.07C1582.78 1245.52 1297.79 1172.51 1143.5 1373.83C994.065 1583.85 893.271 1889.76 782.615 1943.39C503.132 2064.19 242.036 1846.32 104.97 1582.34C45.6296 1478.09 13.7031 1353.62 15.2075 1228.48C18.0491 808.617 361.886 492.343 793.647 460.432Z" stroke="#ED0C8A" stroke-width="0.5" stroke-miterlimit="10"/>
<path d="M787.631 472.796C1275.89 450.074 1994.32 974.69 1711.49 1346.6C1621.23 1444 1449.73 1416.27 1531.13 1343.76C1579.78 1253.04 1291.77 1177.52 1136.65 1380.35C987.046 1591.53 887.422 1900.96 777.936 1956.76C498.286 2081.73 234.014 1869.54 98.2846 1600.22C40.7834 1492.96 9.19114 1367.82 10.0269 1243.68C12.0328 822.651 356.372 505.71 787.631 472.796Z" stroke="#F00C89" stroke-width="0.5" stroke-miterlimit="10"/>
<path d="M781.945 484.492C1272.04 460.767 1996.16 988.558 1709.49 1359.97C1618.05 1457.71 1444.38 1428.47 1527.12 1354.12C1576.93 1260.39 1286.08 1182.2 1130.3 1386.53C980.692 1598.88 882.071 1911.82 773.755 1969.96C494.105 2098.94 226.49 1892.43 92.0977 1617.93C36.4352 1507.66 5.01006 1382.02 5.51153 1258.72C6.51445 836.018 351.02 518.575 781.945 484.492Z" stroke="#F30C87" stroke-width="0.5" stroke-miterlimit="10"/>
<path d="M1707.65 1372.33C1615.05 1470.23 1439.2 1439.83 1523.45 1363.31C1574.59 1266.57 1280.9 1185.7 1124.11 1391.71C974.342 1605.23 876.891 1921.67 769.745 1982.15C376.597 2169.28 1 1696.79 1 1272.75C1 848.714 346.007 530.602 776.431 495.349C1268.53 470.622 1998.16 1001.92 1707.65 1372.33Z" stroke="#F60C86" stroke-width="0.5" stroke-miterlimit="10"/>
</svg>
