<svg width="1680" height="720" viewBox="0 0 1680 720" fill="none" xmlns="http://www.w3.org/2000/svg">
<mask id="mask0" mask-type="alpha" maskUnits="userSpaceOnUse" x="0" y="0" width="1680" height="720">
<rect width="1680" height="720" rx="60" fill="url(#paint0_linear)"/>
</mask>
<g mask="url(#mask0)">
<g opacity="0.5">
<path d="M1260.45 607.488C1305.08 1001.62 943.522 1297.17 523.797 1316.22C93.3733 1328.58 -247.622 1005.63 -251.133 581.424C-246.452 154.213 140.344 -532.132 759.318 -333.146C997.68 -235.239 1179.88 -55.2995 1190.24 175.431C1191.75 312.6 1234.54 459.627 1260.45 607.488Z" stroke="#F60C86" stroke-width="0.5" stroke-miterlimit="10"/>
<path d="M1266.8 603.812C1310.59 998.11 949.039 1295.67 529.648 1311.38C101.397 1321.07 -235.587 994.1 -242.106 577.08C-240.1 157.053 141.18 -521.273 752.298 -327.632C988.487 -235.24 1172.52 -61.1473 1188.91 167.245C1194.92 303.745 1241.23 452.275 1266.8 603.812Z" stroke="#F30C87" stroke-width="0.5" stroke-miterlimit="10"/>
<path d="M1273.82 599.303C1316.78 993.934 955.393 1293.33 536.169 1305.86C109.924 1313.05 -222.714 982.072 -232.409 572.237C-232.91 159.394 142.519 -510.912 746.115 -322.451C980.299 -235.405 1166.01 -67.1603 1188.24 158.558C1198.77 293.722 1248.58 444.09 1273.82 599.303Z" stroke="#F00C89" stroke-width="0.5" stroke-miterlimit="10"/>
<path d="M1281.68 593.787C1323.97 988.586 962.578 1289.99 543.521 1299.35C119.282 1303.86 -209.009 969.038 -221.88 566.386C-225.056 160.727 144.69 -501.726 740.597 -318.444C972.607 -236.745 1160.16 -74.5145 1188.4 148.865C1203.28 282.86 1256.6 434.898 1281.68 593.787Z" stroke="#ED0C8A" stroke-width="0.5" stroke-miterlimit="10"/>
<path d="M1290.04 587.439C1331.49 982.405 970.27 1285.81 551.38 1291.83C129.314 1293.83 -194.799 955.004 -210.846 559.37C-216.529 160.896 147.367 -493.538 735.584 -315.436C965.422 -239.082 1154.64 -82.8671 1188.91 138.006C1208.63 271.165 1265.3 424.875 1290.04 587.439Z" stroke="#EB0C8C" stroke-width="0.5" stroke-miterlimit="10"/>
<path d="M1299.23 580.257C1339.85 975.557 978.627 1280.8 560.071 1283.64C140.012 1282.98 -179.922 940.137 -198.978 551.854C-207.336 160.397 150.877 -486.017 731.405 -313.094C959.237 -242.087 1150.13 -91.7197 1190.41 126.648C1214.48 258.47 1274.83 414.017 1299.23 580.257Z" stroke="#E80C8D" stroke-width="0.5" stroke-miterlimit="10"/>
<path d="M1308.92 572.402C1348.87 967.869 987.652 1275.12 569.264 1274.62C151.377 1271.44 -164.378 924.596 -186.61 543.498C-197.475 159.225 154.888 -479.17 727.894 -311.593C953.553 -245.933 1146.28 -101.58 1192.42 114.449C1221 245.269 1284.69 402.486 1308.92 572.402Z" stroke="#E50C8F" stroke-width="0.5" stroke-miterlimit="10"/>
<path d="M1319.12 563.715C1358.23 959.349 997.18 1268.61 578.959 1264.93C163.078 1259.08 -148.331 908.391 -173.739 534.31C-187.278 157.221 159.4 -473.321 724.718 -310.757C948.204 -250.61 1142.77 -112.104 1194.92 101.418C1228.02 231.068 1295.22 390.124 1319.12 563.715Z" stroke="#E20C90" stroke-width="0.5" stroke-miterlimit="10"/>
<path d="M1329.82 554.19C1368.1 949.991 1007.21 1261.25 589.324 1254.4C175.449 1246.05 -131.614 891.348 -160.198 524.451C-176.245 154.546 164.751 -467.976 722.212 -310.758C943.525 -255.958 1139.76 -123.3 1198.1 87.7161C1235.54 216.364 1306.42 376.923 1329.82 554.19Z" stroke="#DF0C91" stroke-width="0.5" stroke-miterlimit="10"/>
<path d="M1341.02 544.167C1378.63 940.303 1017.57 1253.4 600.022 1243.21C188.32 1232.35 -114.732 873.473 -146.324 513.927C-165.045 151.206 170.267 -463.464 720.039 -311.258C939.346 -261.804 1137.26 -135.161 1201.44 73.5162C1243.4 200.828 1317.78 363.225 1341.02 544.167Z" stroke="#DC0C93" stroke-width="0.5" stroke-miterlimit="10"/>
<path d="M1352.72 533.64C1389.49 929.943 1028.6 1245.05 611.219 1231.68C201.523 1218.15 -97.1826 855.427 -131.951 502.898C-153.347 147.362 176.282 -459.288 718.365 -312.429C935.499 -268.321 1135.25 -147.693 1205.45 58.4782C1251.92 184.954 1329.82 349.022 1352.72 533.64Z" stroke="#DA0C94" stroke-width="0.5" stroke-miterlimit="10"/>
<path d="M1364.59 522.448C1400.53 918.917 1039.81 1236.03 622.587 1219.32C214.897 1203.28 -79.4628 836.549 -117.407 491.204C-141.31 142.685 182.469 -455.945 717.029 -314.098C931.99 -275.337 1133.58 -160.556 1209.63 43.1086C1260.62 168.248 1342.02 334.154 1364.59 522.448Z" stroke="#D70C96" stroke-width="0.5" stroke-miterlimit="10"/>
<path d="M1376.96 510.754C1412.23 907.557 1051.34 1226.5 634.454 1206.62C228.937 1187.91 -61.2437 817.337 -102.364 479.177C-128.941 137.842 189.154 -452.769 716.026 -316.269C928.814 -283.021 1132.24 -174.088 1214.31 27.0709C1269.81 151.208 1354.72 318.784 1376.96 510.754Z" stroke="#D40C97" stroke-width="0.5" stroke-miterlimit="10"/>
<path d="M1389.66 498.724C1424.09 895.695 1063.37 1216.65 646.657 1193.59C243.145 1172.37 -42.8565 797.621 -86.9853 466.645C-116.07 132.495 196.175 -450.096 715.357 -318.775C926.139 -290.874 1131.07 -187.955 1219.16 10.8641C1279.34 133.832 1367.6 303.079 1389.66 498.724Z" stroke="#D10D98" stroke-width="0.5" stroke-miterlimit="10"/>
<path d="M1402.53 486.194C1436.13 883.332 1075.58 1206.29 659.026 1179.89C257.688 1156 -24.135 777.406 -71.4398 453.614C-103.199 126.648 203.363 -448.091 714.856 -321.949C923.465 -299.394 1130.24 -202.324 1224.34 -6.0101C1288.87 115.955 1380.8 286.873 1402.53 486.194Z" stroke="#CE0D9A" stroke-width="0.5" stroke-miterlimit="10"/>
<path d="M1415.57 473.326C1448.33 870.631 1087.94 1195.59 671.562 1166.02C272.229 1139.62 -5.24755 757.02 -55.7283 440.245C-89.995 120.463 210.883 -446.256 714.688 -325.461C921.124 -308.252 1129.73 -217.196 1229.86 -23.3888C1298.89 97.7408 1394.17 270.329 1415.57 473.326Z" stroke="#CB0D9B" stroke-width="0.5" stroke-miterlimit="10"/>
<path d="M1428.94 460.294C1461.04 857.933 1100.48 1184.73 684.603 1151.82C287.276 1122.75 14.145 736.302 -39.5116 426.711C-76.62 114.114 218.575 -444.586 714.69 -328.97C918.953 -317.108 1129.4 -232.066 1235.38 -40.5982C1308.93 79.1948 1407.88 253.621 1428.94 460.294Z" stroke="#C90D9D" stroke-width="0.5" stroke-miterlimit="10"/>
<path d="M1442.32 446.931C1473.57 844.737 1113.19 1173.54 697.474 1137.45C302.153 1105.88 33.201 715.421 -23.6316 413.015C-63.2473 107.434 226.265 -443.246 714.691 -332.809C916.948 -326.46 1128.9 -247.1 1241.06 -58.1374C1319.12 60.4861 1421.42 236.583 1442.32 446.931Z" stroke="#C60D9E" stroke-width="0.5" stroke-miterlimit="10"/>
<path d="M1455.68 433.395C1486.11 831.368 1125.89 1162.18 710.341 1122.91C317.194 1088.66 52.4204 694.199 -7.42101 398.977C-49.544 100.581 234.118 -442.247 714.855 -336.822C914.939 -335.82 1128.73 -262.474 1246.74 -76.0178C1329.32 41.6032 1435.29 219.371 1455.68 433.395Z" stroke="#C30DA0" stroke-width="0.5" stroke-miterlimit="10"/>
<path d="M1469.23 419.696C1498.98 818.003 1138.59 1150.65 723.382 1108.05C332.24 1071.29 71.8125 672.815 8.79522 384.777C-36.0022 93.7319 241.976 -441.243 715.024 -340.998C912.935 -345.342 1128.56 -278.01 1252.59 -93.8936C1339.68 22.5579 1449 201.997 1469.23 419.696Z" stroke="#C00DA1" stroke-width="0.5" stroke-miterlimit="10"/>
<path d="M1482.76 405.996C1511.68 804.47 1151.46 1139.12 736.419 1093.34C347.45 1054.08 91.2021 651.596 25.0089 370.743C-22.2959 86.7148 249.832 -440.241 715.358 -345.175C911.096 -354.865 1128.56 -293.381 1258.44 -111.938C1349.88 3.34423 1462.87 184.621 1482.76 405.996Z" stroke="#BD0DA2" stroke-width="0.5" stroke-miterlimit="10"/>
<path d="M1496.14 392.294C1524.22 790.936 1164.17 1127.59 749.289 1078.47C362.326 1036.54 110.256 630.21 41.0542 356.373C-8.75789 79.5296 257.687 -439.406 715.356 -349.52C909.089 -364.556 1128.23 -309.088 1264.13 -129.983C1360.24 -15.7034 1476.58 167.244 1496.14 392.294Z" stroke="#BA0DA4" stroke-width="0.5" stroke-miterlimit="10"/>
<path d="M1509.51 378.428C1536.92 777.236 1176.87 1115.9 762.161 1063.6C377.371 1019.16 129.48 608.657 57.1022 342.172C4.61559 72.5129 265.377 -438.403 715.525 -353.863C907.084 -374.246 1127.9 -324.792 1269.98 -148.027C1370.27 -34.9166 1490.29 149.702 1509.51 378.428Z" stroke="#B70DA5" stroke-width="0.5" stroke-miterlimit="10"/>
<path d="M1522.88 364.729C1549.46 763.871 1189.41 1104.37 775.033 1048.9C392.249 1001.79 148.704 587.44 73.1504 328.139C17.9894 65.4968 273.067 -437.4 715.359 -358.039C904.745 -383.936 1127.4 -340.162 1275.33 -166.069C1380.3 -53.9619 1503.83 132.327 1522.88 364.729Z" stroke="#B50DA7" stroke-width="0.5" stroke-miterlimit="10"/>
<path d="M1535.92 352.366C1561.66 751.676 1201.78 1094.18 787.734 1035.37C406.955 985.748 167.757 567.392 89.0273 315.108C31.1917 59.8175 280.419 -435.059 715.189 -360.878C902.569 -392.121 1126.89 -354.362 1280.84 -182.609C1390.16 -71.6707 1517.2 116.289 1535.92 352.366Z" stroke="#B20DA8" stroke-width="0.5" stroke-miterlimit="10"/>
<path d="M1548.79 341.336C1573.86 740.813 1213.98 1085.32 800.103 1023.34C421.497 971.043 186.311 548.844 104.572 303.744C44.2294 55.4704 287.774 -431.554 714.854 -362.552C900.061 -399.141 1126.22 -367.397 1286.02 -198.15C1399.85 -88.2143 1530.4 101.583 1548.79 341.336Z" stroke="#AF0DAA" stroke-width="0.5" stroke-miterlimit="10"/>
<path d="M1561.33 330.646C1585.56 730.457 1225.68 1076.8 812.139 1011.48C435.539 956.677 204.699 530.301 119.784 292.553C56.7667 51.4634 294.628 -427.541 714.019 -363.886C897.053 -405.821 1124.89 -379.925 1290.87 -213.184C1409.22 -104.418 1543.27 87.2175 1561.33 330.646Z" stroke="#AC0DAB" stroke-width="0.5" stroke-miterlimit="10"/>
<path d="M1573.53 320.455C1596.93 720.433 1237.21 1068.78 823.841 1000.28C449.414 942.81 222.752 512.591 134.661 281.861C69.1368 47.9552 301.148 -423.197 712.85 -364.554C893.711 -411.836 1123.38 -391.954 1295.22 -227.552C1418.41 -119.955 1555.81 73.3506 1573.53 320.455Z" stroke="#A90DAC" stroke-width="0.5" stroke-miterlimit="10"/>
<path d="M1585.56 310.764C1608.3 710.909 1248.58 1061.27 835.373 989.59C462.953 929.61 240.637 495.382 149.37 271.835C81.1713 45.114 307.499 -418.019 711.512 -364.722C890.367 -417.517 1121.71 -403.483 1299.56 -241.587C1427.1 -134.993 1568.18 59.9837 1585.56 310.764Z" stroke="#A60DAE" stroke-width="0.5" stroke-miterlimit="10"/>
<path d="M1597.1 301.741C1619 702.053 1259.45 1054.41 846.406 979.398C475.992 916.911 257.855 478.673 163.579 262.311C92.873 42.6068 313.517 -412.506 709.841 -364.389C886.523 -422.531 1119.7 -414.511 1303.57 -254.954C1435.46 -149.53 1580.05 47.1178 1597.1 301.741Z" stroke="#A40DAF" stroke-width="0.5" stroke-miterlimit="10"/>
<path d="M1608.3 293.221C1629.36 693.867 1269.81 1048.07 857.106 969.876C488.865 904.716 274.907 462.468 177.456 253.29C104.075 40.7703 319.035 -406.323 707.67 -363.385C882.18 -426.873 1117.2 -424.701 1306.92 -267.651C1443.49 -163.229 1591.42 35.0897 1608.3 293.221Z" stroke="#A10DB1" stroke-width="0.5" stroke-miterlimit="10"/>
<path d="M1619 285.368C1639.39 686.181 1279.84 1042.39 867.302 960.853C501.066 893.188 291.454 446.929 190.827 244.936C114.939 39.7671 324.049 -399.474 704.995 -361.715C877.332 -430.55 1114.02 -434.392 1309.93 -279.848C1450.84 -176.428 1602.45 23.5608 1619 285.368Z" stroke="#9E0DB2" stroke-width="0.5" stroke-miterlimit="10"/>
<path d="M1629.19 278.35C1648.75 679.331 1289.37 1037.54 877.162 952.833C512.932 882.494 307.666 432.394 203.863 237.584C125.3 39.4325 328.728 -391.789 701.984 -359.209C872.315 -433.39 1110.68 -443.248 1312.43 -291.042C1457.86 -188.959 1612.98 12.8676 1629.19 278.35Z" stroke="#9B0DB3" stroke-width="0.5" stroke-miterlimit="10"/>
<path d="M1638.72 272.002C1657.44 673.317 1298.06 1033.36 886.191 945.483C524.134 872.638 322.88 418.527 216.068 230.735C134.998 39.7679 332.575 -383.601 698.309 -356.033C866.467 -435.728 1106.67 -451.266 1314.44 -301.734C1464.38 -200.821 1622.84 2.84411 1638.72 272.002Z" stroke="#980DB5" stroke-width="0.5" stroke-miterlimit="10"/>
<path d="M1647.75 266.319C1665.8 667.801 1306.42 1029.85 894.714 938.63C534.663 863.112 337.754 404.992 227.767 224.551C144.022 40.7679 335.916 -374.581 693.961 -352.36C859.946 -437.402 1101.99 -458.954 1315.61 -311.761C1470.06 -211.683 1632.2 -6.51444 1647.75 266.319Z" stroke="#950DB6" stroke-width="0.5" stroke-miterlimit="10"/>
<path d="M1656.27 261.641C1673.49 663.29 1314.27 1027.35 902.739 932.95C544.861 854.925 352.132 392.795 238.968 219.538C152.549 42.7728 338.759 -364.557 689.116 -347.348C852.927 -437.736 1096.64 -465.303 1316.45 -320.449C1475.24 -221.874 1640.89 -15.0352 1656.27 261.641Z" stroke="#930DB8" stroke-width="0.5" stroke-miterlimit="10"/>
<path d="M1663.96 257.634C1680.34 659.45 1321.3 1025.51 909.927 927.773C554.055 847.075 365.672 381.102 249.332 214.862C160.406 45.2811 340.766 -354.029 683.433 -342.166C845.239 -437.9 1090.62 -471.316 1316.45 -329.135C1479.76 -231.228 1648.92 -22.5514 1663.96 257.634Z" stroke="#900DB9" stroke-width="0.5" stroke-miterlimit="10"/>
<path d="M1670.98 254.626C1686.69 656.776 1327.48 1024.68 916.445 923.762C562.578 840.559 378.374 370.576 259.025 211.521C167.424 49.1235 342.268 -342.167 677.079 -335.651C836.712 -436.731 1083.93 -476.161 1315.61 -336.319C1483.6 -239.582 1656.27 -29.2347 1670.98 254.626Z" stroke="#8D0DBB" stroke-width="0.5" stroke-miterlimit="10"/>
<path d="M1677.17 252.453C1692.04 654.77 1333 1024.67 922.129 920.42C570.436 834.543 390.41 360.551 267.886 208.846C173.778 53.6333 342.771 -329.804 670.06 -328.301C827.52 -434.728 1076.58 -480.172 1314.27 -342.669C1486.61 -247.102 1662.79 -35.0836 1677.17 252.453Z" stroke="#8A0EBC" stroke-width="0.5" stroke-miterlimit="10"/>
<path d="M1682.68 251.451C1696.72 653.935 1337.84 1025.84 927.143 918.415C577.456 830.032 401.776 352.03 276.076 207.343C179.293 59.3142 342.603 -316.104 662.203 -319.947C817.49 -431.887 1068.39 -483.012 1311.93 -348.182C1488.95 -253.618 1668.47 -39.7614 1682.68 251.451Z" stroke="#870EBD" stroke-width="0.5" stroke-miterlimit="10"/>
<path d="M1687.19 251.284C1700.57 654.102 1341.52 1027.85 931.321 917.246C583.639 826.357 412.306 344.345 283.429 206.842C184.139 65.9974 341.599 -301.568 653.51 -310.423C806.791 -427.71 1059.19 -484.85 1308.92 -352.359C1490.29 -259.131 1673.49 -43.604 1687.19 251.284Z" stroke="#840EBF" stroke-width="0.5" stroke-miterlimit="10"/>
<path d="M1690.87 252.288C1703.41 655.273 1344.53 1031.03 934.497 917.08C588.988 823.518 421.666 337.663 289.781 207.344C187.816 73.5171 339.593 -285.862 643.814 -300.063C794.922 -422.696 1049.16 -485.851 1304.74 -355.866C1490.79 -263.474 1677.5 -46.2758 1690.87 252.288Z" stroke="#810EC0" stroke-width="0.5" stroke-miterlimit="10"/>
<path d="M1693.71 254.459C1705.41 657.612 1346.7 1035.37 936.836 918.249C593.333 822.181 430.358 332.149 295.297 209.015C190.825 82.3718 336.751 -269.154 633.45 -288.368C782.385 -416.348 1038.47 -485.35 1300.06 -357.871C1490.45 -266.815 1680.51 -47.9468 1693.71 254.459Z" stroke="#7F0EC2" stroke-width="0.5" stroke-miterlimit="10"/>
<path d="M1695.55 257.633C1706.59 660.952 1347.87 1040.71 938.175 920.253C596.845 821.511 438.048 327.637 299.811 211.687C192.665 92.2281 332.908 -251.279 621.918 -275.839C768.847 -409.165 1026.6 -484.182 1294.21 -359.042C1489.12 -268.989 1682.68 -48.2822 1695.55 257.633Z" stroke="#7C0EC3" stroke-width="0.5" stroke-miterlimit="10"/>
<path d="M1696.39 261.977C1706.59 665.631 1347.87 1047.23 938.511 923.595C599.187 822.348 444.736 324.464 303.323 215.698C193.502 103.423 328.229 -232.064 609.383 -261.803C754.139 -400.643 1013.56 -481.507 1287.2 -358.874C1486.61 -269.99 1683.85 -47.613 1696.39 261.977Z" stroke="#790EC5" stroke-width="0.5" stroke-miterlimit="10"/>
<path d="M1696.22 267.657C1705.58 671.477 1347.03 1055.08 937.839 928.272C600.521 824.351 450.249 322.624 305.827 220.875C193.499 115.785 322.375 -211.849 595.84 -246.768C738.423 -390.954 999.686 -477.666 1279.34 -357.539C1483.26 -269.657 1683.85 -45.6096 1696.22 267.657Z" stroke="#760EC6" stroke-width="0.5" stroke-miterlimit="10"/>
<path d="M1694.72 275.176C1703.24 679.164 1344.86 1064.77 935.834 934.622C600.688 828.195 454.595 322.458 306.998 227.894C191.995 129.988 315.188 -189.794 580.964 -229.725C721.374 -379.258 984.476 -471.985 1269.98 -354.364C1478.58 -267.651 1682.68 -41.7657 1694.72 275.176Z" stroke="#730EC7" stroke-width="0.5" stroke-miterlimit="10"/>
<path d="M1691.21 288.877C1699.06 693.199 1340.68 1080.65 931.824 947.32C598.685 838.22 456.938 328.474 306.164 241.26C188.654 150.371 305.997 -161.224 564.251 -206.501C702.655 -361.38 967.428 -460.122 1258.95 -344.84C1471.9 -259.297 1679.67 -31.7406 1691.21 288.877Z" stroke="#700EC9" stroke-width="0.5" stroke-miterlimit="10"/>
<path d="M1689.87 301.575C1696.89 706.064 1338.51 1095.52 929.985 958.849C599.019 847.243 461.45 333.487 307.501 253.291C187.317 169.586 298.976 -133.99 549.541 -184.614C685.772 -344.839 952.384 -449.428 1249.75 -336.652C1467.39 -251.945 1678.5 -22.7177 1689.87 301.575Z" stroke="#6E0ECA" stroke-width="0.5" stroke-miterlimit="10"/>
<path d="M1690.54 312.936C1696.72 717.593 1338.51 1109.05 930.319 969.208C601.359 854.929 467.969 337.329 311.011 264.317C188.319 187.797 294.128 -107.926 537.004 -163.562C671.062 -329.301 939.345 -439.738 1242.9 -329.468C1464.88 -246.097 1679.51 -15.1994 1690.54 312.936Z" stroke="#6B0ECC" stroke-width="0.5" stroke-miterlimit="10"/>
<path d="M1693.21 322.293C1698.73 727.117 1340.52 1120.58 932.491 977.563C605.536 860.777 476.493 339.168 316.358 273.34C190.992 204.004 291.118 -83.6997 526.305 -144.682C658.19 -315.767 928.312 -432.219 1237.72 -324.288C1464.21 -241.92 1682.51 -9.3513 1693.21 322.293Z" stroke="#680ECD" stroke-width="0.5" stroke-miterlimit="10"/>
<path d="M1697.89 329.477C1702.57 734.634 1344.36 1129.93 936.672 983.576C611.89 864.284 487.025 338.499 323.715 279.855C195.675 217.703 290.284 -62.1476 517.615 -128.142C647.494 -304.574 919.287 -426.873 1234.71 -321.448C1465.72 -240.25 1687.53 -5.84333 1697.89 329.477Z" stroke="#650ECE" stroke-width="0.5" stroke-miterlimit="10"/>
<path d="M1704.75 333.986C1708.59 739.311 1350.55 1136.62 943.022 987.084C620.246 865.119 499.561 335.49 333.242 284.031C202.694 229.063 291.453 -42.7683 511.262 -114.109C638.968 -295.887 912.6 -424.201 1234.04 -321.283C1469.39 -241.087 1694.55 -5.00939 1704.75 333.986Z" stroke="#620ED0" stroke-width="0.5" stroke-miterlimit="10"/>
<path d="M1713.61 335.322C1716.78 740.813 1358.74 1140.12 951.381 987.249C630.612 862.778 514.272 329.14 344.777 284.865C211.555 236.914 294.631 -26.8976 506.75 -103.251C632.283 -290.375 907.587 -424.704 1235.04 -324.124C1475.08 -245.098 1703.75 -7.34977 1713.61 335.322Z" stroke="#5F0ED1" stroke-width="0.5" stroke-miterlimit="10"/>
<path d="M1724.64 333.15C1726.98 738.976 1369.1 1140.12 961.909 984.075C643.313 856.931 531.152 319.45 358.481 282.192C222.751 241.426 299.977 -14.3664 504.407 -96.0662C627.767 -288.537 904.91 -428.713 1238.38 -330.807C1482.76 -252.616 1715.11 -13.1968 1724.64 333.15Z" stroke="#5D0ED3" stroke-width="0.5" stroke-miterlimit="10"/>
<path d="M1737.68 327.136C1739.18 733.129 1381.3 1136.28 974.448 977.059C657.857 847.408 550.043 305.75 374.196 275.844C235.792 242.262 307.334 -5.67807 504.075 -92.3901C625.429 -290.374 904.243 -436.398 1243.57 -340.831C1492.63 -264.143 1728.48 -23.0539 1737.68 327.136Z" stroke="#5A0ED4" stroke-width="0.5" stroke-miterlimit="10"/>
<path d="M1752.89 316.609C1753.72 722.769 1395.85 1127.93 989.158 965.362C674.74 833.039 570.937 287.538 392.081 264.816C251.17 238.418 316.862 -1.50218 506.081 -93.5607C625.262 -296.891 905.915 -448.93 1251.26 -355.702C1504.66 -280.017 1744.03 -37.2562 1752.89 316.609Z" stroke="#570ED6" stroke-width="0.5" stroke-miterlimit="10"/>
<path d="M1767.77 303.245C1767.77 709.572 1410.05 1116.73 1003.7 950.995C691.289 816.166 591.832 266.655 409.8 250.95C266.214 231.737 326.223 -0.331002 507.753 -97.4017C624.761 -306.079 907.253 -464.132 1258.44 -373.41C1516.36 -298.895 1759.07 -54.1293 1767.77 303.245Z" stroke="#540ED7" stroke-width="0.5" stroke-miterlimit="10"/>
<path d="M1777.79 292.051C1776.96 698.712 1419.25 1107.71 1013.23 938.632C702.821 801.129 607.71 247.776 422.503 239.255C276.41 227.226 330.568 3.1777 504.409 -99.2394C619.411 -313.263 903.407 -477.164 1260.78 -388.948C1523.22 -315.435 1769.44 -69.1659 1777.79 292.051Z" stroke="#510ED8" stroke-width="0.5" stroke-miterlimit="10"/>
<path d="M1784.81 282.192C1783.31 689.021 1425.6 1100.03 1019.75 927.771C711.514 787.762 620.582 230.232 432.199 229.062C283.431 224.05 332.073 8.18895 498.058 -99.5746C610.887 -318.944 896.722 -488.86 1260.12 -403.15C1527.06 -330.64 1776.79 -82.5329 1784.81 282.192Z" stroke="#4E0EDA" stroke-width="0.5" stroke-miterlimit="10"/>
<path d="M1789.16 273.839C1786.82 680.834 1429.28 1093.84 1023.59 918.415C717.364 775.9 630.611 214.36 439.219 220.208C287.777 222.38 330.735 14.371 489.031 -98.4048C599.687 -323.288 887.361 -499.051 1256.61 -415.681C1528.23 -344.34 1781.47 -94.7291 1789.16 273.839Z" stroke="#4B0EDB" stroke-width="0.5" stroke-miterlimit="10"/>
<path d="M1791 266.488C1787.82 673.817 1430.45 1088.67 1024.93 909.895C720.708 764.706 638.301 199.323 443.733 212.355C289.783 221.711 326.892 21.7224 477.665 -96.3998C586.149 -326.629 875.661 -508.24 1250.92 -427.376C1526.73 -357.037 1783.48 -105.589 1791 266.488Z" stroke="#490EDD" stroke-width="0.5" stroke-miterlimit="10"/>
<path d="M1790.5 260.14C1786.65 667.637 1429.11 1084.49 1023.92 902.545C721.875 754.85 643.647 185.458 445.903 205.507C289.279 222.047 320.704 29.9105 463.788 -93.224C570.266 -328.8 861.282 -516.426 1242.56 -438.067C1523.05 -368.731 1783.47 -115.612 1790.5 260.14Z" stroke="#460EDE" stroke-width="0.5" stroke-miterlimit="10"/>
<path d="M1787.99 254.793C1783.31 662.457 1425.93 1081.31 1020.92 896.028C720.873 745.66 646.991 172.258 446.071 199.658C286.94 223.383 312.514 39.2659 447.91 -89.2149C552.214 -330.137 845.069 -523.778 1232.37 -447.758C1517.53 -379.759 1781.3 -124.802 1787.99 254.793Z" stroke="#430EE0" stroke-width="0.5" stroke-miterlimit="10"/>
<path d="M1783.81 249.946C1778.29 657.777 1421.09 1078.64 1016.24 890.178C718.367 737.304 648.496 159.892 444.567 194.477C282.761 225.386 302.653 49.1216 430.359 -84.3715C532.491 -330.64 827.184 -530.128 1220.33 -456.615C1510.01 -389.952 1777.29 -133.325 1783.81 249.946Z" stroke="#400FE1" stroke-width="0.5" stroke-miterlimit="10"/>
<path d="M1778.3 245.602C1772.11 653.767 1414.73 1076.47 1010.39 884.832C714.523 729.285 648.999 148.03 441.894 189.632C277.581 227.558 291.622 59.4804 411.806 -79.3591C511.765 -331.142 808.297 -536.477 1207.46 -465.47C1501.15 -399.642 1771.94 -141.344 1778.3 245.602Z" stroke="#3D0FE2" stroke-width="0.5" stroke-miterlimit="10"/>
<path d="M1771.44 241.593C1764.42 649.925 1407.21 1074.63 1003.03 879.654C709.174 721.601 647.829 136.169 437.548 185.122C270.56 230.232 279.085 70.0072 391.413 -73.8446C489.366 -330.973 787.57 -542.324 1192.75 -473.823C1491.12 -408.998 1765.43 -149.029 1771.44 241.593Z" stroke="#3A0FE4" stroke-width="0.5" stroke-miterlimit="10"/>
<path d="M1763.58 237.585C1755.73 646.084 1398.69 1072.79 994.672 874.643C702.987 713.917 645.988 124.642 432.531 180.779C263.036 233.074 265.71 80.8684 370.349 -68.3298C466.129 -330.805 766.005 -548.003 1177.21 -482.008C1480.09 -418.353 1757.9 -156.546 1763.58 237.585Z" stroke="#380FE5" stroke-width="0.5" stroke-miterlimit="10"/>
<path d="M1755.06 233.742C1746.53 642.575 1389.49 1071.12 985.646 869.631C695.967 706.398 643.146 113.114 426.681 176.268C254.512 235.747 251.503 91.3939 348.452 -62.8165C442.059 -330.638 743.773 -553.851 1160.99 -490.195C1468.56 -427.542 1749.88 -164.064 1755.06 233.742Z" stroke="#350FE7" stroke-width="0.5" stroke-miterlimit="10"/>
<path d="M1746.2 229.733C1736.84 638.733 1379.8 1069.29 976.287 864.619C688.781 698.713 640.139 101.586 420.497 171.925C245.654 238.588 236.962 102.254 326.222 -57.3025C417.656 -330.471 721.209 -559.698 1144.28 -498.381C1456.36 -436.897 1741.19 -171.749 1746.2 229.733Z" stroke="#320FE8" stroke-width="0.5" stroke-miterlimit="10"/>
<path d="M1737.17 225.387C1726.98 634.554 1370.1 1067.11 966.757 859.27C681.257 690.858 636.961 89.7216 414.144 167.244C236.793 241.092 222.25 112.778 303.989 -52.1253C393.417 -330.64 698.641 -565.715 1127.73 -507.071C1444.15 -446.757 1732.49 -179.771 1737.17 225.387Z" stroke="#2F0FE9" stroke-width="0.5" stroke-miterlimit="10"/>
<path d="M1728.32 220.542C1717.45 629.877 1360.58 1064.44 957.399 853.257C673.905 682.339 633.955 77.0246 407.962 161.732C227.936 242.596 207.71 122.302 281.76 -47.6135C369.015 -331.641 675.911 -572.564 1111.01 -516.26C1432.12 -456.948 1723.97 -188.291 1728.32 220.542Z" stroke="#2C0FEB" stroke-width="0.5" stroke-miterlimit="10"/>
<path d="M1719.79 215.03C1708.09 624.698 1351.21 1061.1 948.371 846.741C667.049 673.15 631.111 63.9937 402.109 155.885C219.576 243.934 193.5 131.659 259.86 -43.6027C344.942 -332.977 653.677 -579.914 1094.8 -525.949C1420.25 -467.807 1715.61 -197.479 1719.79 215.03Z" stroke="#290FEC" stroke-width="0.5" stroke-miterlimit="10"/>
<path d="M1711.93 208.681C1699.4 618.517 1342.69 1056.92 940.18 839.223C660.864 663.126 629.272 49.9595 397.094 149.035C211.887 244.268 180.294 139.846 238.799 -40.4283C321.707 -335.149 632.281 -587.934 1079.42 -536.642C1409.22 -479.669 1708.09 -207.503 1711.93 208.681Z" stroke="#270FEE" stroke-width="0.5" stroke-miterlimit="10"/>
<path d="M1705.08 201.33C1691.88 611.332 1335.17 1051.74 932.826 830.869C655.516 652.099 628.27 35.09 392.916 141.183C205.201 243.6 167.759 147.197 218.741 -38.4231C299.476 -338.323 611.721 -597.123 1064.71 -548.17C1399.19 -492.367 1701.57 -218.53 1705.08 201.33Z" stroke="#240FEF" stroke-width="0.5" stroke-miterlimit="10"/>
<path d="M1699.4 192.808C1685.35 603.145 1328.81 1045.39 926.64 821.345C651.503 640.069 628.436 19.0502 389.906 132.327C199.517 241.929 156.391 153.379 199.684 -37.2542C278.414 -342.668 592.497 -607.482 1051.5 -561.035C1390.33 -506.234 1696.22 -230.727 1699.4 192.808Z" stroke="#210FF1" stroke-width="0.5" stroke-miterlimit="10"/>
<path d="M1695.22 183.119C1680.34 593.623 1323.8 1037.88 921.961 810.487C648.83 626.537 629.942 1.50859 388.403 122.137C195.34 238.922 146.53 158.392 182.134 -37.5871C258.691 -348.514 574.446 -619.009 1039.47 -575.068C1382.97 -521.437 1692.21 -244.259 1695.22 183.119Z" stroke="#1E0FF2" stroke-width="0.5" stroke-miterlimit="10"/>
<path d="M1027.43 -589.104C1372.78 -536.476 1687.7 -255.956 1686.69 170.587C1682.85 246.105 1666.47 321.122 1644.07 392.296C1601.95 522.28 1523.72 642.073 1426.6 729.454C1286.86 854.927 1104.33 905.551 911.262 797.787C638.131 618.014 615.899 -1.50047 375.865 113.781C184.64 227.393 135.998 146.361 171.268 -48.6157C246.655 -360.879 562.911 -632.21 1027.43 -589.104Z" stroke="#210FF1" stroke-width="0.5" stroke-miterlimit="10"/>
<path d="M1016.24 -604.309C1363.58 -552.683 1684.02 -268.822 1679.17 157.053C1674.16 232.905 1655.6 306.418 1634.71 375.587C1593.76 502.564 1512.69 619.684 1414.9 708.568C1274.99 835.211 1093.63 889.344 901.735 783.919C628.437 608.323 603.03 -5.5115 364.166 104.424C174.78 215.028 126.472 133.328 161.073 -60.6463C235.624 -374.414 552.215 -646.245 1016.24 -604.309Z" stroke="#240FEF" stroke-width="0.5" stroke-miterlimit="10"/>
<path d="M1006.04 -620.515C1355.39 -569.892 1681.35 -282.689 1672.65 142.35C1666.3 218.537 1645.74 290.546 1626.18 357.877C1586.57 481.847 1502.66 596.294 1403.87 686.681C1263.79 814.494 1083.6 872.135 892.709 769.049C619.411 597.63 590.493 -10.6907 353.301 94.0655C165.753 201.662 117.613 119.461 151.879 -73.6781C225.427 -388.949 542.353 -661.449 1006.04 -620.515Z" stroke="#270FEE" stroke-width="0.5" stroke-miterlimit="10"/>
<path d="M996.511 -637.558C1347.7 -587.936 1679.34 -297.392 1666.63 126.812C1659.11 203.165 1636.55 274.005 1618.33 339.331C1579.88 460.294 1493.13 572.067 1393.67 664.126C1253.59 793.108 1074.4 854.257 884.684 753.344C611.219 586.101 579.125 -16.5391 343.27 82.8707C157.561 187.46 109.588 104.591 143.353 -87.546C215.898 -404.321 533.325 -677.322 996.511 -637.558Z" stroke="#290FEC" stroke-width="0.5" stroke-miterlimit="10"/>
<path d="M987.652 -655.433C1340.85 -606.814 1677.83 -312.928 1661.45 110.607C1652.76 187.295 1628.02 256.631 1611.31 319.953C1574.2 437.908 1484.44 547.008 1384.14 640.57C1243.9 770.722 1065.88 835.547 877.33 736.805C603.865 573.74 568.428 -23.387 333.91 70.8435C150.04 172.425 102.401 88.8875 135.664 -102.08C207.207 -420.358 524.801 -694.194 987.652 -655.433Z" stroke="#2C0FEB" stroke-width="0.5" stroke-miterlimit="10"/>
<path d="M979.295 -673.978C1334.5 -626.528 1677 -329.301 1656.77 93.5662C1646.91 170.588 1620 238.587 1604.62 299.904C1568.68 414.852 1476.08 521.279 1375.12 616.344C1234.71 747.666 1057.86 816 870.477 719.597C596.845 560.709 558.065 -30.7379 325.051 58.1462C143.02 156.721 95.548 72.5146 128.31 -117.45C199.017 -437.232 517.112 -711.737 979.295 -673.978Z" stroke="#2F0FE9" stroke-width="0.5" stroke-miterlimit="10"/>
<path d="M971.605 -693.026C1328.82 -646.579 1676.83 -346.011 1652.76 76.0216C1641.73 153.377 1612.64 219.873 1598.77 279.185C1564.17 391.125 1468.72 494.879 1366.76 591.616C1226.18 724.107 1050.5 795.949 864.292 701.718C590.493 547.007 548.537 -38.9263 316.86 44.7784C136.668 140.345 89.3628 55.6384 121.791 -133.491C191.327 -454.777 509.757 -729.782 971.605 -693.026Z" stroke="#320FE8" stroke-width="0.5" stroke-miterlimit="10"/>
<path d="M964.417 -712.738C1323.46 -667.294 1677.16 -363.384 1649.08 57.9797C1636.88 135.67 1605.62 200.662 1593.25 258.136C1559.82 367.069 1461.53 467.982 1358.9 566.39C1218.16 700.05 1043.65 775.401 858.608 683.51C584.808 532.975 539.342 -47.4447 309.337 30.9136C130.983 123.473 84.0125 38.0978 115.772 -150.029C184.138 -472.818 503.069 -748.325 964.417 -712.738Z" stroke="#350FE7" stroke-width="0.5" stroke-miterlimit="10"/>
<path d="M957.563 -732.79C1318.62 -688.348 1677.83 -381.096 1645.91 39.4324C1632.53 117.29 1599.27 181.112 1588.07 236.581C1555.81 342.507 1454.68 440.747 1351.21 540.825C1210.47 675.655 1036.96 754.682 852.924 664.962C578.958 518.604 530.316 -56.1346 301.648 16.8773C125.133 106.43 78.3294 20.3859 109.754 -166.738C177.452 -491.199 496.551 -767.374 957.563 -732.79Z" stroke="#380FE5" stroke-width="0.5" stroke-miterlimit="10"/>
<path d="M951.045 -753.171C1314.11 -709.732 1678.67 -399.139 1643.07 20.5541C1628.52 98.7454 1593.09 161.064 1583.39 214.529C1552.47 317.28 1448.33 413.014 1344.19 514.596C1203.28 650.595 1030.95 733.13 848.078 645.583C574.112 503.402 522.126 -65.8238 294.796 2.00878C120.119 88.3867 73.4832 2.00875 104.407 -184.28C170.934 -509.91 490.534 -786.753 951.045 -753.171Z" stroke="#3A0FE4" stroke-width="0.5" stroke-miterlimit="10"/>
<path d="M944.695 -773.723C1309.59 -731.453 1679.84 -417.352 1640.23 1.67291C1624.51 80.1983 1586.9 141.014 1578.71 192.64C1548.96 292.384 1442.15 385.445 1337.01 488.53C1195.93 625.699 1024.76 711.742 843.065 626.534C568.931 488.53 513.603 -75.1818 287.777 -12.5286C114.939 70.842 68.6372 -16.2042 99.0594 -201.491C164.751 -528.791 484.685 -806.303 944.695 -773.723Z" stroke="#3D0FE2" stroke-width="0.5" stroke-miterlimit="10"/>
<path d="M938.676 -794.438C1305.58 -753.17 1681.34 -435.894 1637.88 -17.5379C1621 61.3217 1581.22 120.8 1574.53 170.255C1546.12 266.991 1436.3 357.379 1330.49 462.135C1189.24 600.474 1019.24 690.026 838.718 607.156C564.584 473.329 505.912 -84.7022 281.424 -27.3954C110.424 52.9678 64.2897 -34.7467 94.3776 -219.031C158.732 -547.835 479 -826.015 938.676 -794.438Z" stroke="#400FE1" stroke-width="0.5" stroke-miterlimit="10"/>
<path d="M932.659 -815.325C1301.57 -775.06 1682.85 -454.443 1635.54 -36.7546C1617.49 42.439 1575.54 100.414 1570.19 148.031C1542.94 241.76 1430.28 329.474 1323.63 435.734C1182.22 575.242 1013.39 668.47 834.037 587.606C559.736 457.955 497.889 -94.5627 274.905 -42.4353C105.744 34.9206 59.7768 -53.4622 89.3631 -236.744C152.715 -567.052 473.485 -845.733 932.659 -815.325Z" stroke="#430EE0" stroke-width="0.5" stroke-miterlimit="10"/>
<path d="M926.64 -836.042C1297.56 -796.78 1684.18 -472.821 1633.04 -55.9681C1613.81 23.3927 1569.85 80.1982 1565.84 125.81C1539.93 216.532 1424.26 301.573 1316.95 409.337C1175.53 550.014 1007.71 646.751 829.523 568.225C555.222 442.752 489.864 -104.253 268.385 -57.3047C101.063 17.0438 55.4294 -71.8402 84.5144 -254.286C146.863 -586.098 467.967 -865.448 926.64 -836.042Z" stroke="#460EDE" stroke-width="0.5" stroke-miterlimit="10"/>
<path d="M920.623 -856.591C1293.38 -818.331 1685.69 -491.031 1630.7 -75.0132C1610.3 4.68171 1564.17 59.9837 1561.66 103.59C1536.92 191.305 1418.58 273.673 1310.26 383.107C1168.68 524.954 1002.03 625.199 824.844 549.013C550.543 427.716 481.842 -113.775 261.699 -72.1729C96.2163 -0.831799 50.7502 -90.3841 79.3337 -271.828C140.847 -604.976 462.452 -884.994 920.623 -856.591Z" stroke="#490EDD" stroke-width="0.5" stroke-miterlimit="10"/>
<path d="M914.439 -876.976C1289.2 -839.718 1687.03 -509.077 1628.19 -93.7274C1606.63 -13.6984 1558.32 40.0999 1557.15 81.8687C1533.58 166.576 1412.39 246.104 1303.41 357.209C1161.66 500.225 996.178 603.979 820.164 529.965C545.696 412.845 473.819 -122.965 255.014 -86.7102C91.3693 -18.3764 46.2375 -108.597 74.3195 -289.038C134.829 -623.69 456.77 -904.209 914.439 -876.976Z" stroke="#4B0EDB" stroke-width="0.5" stroke-miterlimit="10"/>
<path d="M908.089 -896.858C1284.86 -860.77 1688.2 -526.619 1625.35 -112.106C1602.45 -31.7423 1552.14 20.7193 1552.47 60.3161C1530.24 142.016 1406.04 218.871 1296.22 331.479C1154.31 475.665 989.995 583.095 815.151 511.252C540.516 398.309 465.296 -131.82 247.995 -100.912C86.1893 -35.5851 41.2247 -126.307 68.8052 -305.746C128.647 -641.901 450.921 -923.256 908.089 -896.858Z" stroke="#4E0EDA" stroke-width="0.5" stroke-miterlimit="10"/>
<path d="M901.567 -916.405C1280.17 -881.319 1689.2 -543.994 1622.5 -130.149C1598.43 -49.4515 1545.95 1.50656 1547.79 39.2656C1526.73 117.958 1399.69 192.139 1289.2 306.419C1147.12 451.774 983.974 562.712 810.3 493.209C535.665 384.443 457.102 -140.173 241.138 -114.444C81.1712 -52.2917 36.3738 -143.515 63.62 -321.951C122.124 -659.777 444.733 -941.8 901.567 -916.405Z" stroke="#510ED8" stroke-width="0.5" stroke-miterlimit="10"/>
<path d="M894.714 -935.452C1275.33 -901.369 1689.7 -560.702 1619.33 -147.525C1594.09 -66.6607 1539.6 -17.0394 1542.77 18.7147C1523.05 94.3998 1393.17 165.908 1281.68 281.691C1139.6 428.216 977.455 542.663 804.952 475.331C529.982 370.742 448.076 -148.193 233.784 -127.81C75.6556 -68.6656 31.1925 -160.557 57.7701 -337.991C115.271 -677.154 438.214 -959.678 894.714 -935.452Z" stroke="#540ED7" stroke-width="0.5" stroke-miterlimit="10"/>
<path d="M887.359 -953.831C1269.98 -920.75 1689.87 -576.742 1615.49 -164.4C1589.07 -83.2015 1532.41 -34.9168 1536.92 -1.16756C1518.37 71.5102 1385.65 140.345 1273.49 257.799C1131.24 405.494 970.268 523.449 798.934 458.456C524.132 358.044 438.883 -155.378 225.928 -140.174C69.6381 -84.0369 25.3421 -176.597 51.5854 -353.028C107.917 -693.862 431.361 -977.054 887.359 -953.831Z" stroke="#570ED6" stroke-width="0.5" stroke-miterlimit="10"/>
<path d="M879.503 -971.54C1263.96 -939.461 1689.53 -592.112 1611.31 -180.605C1583.73 -99.0727 1524.89 -52.2917 1530.91 -20.3803C1513.69 49.123 1377.96 115.452 1264.96 234.409C1122.55 383.273 962.746 504.904 792.583 442.084C517.613 345.849 429.188 -162.06 217.57 -152.203C63.1193 -99.0727 18.9905 -192.134 44.7323 -367.73C100.228 -709.9 424.006 -993.594 879.503 -971.54Z" stroke="#5A0ED4" stroke-width="0.5" stroke-miterlimit="10"/>
<path d="M871.148 -988.415C1257.61 -957.339 1688.7 -606.648 1606.63 -195.81C1577.88 -113.943 1516.87 -68.4988 1524.39 -38.7594C1508.34 27.7365 1369.77 91.3921 1256.11 211.853C1113.52 361.887 954.892 487.026 785.732 426.378C510.762 334.32 418.827 -168.076 208.714 -163.398C55.9343 -113.275 12.3069 -207.004 37.5473 -381.598C91.8726 -725.104 416.153 -1009.47 871.148 -988.415Z" stroke="#5D0ED3" stroke-width="0.5" stroke-miterlimit="10"/>
<path d="M862.118 -1004.29C1250.59 -974.38 1687.03 -620.347 1601.11 -210.177C1571.19 -127.976 1508 -84.0357 1516.86 -56.1342C1502.15 7.35444 1360.74 68.3369 1246.07 190.469C1103.32 341.672 945.863 470.32 777.872 412.011C502.736 324.129 407.625 -172.586 198.848 -173.254C47.9077 -126.139 4.4474 -220.536 29.1863 -394.127C83.0101 -739.305 407.625 -1024.34 862.118 -1004.29Z" stroke="#5F0ED1" stroke-width="0.5" stroke-miterlimit="10"/>
<path d="M852.423 -1019.32C1242.9 -990.418 1684.85 -633.044 1595.09 -223.71C1564 -141.342 1498.81 -98.7378 1509.01 -72.8412C1495.47 -12.3599 1351.21 45.9494 1235.88 169.585C1093.13 321.958 936.669 454.114 769.849 398.144C494.712 314.439 396.258 -176.762 188.986 -182.61C39.884 -138.502 -3.40907 -233.567 20.9955 -406.156C73.315 -752.67 398.264 -1038.2 852.423 -1019.32Z" stroke="#620ED0" stroke-width="0.5" stroke-miterlimit="10"/>
<path d="M841.894 -1033.02C1234.21 -1005.12 1681.85 -644.406 1588.24 -235.74C1555.98 -153.038 1488.62 -111.77 1500.32 -87.8782C1487.95 -30.4043 1340.85 25.0646 1224.68 150.371C1081.76 304.08 926.475 439.745 760.824 385.78C485.52 306.252 383.723 -179.268 177.956 -190.462C30.6924 -149.362 -12.2663 -244.929 11.6368 -416.682C62.9533 -764.867 388.236 -1051.07 841.894 -1033.02Z" stroke="#650ECE" stroke-width="0.5" stroke-miterlimit="10"/>
<path d="M830.529 -1045.72C1224.85 -1018.82 1678 -654.763 1580.39 -246.932C1546.95 -163.896 1477.42 -124.132 1490.62 -102.078C1479.59 -47.6117 1329.49 5.18407 1212.64 132.161C1069.56 287.04 915.443 426.214 750.963 374.588C475.492 299.07 370.519 -180.938 166.089 -197.311C20.6639 -159.218 -22.1277 -255.453 1.27395 -426.204C51.5875 -775.726 377.372 -1062.59 830.529 -1045.72Z" stroke="#680ECD" stroke-width="0.5" stroke-miterlimit="10"/>
<path d="M818.325 -1057.08C1214.65 -1031.19 1673.32 -663.788 1571.86 -256.626C1537.26 -173.255 1465.55 -134.995 1480.09 -114.946C1470.23 -63.4865 1317.45 -13.3639 1199.61 115.117C1056.35 271.165 903.407 413.848 740.097 364.393C464.626 293.219 356.142 -181.274 153.216 -202.994C9.63058 -168.076 -32.9939 -264.812 -9.92655 -434.561C39.3841 -785.419 365.503 -1072.96 818.325 -1057.08Z" stroke="#6B0ECC" stroke-width="0.5" stroke-miterlimit="10"/>
<path d="M804.954 -1067.11C1203.12 -1042.38 1667.31 -671.474 1562.16 -265.147C1526.39 -181.609 1452.51 -144.518 1468.56 -126.474C1460.03 -78.0225 1304.25 -30.573 1185.73 99.4115C1042.31 256.629 890.537 402.82 728.23 355.705C452.592 288.708 340.932 -180.105 139.344 -207.172C-2.40339 -175.26 -44.6935 -272.498 -22.2948 -441.411C26.1801 -793.773 352.8 -1081.98 804.954 -1067.11Z" stroke="#6E0ECA" stroke-width="0.5" stroke-miterlimit="10"/>
<path d="M790.744 -1075.46C1190.91 -1051.74 1660.62 -677.654 1551.63 -271.995C1514.69 -188.123 1438.8 -152.536 1456.19 -136.497C1448.83 -91.0524 1290.2 -46.2763 1170.85 85.379C1027.44 243.766 876.662 393.633 715.524 348.69C439.886 285.869 324.884 -177.43 124.632 -209.676C-15.2762 -180.772 -57.3992 -278.678 -35.3348 -446.422C11.97 -800.621 338.925 -1089.33 790.744 -1075.46Z" stroke="#700EC9" stroke-width="0.5" stroke-miterlimit="10"/>
<path d="M775.2 -1082.48C1177.37 -1059.76 1652.6 -682.334 1539.6 -277.343C1501.49 -193.137 1423.43 -158.887 1442.15 -144.852C1436.13 -102.415 1274.49 -60.3124 1154.47 72.8466C1010.89 232.403 861.285 385.779 701.318 343.007C425.513 284.364 307.167 -173.422 108.587 -210.847C-29.4824 -184.95 -71.4382 -283.525 -49.8752 -450.266C-3.40622 -805.802 323.883 -1095.18 775.2 -1082.48Z" stroke="#730EC7" stroke-width="0.5" stroke-miterlimit="10"/>
<path d="M753.802 -1088.66C1157.81 -1066.94 1638.72 -686.174 1521.88 -282.019C1482.43 -197.479 1402.36 -164.733 1422.59 -152.536C1417.74 -113.273 1253.43 -73.6766 1132.41 60.986C988.654 221.712 840.221 378.596 681.424 338.164C405.619 283.697 283.93 -168.408 86.6874 -211.18C-49.5437 -188.29 -91.1652 -287.533 -70.1037 -453.272C-24.8048 -810.311 302.818 -1100.35 753.802 -1088.66Z" stroke="#760EC6" stroke-width="0.5" stroke-miterlimit="10"/>
<path d="M728.062 -1094C1134.08 -1073.29 1620.33 -689.181 1499.82 -285.862C1459.2 -200.988 1376.96 -169.744 1398.69 -159.553C1395.01 -123.297 1227.85 -86.3737 1106.17 49.9597C962.245 211.856 814.982 372.248 657.355 334.155C381.383 283.865 256.518 -162.727 60.6129 -210.678C-73.7795 -190.796 -115.234 -290.54 -94.6738 -455.443C-50.545 -813.987 277.58 -1104.7 728.062 -1094Z" stroke="#790EC5" stroke-width="0.5" stroke-miterlimit="10"/>
<path d="M702.821 -1098.02C1110.85 -1078.3 1602.61 -690.854 1478.08 -288.203C1436.3 -203.161 1351.88 -173.088 1375.12 -164.901C1372.78 -131.653 1202.61 -97.4027 1080.09 40.4343C936.001 203.5 789.908 367.568 633.451 331.479C357.479 285.367 229.104 -155.545 34.7033 -208.842C-97.8504 -191.967 -139.138 -292.38 -118.912 -456.28C-75.6189 -816.328 252.84 -1107.71 702.821 -1098.02Z" stroke="#7C0EC3" stroke-width="0.5" stroke-miterlimit="10"/>
<path d="M678.248 -1100.52C1088.28 -1081.98 1585.56 -691.02 1457.19 -289.204C1414.23 -203.829 1327.81 -175.259 1352.22 -169.077C1351.05 -138.836 1178.04 -107.426 1054.85 32.2485C910.761 196.484 765.67 364.06 610.383 330.311C334.244 288.208 202.693 -147.023 9.62935 -205.667C-121.086 -191.799 -162.039 -292.88 -142.482 -455.778C-100.024 -817.329 228.769 -1109.21 678.248 -1100.52Z" stroke="#7F0EC2" stroke-width="0.5" stroke-miterlimit="10"/>
<path d="M654.514 -1101.86C1066.38 -1084.32 1569.35 -690.185 1437.13 -289.037C1393 -203.328 1304.41 -176.261 1330.32 -171.917C1330.49 -144.684 1154.64 -115.947 1030.44 25.2314C886.19 190.636 742.27 361.721 587.986 330.311C311.847 292.385 176.786 -137.333 -14.6066 -201.156C-143.483 -190.463 -184.269 -291.877 -165.046 -453.94C-123.759 -816.828 205.369 -1109.38 654.514 -1101.86Z" stroke="#810EC0" stroke-width="0.5" stroke-miterlimit="10"/>
<path d="M631.278 -1101.69C1045.15 -1085.15 1553.64 -687.677 1417.41 -287.198C1372.11 -201.154 1281.34 -175.425 1308.76 -173.086C1310.09 -148.86 1131.4 -122.796 1006.54 19.8863C862.118 186.46 719.368 361.054 566.255 331.816C289.948 298.067 151.711 -125.97 -38.3439 -195.14C-165.382 -187.454 -206 -289.537 -187.112 -450.598C-146.995 -815.156 182.635 -1108.21 631.278 -1101.69Z" stroke="#840EBF" stroke-width="0.5" stroke-miterlimit="10"/>
<path d="M608.547 -1100.35C1024.43 -1084.82 1538.26 -684.002 1398.35 -284.358C1351.88 -197.98 1258.95 -173.754 1287.7 -173.42C1290.37 -152.201 1108.67 -128.811 982.974 15.5422C838.385 183.286 696.805 361.555 544.861 334.489C268.554 304.917 126.974 -113.607 -61.7437 -187.956C-186.943 -183.277 -227.227 -286.029 -209.007 -446.087C-169.558 -812.149 160.405 -1105.87 608.547 -1100.35Z" stroke="#870EBD" stroke-width="0.5" stroke-miterlimit="10"/>
<path d="M586.481 -1097.85C1004.2 -1083.31 1523.72 -679.159 1379.96 -280.35C1332.32 -193.805 1237.21 -170.749 1267.47 -172.419C1271.31 -154.208 1086.77 -133.491 960.406 12.3659C815.65 181.279 675.24 363.057 524.466 338.33C247.992 312.934 103.069 -100.076 -84.1442 -179.604C-207.504 -177.933 -247.622 -281.353 -229.736 -440.408C-191.625 -807.974 138.84 -1102.36 586.481 -1097.85Z" stroke="#8A0EBC" stroke-width="0.5" stroke-miterlimit="10"/>
<path d="M565.085 -1094.17C984.81 -1080.64 1509.84 -673.143 1362.08 -275.003C1313.27 -188.124 1216.15 -166.571 1247.74 -170.247C1252.93 -155.043 1065.38 -136.999 938.174 10.3614C793.418 180.444 653.844 365.73 504.408 343.175C227.934 321.957 79.6673 -85.3728 -106.209 -170.247C-227.73 -171.584 -267.68 -275.504 -250.296 -433.725C-212.853 -802.627 117.779 -1097.51 565.085 -1094.17Z" stroke="#8D0DBB" stroke-width="0.5" stroke-miterlimit="10"/>
<path d="M544.191 -1089.33C965.922 -1076.97 1496.47 -665.96 1344.86 -268.655C1294.88 -181.442 1195.59 -161.393 1228.69 -166.907C1235.04 -154.71 1044.82 -139.339 916.779 9.69198C771.856 180.944 633.451 369.739 485.185 349.523C208.544 332.481 57.1018 -69.3346 -127.437 -159.555C-247.12 -163.899 -286.735 -268.488 -269.853 -425.706C-233.747 -796.112 97.3862 -1091.67 544.191 -1089.33Z" stroke="#900DB9" stroke-width="0.5" stroke-miterlimit="10"/>
<path d="M523.966 -1083.48C947.536 -1072.12 1483.6 -657.94 1328.31 -261.136C1277.17 -173.589 1175.7 -154.877 1210.14 -162.395C1217.66 -153.206 1024.59 -140.508 895.718 10.0267C750.628 182.448 613.394 374.919 466.131 356.875C189.49 344.01 34.5372 -52.1253 -148.33 -147.692C-266.174 -155.044 -305.623 -260.301 -289.241 -416.349C-253.805 -788.593 77.6631 -1084.82 523.966 -1083.48Z" stroke="#930DB8" stroke-width="0.5" stroke-miterlimit="10"/>
<path d="M504.242 -1076.63C929.818 -1066.27 1471.4 -648.749 1312.1 -252.781C1259.78 -164.899 1156.15 -147.69 1192.08 -157.214C1200.94 -151.199 1004.87 -141.007 875.326 11.0311C730.068 184.622 594.004 380.601 447.911 364.729C171.103 356.041 12.9744 -34.5804 -168.556 -135.327C-284.561 -145.685 -323.675 -251.444 -307.796 -406.657C-273.529 -779.903 58.4404 -1076.96 504.242 -1076.63Z" stroke="#950DB6" stroke-width="0.5" stroke-miterlimit="10"/>
<path d="M485.185 -1068.78C912.767 -1059.42 1459.86 -638.558 1296.72 -243.425C1243.23 -155.376 1137.42 -139.504 1174.87 -150.865C1184.89 -147.858 985.98 -140.507 855.6 13.3696C710.175 188.13 575.281 387.618 430.358 374.085C153.55 369.574 -7.92152 -15.5344 -188.114 -121.46C-302.448 -134.826 -341.228 -241.253 -325.85 -395.464C-292.586 -770.548 39.7176 -1067.94 485.185 -1068.78Z" stroke="#980DB5" stroke-width="0.5" stroke-miterlimit="10"/>
<path d="M466.63 -1059.92C896.218 -1051.57 1448.83 -627.364 1281.84 -232.899C1227.02 -144.516 1119.37 -129.981 1157.98 -143.514C1169.35 -143.514 967.593 -138.836 836.376 16.5443C690.952 192.475 557.061 395.471 413.308 384.277C136.332 383.943 -28.4824 4.51485 -207.171 -106.757C-319.666 -123.298 -358.279 -230.226 -343.235 -383.434C-311.141 -760.021 21.664 -1058.25 466.63 -1059.92Z" stroke="#9B0DB3" stroke-width="0.5" stroke-miterlimit="10"/>
<path d="M448.578 -1050.4C880.004 -1043.22 1438.13 -615.504 1267.3 -221.874C1211.3 -133.157 1101.48 -120.125 1141.6 -135.496C1154.14 -138.504 949.541 -136.499 817.488 20.552C671.897 197.652 539.176 404.324 396.593 395.135C119.617 398.977 -48.5402 25.0629 -225.891 -91.3885C-336.548 -110.936 -374.826 -218.533 -360.451 -370.738C-329.026 -748.83 4.11354 -1047.56 448.578 -1050.4Z" stroke="#9E0DB2" stroke-width="0.5" stroke-miterlimit="10"/>
<path d="M431.026 -1039.87C864.458 -1033.69 1428.1 -602.804 1253.43 -209.843C1196.26 -120.792 1084.27 -109.097 1125.89 -126.473C1139.76 -132.487 932.156 -133.156 799.435 25.3989C653.676 203.668 522.125 413.849 380.712 406.999C103.57 415.018 -67.9309 46.6174 -243.611 -75.1805C-352.428 -97.7356 -390.54 -205.833 -376.499 -357.203C-346.411 -736.631 -12.9369 -1036.03 431.026 -1039.87Z" stroke="#A10DB1" stroke-width="0.5" stroke-miterlimit="10"/>
<path d="M414.144 -1028.85C849.582 -1023.67 1418.74 -589.44 1240.22 -197.147C1181.89 -107.762 1067.72 -97.5703 1110.84 -116.951C1125.89 -125.973 915.441 -129.315 781.884 30.7435C635.958 210.182 505.577 423.872 365.167 419.361C87.8576 431.557 -86.8191 68.8366 -261.161 -58.3076C-368.14 -83.8701 -406.085 -192.636 -392.378 -343.004C-363.293 -723.935 -29.485 -1023.84 414.144 -1028.85Z" stroke="#A40DAF" stroke-width="0.5" stroke-miterlimit="10"/>
<path d="M397.598 -1017.15C834.874 -1012.98 1409.72 -575.406 1227.19 -183.949C1167.68 -94.3963 1051.34 -85.5414 1095.8 -106.76C1112.02 -118.789 898.895 -124.804 764.502 36.9248C618.409 217.533 489.198 434.731 349.959 432.392C72.6489 448.765 -105.371 91.5585 -278.376 -40.7651C-383.516 -69.335 -421.126 -178.769 -408.088 -328.135C-379.672 -710.403 -45.5294 -1011.14 397.598 -1017.15Z" stroke="#A60DAE" stroke-width="0.5" stroke-miterlimit="10"/>
<path d="M381.718 -1004.62C821.001 -1001.45 1401.36 -560.536 1214.98 -169.914C1154.31 -80.0276 1035.96 -72.5092 1081.76 -95.8998C1099.31 -110.937 883.182 -119.625 747.954 43.608C601.861 225.386 473.653 446.259 335.584 446.092C58.1068 466.643 -123.256 115.116 -294.757 -22.5538C-398.058 -54.131 -435.501 -164.234 -422.797 -312.596C-395.551 -696.368 -61.0745 -997.605 381.718 -1004.62Z" stroke="#A90DAC" stroke-width="0.5" stroke-miterlimit="10"/>
<path d="M366.17 -991.59C807.459 -989.418 1393.17 -545.165 1203.11 -155.211C1141.27 -64.9904 1020.75 -58.9757 1068.05 -84.2041C1086.77 -102.248 867.802 -113.609 731.905 51.127C585.645 234.074 458.607 458.456 321.707 460.628C44.2302 485.356 -140.476 139.343 -310.639 -3.5067C-412.102 -38.0913 -449.378 -148.695 -437.175 -296.223C-410.932 -681.665 -75.954 -983.57 366.17 -991.59Z" stroke="#AC0DAB" stroke-width="0.5" stroke-miterlimit="10"/>
<path d="M351.296 -978.056C794.59 -977.053 1385.82 -529.292 1191.92 -140.173C1128.9 -49.6184 1006.21 -45.1074 1054.85 -72.1736C1074.91 -93.2251 852.927 -107.259 716.194 59.1476C569.767 243.265 443.899 471.155 308.17 475.499C30.5257 504.403 -157.356 163.904 -326.182 15.8752C-425.807 -21.7168 -462.748 -132.989 -451.047 -279.514C-425.807 -666.46 -90.4943 -969.034 351.296 -978.056Z" stroke="#AF0DAA" stroke-width="0.5" stroke-miterlimit="10"/>
<path d="M336.92 -964.02C782.053 -964.02 1378.96 -513.084 1181.05 -124.634C1116.86 -33.9121 991.999 -30.5705 1042.15 -59.8087C1063.37 -83.8675 838.718 -100.742 701.15 67.3354C554.555 252.622 429.858 484.021 295.298 490.704C17.6545 523.785 -173.738 188.966 -340.892 35.4241C-438.678 -5.17515 -475.452 -117.116 -464.253 -262.638C-440.182 -650.754 -104.536 -953.828 336.92 -964.02Z" stroke="#B20DA8" stroke-width="0.5" stroke-miterlimit="10"/>
<path d="M322.879 -949.485C770.018 -950.488 1372.44 -496.21 1170.69 -108.428C1105.33 -17.3722 978.293 -15.5344 1029.94 -46.6104C1052.51 -73.8437 824.845 -93.2244 686.441 76.357C539.679 262.813 416.152 497.888 282.762 506.743C4.95103 544.001 -189.617 214.695 -355.435 55.9739C-451.381 12.2002 -487.988 -100.075 -477.123 -244.595C-454.223 -634.548 -118.075 -938.291 322.879 -949.485Z" stroke="#B50DA7" stroke-width="0.5" stroke-miterlimit="10"/>
<path d="M309.339 -934.616C758.484 -936.621 1366.26 -479.002 1160.82 -92.0559C1094.3 -0.665755 965.254 -0.164618 1018.07 -33.4126C1041.81 -63.6532 811.304 -85.7071 672.232 85.545C525.47 273.171 402.946 511.754 270.559 522.781C-7.25219 564.216 -205.331 240.424 -369.644 76.523C-463.752 29.7419 -500.024 -83.201 -489.828 -226.719C-467.596 -618.009 -131.114 -922.42 309.339 -934.616Z" stroke="#B70DA5" stroke-width="0.5" stroke-miterlimit="10"/>
<path d="M296.302 -919.414C747.286 -922.421 1360.74 -461.461 1151.3 -75.1827C1083.6 16.5416 952.385 15.5392 1006.71 -19.5466C1031.62 -52.7946 798.268 -77.5217 658.36 95.2341C511.431 284.029 390.076 526.121 258.86 539.487C-19.1185 585.099 -220.373 266.988 -383.349 97.7403C-475.618 47.9519 -511.724 -65.6594 -501.861 -208.175C-480.633 -601.136 -143.649 -906.048 296.302 -919.414Z" stroke="#BA0DA4" stroke-width="0.5" stroke-miterlimit="10"/>
<path d="M283.597 -903.874C736.586 -907.884 1355.56 -443.582 1142.27 -58.1391C1073.4 33.9194 940.013 31.4132 995.843 -5.6775C1022.09 -41.9328 785.897 -69.3333 644.985 104.926C497.889 294.891 377.705 540.491 247.658 556.196C-30.3198 605.985 -234.917 293.387 -396.556 118.961C-486.987 66.1648 -522.925 -48.1146 -513.564 -189.627C-493.171 -583.925 -155.853 -889.506 283.597 -903.874Z" stroke="#BD0DA2" stroke-width="0.5" stroke-miterlimit="10"/>
<path d="M271.561 -888.002C726.556 -893.182 1351.05 -425.371 1133.91 -40.7634C1063.87 51.4621 928.312 47.7865 985.646 8.69083C1013.06 -30.5719 774.028 -60.6455 632.448 115.285C485.185 306.419 366.171 555.695 237.294 573.405C-40.8512 627.371 -248.792 320.286 -408.759 140.68C-497.351 84.8772 -532.955 -29.9036 -524.096 -170.581C-505.207 -566.382 -167.555 -872.631 271.561 -888.002Z" stroke="#C00DA1" stroke-width="0.5" stroke-miterlimit="10"/>
<path d="M259.694 -872.13C716.528 -878.312 1346.7 -407.326 1125.56 -23.2203C1054.18 69.3394 916.612 64.16 975.284 23.2266C1004.03 -19.0434 761.994 -51.7901 619.579 125.644C472.148 317.947 354.304 570.732 226.598 590.781C-51.5476 648.923 -262.831 347.52 -421.461 162.4C-508.214 103.59 -543.651 -11.8592 -535.293 -151.534C-516.906 -548.839 -178.752 -855.756 259.694 -872.13Z" stroke="#C30DA0" stroke-width="0.5" stroke-miterlimit="10"/>
<path d="M248.496 -855.924C707.335 -863.108 1342.86 -388.781 1118.03 -5.51071C1045.49 87.3831 905.915 80.7001 965.924 37.7617C995.844 -7.51567 750.963 -42.9356 607.878 136.169C460.448 329.642 343.607 585.936 217.07 608.324C-61.2421 670.643 -275.702 374.752 -432.994 184.454C-517.909 122.636 -553.178 6.51868 -545.155 -132.154C-528.105 -530.962 -189.617 -838.548 248.496 -855.924Z" stroke="#C60D9E" stroke-width="0.5" stroke-miterlimit="10"/>
<path d="M237.629 -839.716C698.475 -847.902 1339.51 -370.234 1110.85 12.2013C1037.13 105.429 895.383 97.4096 956.896 52.4664C988.154 4.18164 740.431 -33.9115 596.343 146.697C448.746 341.34 333.075 601.142 207.541 625.702C-70.7712 692.198 -288.741 401.988 -444.529 206.343C-527.605 141.518 -562.54 24.8991 -555.018 -112.938C-538.972 -513.083 -200.149 -821.17 237.629 -839.716Z" stroke="#C90D9D" stroke-width="0.5" stroke-miterlimit="10"/>
<path d="M227.098 -823.345C689.949 -832.534 1336.5 -351.524 1103.82 30.2426C1028.94 123.805 885.019 114.281 947.869 67.3332C980.297 16.0411 729.732 -24.8922 584.976 157.387C437.211 353.199 322.71 616.677 198.347 643.409C-80.1327 714.082 -301.278 429.385 -455.729 228.561C-536.967 160.561 -571.735 43.4415 -564.714 -93.3931C-549.336 -495.209 -210.179 -803.964 227.098 -823.345Z" stroke="#CB0D9B" stroke-width="0.5" stroke-miterlimit="10"/>
<path d="M216.902 -807.138C681.592 -817.497 1333.83 -332.978 1097.31 47.9533C1021.25 141.682 875.157 130.99 939.512 82.0366C973.277 27.7372 719.703 -15.8695 574.112 168.08C426.18 365.062 312.849 632.048 189.656 660.952C-88.8241 735.802 -313.313 456.619 -466.427 250.616C-545.825 179.609 -580.426 61.8205 -573.74 -74.0117C-559.365 -477.164 -219.873 -786.588 216.902 -807.138Z" stroke="#CE0D9A" stroke-width="0.5" stroke-miterlimit="10"/>
<path d="M207.207 -790.93C673.903 -802.291 1331.49 -314.431 1091.29 65.6651C1014.06 159.728 865.797 147.532 931.656 96.7411C966.591 39.2672 710.176 -6.84554 563.915 178.608C415.816 376.759 303.655 647.254 181.632 678.497C-97.0146 757.524 -324.847 484.022 -476.289 272.671C-554.016 198.657 -588.282 80.2007 -582.098 -54.629C-569.06 -459.285 -229.067 -769.377 207.207 -790.93Z" stroke="#D10D98" stroke-width="0.5" stroke-miterlimit="10"/>
<path d="M198.014 -774.726C666.548 -787.09 1329.82 -296.055 1085.61 83.3725C1007.21 177.77 856.938 164.07 924.134 111.274C960.239 50.7928 701.149 2.0068 553.886 188.964C405.62 388.285 294.629 662.288 173.776 695.87C-104.871 779.074 -336.046 511.085 -486.151 294.556C-562.039 217.534 -595.971 98.5762 -590.455 -35.2511C-578.253 -441.578 -237.926 -752.171 198.014 -774.726Z" stroke="#D40C97" stroke-width="0.5" stroke-miterlimit="10"/>
<path d="M188.988 -758.851C659.529 -772.217 1328.31 -277.842 1080.26 100.918C1000.69 195.65 848.246 180.613 916.78 125.812C954.222 62.3234 692.124 10.8643 544.192 199.492C395.926 400.15 285.938 677.662 166.255 713.249C-112.559 800.629 -347.077 538.154 -495.678 316.278C-569.727 236.249 -603.493 116.623 -598.311 -16.3689C-587.111 -423.865 -246.45 -735.127 188.988 -758.851Z" stroke="#D70C96" stroke-width="0.5" stroke-miterlimit="10"/>
<path d="M180.464 -743.149C653.011 -757.517 1327.31 -259.8 1075.41 118.124C994.675 213.19 840.057 196.649 910.095 139.844C948.707 73.3478 683.767 19.2154 534.999 209.347C386.566 411.174 277.748 692.195 159.236 730.121C-119.746 821.678 -357.44 564.883 -504.703 337.661C-576.914 254.624 -610.345 134.33 -605.664 2.50791C-595.635 -406.492 -254.639 -718.422 180.464 -743.149Z" stroke="#DA0C94" stroke-width="0.5" stroke-miterlimit="10"/>
<path d="M172.103 -727.611C646.656 -742.982 1326.47 -241.923 1070.56 135.333C988.654 230.565 831.863 212.688 903.405 154.045C943.355 84.5416 675.406 27.7361 525.97 219.371C377.369 422.368 269.722 706.897 152.212 747.162C-126.769 842.896 -367.806 591.615 -513.732 359.213C-584.104 273.17 -617.368 152.207 -613.189 21.3871C-603.829 -389.284 -262.332 -701.882 172.103 -727.611Z" stroke="#DC0C93" stroke-width="0.5" stroke-miterlimit="10"/>
<path d="M164.249 -712.407C640.64 -728.948 1325.97 -224.38 1066.38 152.04C983.307 247.607 824.343 228.393 897.222 167.745C938.342 95.2344 667.719 35.7556 517.279 229.062C368.512 433.228 262.034 721.266 145.694 763.703C-133.454 863.614 -377.834 618.013 -522.089 380.265C-590.622 291.214 -623.719 169.75 -619.874 39.7655C-611.684 -372.409 -269.852 -685.508 164.249 -712.407Z" stroke="#DF0C91" stroke-width="0.5" stroke-miterlimit="10"/>
<path d="M156.728 -697.534C635.125 -715.077 1325.98 -207.168 1062.54 168.584C978.293 264.485 817.323 243.768 891.54 181.115C933.997 105.597 660.365 43.4445 509.257 238.254C360.322 443.59 255.015 735.303 139.845 779.912C-139.303 884 -387.026 643.913 -529.944 400.986C-596.638 308.927 -629.401 186.795 -626.225 57.813C-619.204 -355.865 -276.871 -669.633 156.728 -697.534Z" stroke="#E20C90" stroke-width="0.5" stroke-miterlimit="10"/>
<path d="M149.373 -683.001C629.776 -701.546 1326.14 -190.463 1058.86 184.621C973.446 280.856 810.303 258.802 886.024 194.144C929.651 115.619 653.177 50.6263 501.234 247.274C352.299 453.779 247.994 749.001 133.995 795.949C-145.321 904.214 -396.22 669.64 -537.8 421.533C-602.656 326.3 -635.251 203.667 -632.41 75.6876C-626.392 -339.829 -283.725 -654.264 149.373 -683.001Z" stroke="#E50C8F" stroke-width="0.5" stroke-miterlimit="10"/>
<path d="M142.519 -669.132C624.927 -688.68 1326.81 -174.255 1055.52 199.994C968.765 296.563 803.616 273.006 880.841 206.343C925.639 124.81 646.323 57.1442 493.711 255.296C344.609 462.97 241.474 761.701 128.645 810.821C-150.671 923.262 -405.08 694.369 -545.156 440.749C-608.173 342.509 -640.434 219.374 -638.094 92.2301C-633.246 -324.121 -290.078 -639.058 142.519 -669.132Z" stroke="#E80C8D" stroke-width="0.5" stroke-miterlimit="10"/>
<path d="M136 -655.602C620.247 -676.152 1327.65 -158.386 1052.68 215.194C964.753 311.931 797.431 287.037 875.994 218.536C922.128 133.996 639.971 63.657 486.356 263.312C337.087 472.156 235.122 774.395 123.463 825.854C-156.02 942.473 -413.605 719.093 -552.344 460.294C-613.522 359.046 -645.616 235.243 -643.777 109.101C-639.766 -308.921 -296.263 -624.526 136 -655.602Z" stroke="#EB0C8C" stroke-width="0.5" stroke-miterlimit="10"/>
<path d="M129.647 -642.568C615.9 -664.121 1328.81 -143.013 1050 229.732C960.907 326.803 791.412 300.572 871.48 230.066C918.784 142.519 633.785 69.5066 479.502 270.832C330.065 480.846 229.271 786.761 118.615 840.392C-160.868 961.187 -421.964 743.321 -559.03 479.342C-618.37 375.087 -650.297 250.616 -648.793 125.477C-645.951 -294.383 -302.114 -610.657 129.647 -642.568Z" stroke="#ED0C8A" stroke-width="0.5" stroke-miterlimit="10"/>
<path d="M123.631 -630.204C611.89 -652.926 1330.32 -128.31 1047.49 243.599C957.231 341.004 785.73 313.27 867.135 240.759C915.777 150.037 627.769 74.5193 472.65 277.349C323.046 488.532 223.422 797.955 113.936 853.758C-165.714 978.73 -429.986 766.545 -565.715 497.22C-623.217 389.957 -654.809 264.818 -653.973 140.681C-651.967 -280.349 -307.628 -597.29 123.631 -630.204Z" stroke="#F00C89" stroke-width="0.5" stroke-miterlimit="10"/>
<path d="M117.945 -618.508C608.043 -642.233 1332.16 -114.442 1045.49 256.966C954.053 354.705 780.38 325.467 863.121 251.119C912.933 157.389 622.084 79.1981 466.296 283.531C316.692 495.884 218.071 808.816 109.755 866.958C-169.895 995.94 -437.51 789.435 -571.902 514.93C-627.565 404.661 -658.99 279.02 -658.488 155.719C-657.486 -266.982 -312.98 -584.425 117.945 -618.508Z" stroke="#F30C87" stroke-width="0.5" stroke-miterlimit="10"/>
<path d="M1043.65 269.328C951.046 367.234 775.199 336.826 859.445 260.305C910.594 163.569 616.904 82.7044 460.113 288.708C310.342 502.23 212.891 818.671 105.745 879.152C-287.403 1066.28 -663 593.788 -663 169.751C-663 -254.286 -317.993 -572.398 112.431 -607.651C604.534 -632.378 1334.16 -101.078 1043.65 269.328Z" stroke="#F60C86" stroke-width="0.5" stroke-miterlimit="10"/>
</g>
</g>
<defs>
<linearGradient id="paint0_linear" x1="1680" y1="360" x2="-6.13076e-06" y2="360" gradientUnits="userSpaceOnUse">
<stop stop-color="white" stop-opacity="0"/>
<stop offset="1" stop-color="white"/>
</linearGradient>
</defs>
</svg>
