<svg width="261" height="54" viewBox="0 0 261 54" fill="none" xmlns="http://www.w3.org/2000/svg">
<path d="M1.85446 47.3154H0.0102539V53.7142H1.85446V47.3154Z" fill="white" fill-opacity="0.6"/>
<path d="M18.827 51.647L14.9287 47.3154H13.1223V53.7142H14.822V49.3895L18.7169 53.7142H20.5163V47.3154H18.827V51.647Z" fill="white" fill-opacity="0.6"/>
<path d="M35.1084 51.7648L33.0371 47.3154H30.9658L34.1381 53.7142H36.0167L39.1787 47.3154H37.2141L35.1084 51.7648Z" fill="white" fill-opacity="0.6"/>
<path d="M51.4555 51.145H55.3951V49.7738H51.4555V48.7143H55.9422V47.3154H49.6389V53.7142H56.0248V52.3153H51.4555V51.145Z" fill="white" fill-opacity="0.6"/>
<path d="M71.3876 49.8182L69.533 49.7005C68.6694 49.6174 68.4251 49.4616 68.4251 49.1326C68.4251 48.776 68.8415 48.5648 70.0698 48.5648C71.1329 48.5648 71.6043 48.8106 71.7695 49.3958L73.6412 49.1292C73.3591 47.8307 72.2168 47.2109 70.1076 47.2109C67.8093 47.2109 66.5568 47.9969 66.5568 49.3023C66.5568 50.3791 67.3035 51.0301 68.9275 51.1686L70.7442 51.2863C71.7351 51.3763 71.9346 51.5252 71.9346 51.8819C71.9346 52.2558 71.4805 52.4566 70.1558 52.4566C69.0032 52.4566 68.4114 52.145 68.2497 51.5045L66.3779 51.7711C66.6669 53.1595 67.8849 53.8105 70.1214 53.8105C72.6469 53.8105 73.8098 53.0141 73.8098 51.6984C73.8029 50.5938 73.0666 49.974 71.3876 49.8182Z" fill="white" fill-opacity="0.6"/>
<path d="M83.8843 48.7766H86.5164V53.7142H88.3606V48.7766H91.0203V47.3154H83.8843V48.7766Z" fill="white" fill-opacity="0.6"/>
<path d="M117.276 48.676C118.366 48.676 118.982 49.0673 119.175 49.836L121.091 49.462C120.709 47.9801 119.364 47.2148 117.276 47.2148C114.76 47.2148 113.198 48.496 113.198 50.5146C113.198 52.5333 114.661 53.8144 117.276 53.8144C119.374 53.8144 120.716 53.0388 121.071 51.5188L119.182 51.1517C119.017 51.955 118.401 52.3498 117.276 52.3498C115.803 52.3498 115.087 51.7369 115.087 50.5112C115.084 49.2993 115.803 48.676 117.276 48.676Z" fill="white" fill-opacity="0.6"/>
<path d="M135.536 47.2148C132.938 47.2148 131.386 48.4683 131.386 50.525C131.386 52.554 132.938 53.8144 135.536 53.8144C138.123 53.8144 139.678 52.554 139.678 50.525C139.678 48.4648 138.126 47.2148 135.536 47.2148ZM135.536 52.3498C134.018 52.3498 133.275 51.7265 133.275 50.5215C133.275 49.2958 134.018 48.676 135.536 48.676C137.043 48.676 137.789 49.2958 137.789 50.5215C137.789 51.73 137.043 52.3498 135.536 52.3498Z" fill="white" fill-opacity="0.6"/>
<path d="M157.322 49.4063C157.322 48.1252 156.458 47.3115 154.934 47.3115H150.492V53.7103H152.336V51.5704H153.482L155.354 53.7103H157.614L155.508 51.3696C156.651 51.1999 157.322 50.4486 157.322 49.4063ZM154.607 50.175H152.336V48.7138H154.607C155.178 48.7138 155.477 48.9701 155.477 49.4444C155.477 49.9188 155.178 50.175 154.607 50.175Z" fill="white" fill-opacity="0.6"/>
<path d="M175.148 49.4063C175.148 48.1252 174.284 47.3115 172.76 47.3115H168.318V53.7103H170.162V51.5704H171.308L173.18 53.7103H175.44L173.334 51.3696C174.477 51.1999 175.148 50.4486 175.148 49.4063ZM172.433 50.175H170.162V48.7138H172.433C173.004 48.7138 173.303 48.9701 173.303 49.4444C173.303 49.9188 173.004 50.175 172.433 50.175Z" fill="white" fill-opacity="0.6"/>
<path d="M187.961 51.145H191.901V49.7738H187.961V48.7143H192.448V47.3154H186.145V53.7142H192.531V52.3153H187.961V51.145Z" fill="white" fill-opacity="0.6"/>
<path d="M207.029 48.676C208.12 48.676 208.736 49.0673 208.929 49.836L210.845 49.462C210.463 47.9801 209.118 47.2148 207.029 47.2148C204.514 47.2148 202.952 48.496 202.952 50.5146C202.952 52.5333 204.414 53.8144 207.029 53.8144C209.128 53.8144 210.47 53.0388 210.824 51.5188L208.936 51.1517C208.77 51.955 208.154 52.3498 207.029 52.3498C205.557 52.3498 204.841 51.7369 204.841 50.5112C204.841 49.2993 205.56 48.676 207.029 48.676Z" fill="white" fill-opacity="0.6"/>
<path d="M220.995 48.7766H223.631V53.7142H225.475V48.7766H228.135V47.3154H220.995V48.7766Z" fill="white" fill-opacity="0.6"/>
<path d="M240.638 47.3154H238.793V53.7142H244.591V52.2495H240.638V47.3154Z" fill="white" fill-opacity="0.6"/>
<path d="M257.094 49.7011L255.405 47.3154H253.134L256.121 51.2454V53.7142H257.965V51.2627L260.972 47.3154H258.811L257.094 49.7011Z" fill="white" fill-opacity="0.6"/>
<path d="M208.877 26.9629H174.886V34.5043H208.877V26.9629Z" fill="url(#paint0_radial)"/>
<path d="M21.3047 0.00488281H0V7.88903H21.6488C27.8695 7.88903 31.004 11.0919 31.004 17.3521C31.004 23.4634 27.8695 26.6178 21.6488 26.6178H0V34.5054H21.3047C33.9423 34.5054 41.1919 28.2936 41.1919 17.3521C41.1919 6.36206 33.9423 0.00488281 21.3047 0.00488281Z" fill="url(#paint1_radial)"/>
<path d="M61.8083 0H51.8647V34.5005H61.8083V0Z" fill="url(#paint2_radial)"/>
<path d="M103.241 23.3616L82.2288 0H72.4813V34.504H81.6404V11.1874L102.653 34.504H112.349V0H103.241V23.3616Z" fill="url(#paint3_radial)"/>
<path d="M144.33 0.00390625H123.025V7.88806H144.674C150.891 7.88806 154.026 11.0909 154.026 17.3511C154.026 23.4625 150.891 26.6168 144.674 26.6168H123.025V34.5044H144.33C156.968 34.5044 164.214 28.2927 164.214 17.3511C164.214 6.36109 156.968 0.00390625 144.33 0.00390625Z" fill="url(#paint4_radial)"/>
<path d="M246.404 17.1048L260.656 0H248.95L240.672 10.7442L232.005 0H219.808L234.011 16.8555L219.564 34.5005H231.417L239.891 23.4135L248.803 34.5005H261L246.404 17.1048Z" fill="url(#paint5_radial)"/>
<path d="M202.078 13.7666H174.886V21.308H202.078V13.7666Z" fill="url(#paint6_radial)"/>
<path d="M196.642 0H174.886V7.54136H196.642V0Z" fill="url(#paint7_radial)"/>
<defs>
<radialGradient id="paint0_radial" cx="0" cy="0" r="1" gradientUnits="userSpaceOnUse" gradientTransform="translate(191.881 30.7336) rotate(90) scale(3.77068 16.9953)">
<stop stop-color="white"/>
<stop offset="1" stop-color="white" stop-opacity="0.63"/>
</radialGradient>
<radialGradient id="paint1_radial" cx="0" cy="0" r="1" gradientUnits="userSpaceOnUse" gradientTransform="translate(20.5959 17.2551) rotate(90) scale(17.2503 20.5959)">
<stop stop-color="white"/>
<stop offset="1" stop-color="white" stop-opacity="0.63"/>
</radialGradient>
<radialGradient id="paint2_radial" cx="0" cy="0" r="1" gradientUnits="userSpaceOnUse" gradientTransform="translate(56.8365 17.2503) rotate(90) scale(17.2503 4.97179)">
<stop stop-color="white"/>
<stop offset="1" stop-color="white" stop-opacity="0.63"/>
</radialGradient>
<radialGradient id="paint3_radial" cx="0" cy="0" r="1" gradientUnits="userSpaceOnUse" gradientTransform="translate(92.4149 17.252) rotate(90) scale(17.252 19.9336)">
<stop stop-color="white"/>
<stop offset="1" stop-color="white" stop-opacity="0.63"/>
</radialGradient>
<radialGradient id="paint4_radial" cx="0" cy="0" r="1" gradientUnits="userSpaceOnUse" gradientTransform="translate(143.619 17.2542) rotate(90) scale(17.2503 20.5942)">
<stop stop-color="white"/>
<stop offset="1" stop-color="white" stop-opacity="0.63"/>
</radialGradient>
<radialGradient id="paint5_radial" cx="0" cy="0" r="1" gradientUnits="userSpaceOnUse" gradientTransform="translate(240.282 17.2503) rotate(90) scale(17.2503 20.7181)">
<stop stop-color="white"/>
<stop offset="1" stop-color="white" stop-opacity="0.63"/>
</radialGradient>
<radialGradient id="paint6_radial" cx="0" cy="0" r="1" gradientUnits="userSpaceOnUse" gradientTransform="translate(188.482 17.5373) rotate(90) scale(3.77068 13.5959)">
<stop stop-color="white"/>
<stop offset="1" stop-color="white" stop-opacity="0.63"/>
</radialGradient>
<radialGradient id="paint7_radial" cx="0" cy="0" r="1" gradientUnits="userSpaceOnUse" gradientTransform="translate(185.764 3.77068) rotate(90) scale(3.77068 10.8777)">
<stop stop-color="white"/>
<stop offset="1" stop-color="white" stop-opacity="0.63"/>
</radialGradient>
</defs>
</svg>
