<svg width="46" height="46" viewBox="0 0 46 46" fill="none" xmlns="http://www.w3.org/2000/svg">
<path d="M9.58333 0H36.4167C41.7095 0 46 4.29046 46 9.58333V36.4167C46 41.7095 41.7095 46 36.4167 46H9.58333C4.29046 46 0 41.7095 0 36.4167V9.58333C0 4.29046 4.29046 0 9.58333 0Z" fill="url(#paint0_linear)"/>
<path d="M8.96003 34.7207C8.2892 35.8516 8.66295 37.3274 9.80336 37.9982C10.1771 38.2282 10.5988 38.3337 11.0204 38.3337C11.835 38.3337 12.6304 37.912 13.0809 37.1549L15.2179 33.542H9.65961L8.96003 34.7207Z" fill="white"/>
<path d="M19.7608 25.8753L21.4666 23.0003L22.9999 20.4128L25.7791 15.7266L28.4145 11.2799C29.0853 10.1491 28.7116 8.67322 27.5712 8.00239C26.4403 7.33155 24.9645 7.7053 24.2937 8.84572L22.9999 11.0307L21.7062 8.84572C21.5912 8.64447 21.4378 8.46239 21.2749 8.29947C20.5178 7.60947 19.3583 7.45614 18.4287 8.00239C17.2883 8.67322 16.9145 10.1491 17.5853 11.2799L18.5437 12.8995L20.2208 15.7266L15.9083 23.0003L14.2024 25.8753H9.10409C7.78159 25.8753 6.70825 26.9486 6.70825 28.2711C6.70825 29.5936 7.78159 30.667 9.10409 30.667H11.3658H16.9241H25.7312L22.8849 25.8753H19.7608Z" fill="white"/>
<path d="M36.8965 25.8752H31.7981L27.4569 18.5439L24.6682 23.2398L26.2302 25.8752L29.0765 30.6669L32.9194 37.1548C33.3698 37.9119 34.1652 38.3335 34.9798 38.3335C35.4015 38.3335 35.8231 38.2281 36.1969 37.9981C37.3373 37.3273 37.7111 35.8514 37.0402 34.7206L34.6348 30.6669H36.8965C37.2319 30.6669 37.5577 30.5998 37.8548 30.4656C38.6981 30.1014 39.2923 29.2581 39.2923 28.271C39.2923 26.9485 38.219 25.8752 36.8965 25.8752Z" fill="white"/>
<defs>
<linearGradient id="paint0_linear" x1="23" y1="57.3783" x2="23" y2="-12.9873" gradientUnits="userSpaceOnUse">
<stop stop-color="#005CE2"/>
<stop offset="0.278" stop-color="#0080E8"/>
<stop offset="0.569" stop-color="#009CED"/>
<stop offset="0.82" stop-color="#00B0F1"/>
<stop offset="1" stop-color="#00B5F2"/>
</linearGradient>
</defs>
</svg>
