<svg width="345" height="60" viewBox="0 0 345 60" fill="none" xmlns="http://www.w3.org/2000/svg">
<rect x="0.5" y="4.5" width="344" height="51" rx="25.5" stroke="url(#paint0_linear)"/>
<path d="M157.664 36H160.416V24.8H157.664V36ZM166.942 36H169.47V27.872L176.974 36H179.678V24.8H177.134V32.944L169.646 24.8H166.942V36ZM186.189 36H192.877C197.005 36 199.325 33.936 199.325 30.432C199.325 26.896 197.005 24.8 192.877 24.8H186.189V36ZM192.989 33.824H188.941V26.976H192.989C195.309 26.976 196.493 28.208 196.493 30.432C196.493 32.608 195.309 33.824 192.989 33.824ZM205.108 36H216.084V33.904H207.812V31.328H215.028V29.248H207.812V26.896H215.956V24.8H205.108V36ZM223.536 36L226.72 32.064L230.032 36H233.44L228.544 30.352L233.312 24.8H230.064L226.96 28.608L223.728 24.8H220.336L225.072 30.272L220.256 36H223.536ZM249.621 36H252.373V26.976H257.269V24.8H244.773V26.976H249.621V36ZM268.228 36.176C272.724 36.176 275.396 33.952 275.396 30.416C275.396 26.848 272.724 24.624 268.228 24.624C263.716 24.624 261.06 26.848 261.06 30.416C261.06 33.952 263.716 36.176 268.228 36.176ZM268.228 34C265.332 34 263.876 32.72 263.876 30.416C263.876 28.096 265.332 26.8 268.228 26.8C271.124 26.8 272.564 28.096 272.564 30.416C272.564 32.72 271.124 34 268.228 34ZM281.061 36H283.765V32.576L285.061 31.568L290.181 36H294.117L287.173 29.904L293.669 24.8H289.973L283.765 29.744V24.8H281.061V36ZM298.886 36H309.862V33.904H301.59V31.328H308.806V29.248H301.59V26.896H309.734V24.8H298.886V36ZM315.57 36H318.098V27.872L325.602 36H328.306V24.8H325.762V32.944L318.274 24.8H315.57V36Z" fill="white"/>
<g filter="url(#filter0_d)">
<circle cx="125" cy="30" r="16" fill="url(#paint1_radial)"/>
</g>
<path d="M114.333 26.9773H116.325V25.3333H114.333V26.9773ZM114.357 34.3453H116.313V27.7693H114.357V34.3453Z" fill="white"/>
<path d="M125.995 31.9693C125.995 30.9133 125.383 30.2893 124.231 30.0013C125.299 29.6653 125.851 29.0053 125.851 28.0813C125.851 26.6173 124.291 25.8133 121.555 25.8133C118.975 25.8133 117.451 26.6893 117.103 28.2973L119.059 28.6933C119.215 27.8053 120.007 27.3493 121.519 27.3493C122.995 27.3493 123.727 27.6973 123.727 28.3693C123.727 28.9813 123.235 29.3413 122.227 29.3413H120.007V30.8773H122.227C123.283 30.8773 123.787 31.2253 123.787 31.8493C123.787 32.5693 123.055 32.9413 121.543 32.9413C119.923 32.9413 119.167 32.4733 119.035 31.5373L116.959 31.9333C117.307 33.6973 118.783 34.4773 121.531 34.4773C124.435 34.4773 125.995 33.5893 125.995 31.9693Z" fill="white"/>
<path d="M131.298 34.4773C134.43 34.4773 136.266 32.8693 136.266 30.1453C136.266 27.4213 134.43 25.8133 131.298 25.8133C128.166 25.8133 126.33 27.4213 126.33 30.1453C126.33 32.8693 128.166 34.4773 131.298 34.4773ZM131.298 32.8453C129.426 32.8453 128.454 31.8973 128.454 30.1453C128.454 28.3933 129.426 27.4453 131.298 27.4453C133.17 27.4453 134.142 28.3933 134.142 30.1453C134.142 31.8973 133.17 32.8453 131.298 32.8453Z" fill="white"/>
<circle cx="78" cy="30" r="16" fill="url(#paint2_radial)"/>
<path d="M67.3333 26.9773H69.3253V25.3333H67.3333V26.9773ZM67.3573 34.3453H69.3133V27.7693H67.3573V34.3453Z" fill="white"/>
<path d="M70.2351 32.7253V34.3453H78.7191V32.7133H73.6071L75.4311 31.7053C77.9991 30.4333 78.5991 29.6413 78.5991 28.4173C78.5991 26.8093 77.0991 25.8133 74.4351 25.8133C71.7951 25.8133 70.3071 26.7973 70.0191 28.5853L72.0591 28.9213C72.1551 27.9133 72.8511 27.4213 74.4231 27.4213C75.8031 27.4213 76.4511 27.8173 76.4511 28.5013C76.4511 29.1373 76.0671 29.5813 74.3871 30.4693L70.2351 32.7253Z" fill="white"/>
<path d="M83.9116 34.4773C87.0436 34.4773 88.8796 32.8693 88.8796 30.1453C88.8796 27.4213 87.0436 25.8133 83.9116 25.8133C80.7796 25.8133 78.9436 27.4213 78.9436 30.1453C78.9436 32.8693 80.7796 34.4773 83.9116 34.4773ZM83.9116 32.8453C82.0396 32.8453 81.0676 31.8973 81.0676 30.1453C81.0676 28.3933 82.0396 27.4453 83.9116 27.4453C85.7836 27.4453 86.7556 28.3933 86.7556 30.1453C86.7556 31.8973 85.7836 32.8453 83.9116 32.8453Z" fill="white"/>
<g filter="url(#filter1_b)">
<circle cx="31" cy="30" r="16" fill="url(#paint3_linear)"/>
</g>
<path d="M21 26.9773H22.992V25.3333H21V26.9773ZM21.024 34.3453H22.98V27.7693H21.024V34.3453Z" fill="#2474C8"/>
<path d="M23.7698 34.3453H32.1818V32.7133H29.2658V25.9453H27.4538L24.0338 26.5813V28.2613L27.1898 27.6853V32.7133H23.7698V34.3453Z" fill="#2474C8"/>
<path d="M36.8518 34.4773C39.9838 34.4773 41.8198 32.8693 41.8198 30.1453C41.8198 27.4213 39.9838 25.8133 36.8518 25.8133C33.7198 25.8133 31.8838 27.4213 31.8838 30.1453C31.8838 32.8693 33.7198 34.4773 36.8518 34.4773ZM36.8518 32.8453C34.9798 32.8453 34.0078 31.8973 34.0078 30.1453C34.0078 28.3933 34.9798 27.4453 36.8518 27.4453C38.7238 27.4453 39.6958 28.3933 39.6958 30.1453C39.6958 31.8973 38.7238 32.8453 36.8518 32.8453Z" fill="#2474C8"/>
<defs>
<filter id="filter0_d" x="95" y="0" width="60" height="60" filterUnits="userSpaceOnUse" color-interpolation-filters="sRGB">
<feFlood flood-opacity="0" result="BackgroundImageFix"/>
<feColorMatrix in="SourceAlpha" type="matrix" values="0 0 0 0 0 0 0 0 0 0 0 0 0 0 0 0 0 0 127 0"/>
<feOffset/>
<feGaussianBlur stdDeviation="7"/>
<feColorMatrix type="matrix" values="0 0 0 0 0.0901961 0 0 0 0 0.615686 0 0 0 0 0.498039 0 0 0 0.81 0"/>
<feBlend mode="normal" in2="BackgroundImageFix" result="effect1_dropShadow"/>
<feBlend mode="normal" in="SourceGraphic" in2="effect1_dropShadow" result="shape"/>
</filter>
<filter id="filter1_b" x="-25" y="-26" width="112" height="112" filterUnits="userSpaceOnUse" color-interpolation-filters="sRGB">
<feFlood flood-opacity="0" result="BackgroundImageFix"/>
<feGaussianBlur in="BackgroundImage" stdDeviation="20"/>
<feComposite in2="SourceAlpha" operator="in" result="effect1_backgroundBlur"/>
<feBlend mode="normal" in="SourceGraphic" in2="effect1_backgroundBlur" result="shape"/>
</filter>
<linearGradient id="paint0_linear" x1="172.5" y1="4" x2="172.5" y2="66.3333" gradientUnits="userSpaceOnUse">
<stop stop-color="#17A57A"/>
<stop offset="1" stop-color="#17A57A" stop-opacity="0"/>
</linearGradient>
<radialGradient id="paint1_radial" cx="0" cy="0" r="1" gradientUnits="userSpaceOnUse" gradientTransform="translate(124.999 30.0046) scale(54.668)">
<stop stop-color="#17A57A"/>
<stop offset="1" stop-color="#1751A5"/>
</radialGradient>
<radialGradient id="paint2_radial" cx="0" cy="0" r="1" gradientUnits="userSpaceOnUse" gradientTransform="translate(77.9986 30.0046) scale(41.3347)">
<stop stop-color="#1751A5"/>
<stop offset="1" stop-color="#17A57A"/>
</radialGradient>
<linearGradient id="paint3_linear" x1="31" y1="14" x2="31" y2="46" gradientUnits="userSpaceOnUse">
<stop stop-color="#B7E4EE"/>
<stop offset="0.715236" stop-color="#ECF9F4"/>
<stop offset="0.85681" stop-color="#EDF9F5"/>
<stop offset="1" stop-color="#EDF9F5"/>
</linearGradient>
</defs>
</svg>
